SplineFontDB: 3.2
FontName: GoodGirl
FullName: GoodGirl Regular
FamilyName: GoodGirl
Weight: Book
Copyright: Good Girl was inspired by a font in 1960 Modern Teen magazine.  Mail Cathy: cdavies@hamp.hampshire.edu                                      See Cathy's work:  http://charity.artificial.com                                No copyright; use as you wish.
Version: Altsys Fontographer 4.0 19/03/99
ItalicAngle: 0
UnderlinePosition: -493
UnderlineWidth: 40
Ascent: 1638
Descent: 410
InvalidEm: 0
sfntRevision: 0x00010000
LayerCount: 2
Layer: 0 1 "Arri+AOgA-re" 1
Layer: 1 1 "Avant" 0
XUID: [1021 966 383830817 16351]
StyleMap: 0x0040
FSType: 4
OS2Version: 1
OS2_WeightWidthSlopeOnly: 0
OS2_UseTypoMetrics: 0
CreationTime: 956316319
ModificationTime: 1578792972
PfmFamily: 81
TTFWeight: 400
TTFWidth: 5
LineGap: 0
VLineGap: 0
Panose: 0 0 4 0 0 0 0 0 0 0
OS2TypoAscent: 1638
OS2TypoAOffset: 0
OS2TypoDescent: -410
OS2TypoDOffset: 0
OS2TypoLinegap: 0
OS2WinAscent: 1638
OS2WinAOffset: 0
OS2WinDescent: 542
OS2WinDOffset: 0
HheadAscent: 1638
HheadAOffset: 0
HheadDescent: -542
HheadDOffset: 0
OS2SubXSize: 1434
OS2SubYSize: 1331
OS2SubXOff: 0
OS2SubYOff: 293
OS2SupXSize: 1434
OS2SupYSize: 1331
OS2SupXOff: 0
OS2SupYOff: 928
OS2StrikeYSize: 102
OS2StrikeYPos: 530
OS2Vendor: 'Alts'
OS2CodePages: 00000001.00000000
OS2UnicodeRanges: 00000000.00000000.00000000.00000000
DEI: 91125
TtTable: prep
PUSHW_1
 511
SCANCTRL
PUSHB_1
 1
SCANTYPE
SVTCA[y-axis]
MPPEM
PUSHB_1
 8
LT
IF
PUSHB_2
 1
 1
INSTCTRL
EIF
PUSHB_2
 70
 6
CALL
IF
POP
PUSHB_1
 16
EIF
MPPEM
PUSHB_1
 20
GT
IF
POP
PUSHB_1
 128
EIF
SCVTCI
PUSHB_1
 6
CALL
NOT
IF
SVTCA[y-axis]
PUSHB_1
 3
DUP
RCVT
PUSHB_1
 3
CALL
WCVTP
PUSHB_1
 8
DUP
RCVT
PUSHB_3
 3
 61
 2
CALL
PUSHB_1
 3
CALL
WCVTP
PUSHB_1
 7
DUP
RCVT
PUSHB_3
 8
 55
 2
CALL
PUSHB_1
 3
CALL
WCVTP
PUSHB_1
 6
DUP
RCVT
PUSHB_3
 7
 38
 2
CALL
PUSHB_1
 3
CALL
WCVTP
PUSHB_1
 5
DUP
RCVT
PUSHB_3
 6
 26
 2
CALL
PUSHB_1
 3
CALL
WCVTP
PUSHB_1
 4
DUP
RCVT
PUSHB_3
 5
 21
 2
CALL
PUSHB_1
 3
CALL
WCVTP

StartChar: .notdef
Encoding: 65536 -1 0
Width: 748
Flags: W
LayerCount: 2
Fore
SplineSet
68 0 m 1,0,-1
 68 1365 l 1,1,-1
 612 1365 l 1,2,-1
 612 0 l 1,3,-1
 68 0 l 1,0,-1
136 68 m 1,4,-1
 544 68 l 1,5,-1
 544 1297 l 1,6,-1
 136 1297 l 1,7,-1
 136 68 l 1,4,-1
EndSplineSet
EndChar

StartChar: exclam
Encoding: 33 33 4
Width: 520
GlyphClass: 2
Flags: W
LayerCount: 2
Fore
SplineSet
20 1485 m 1,0,1
 36 1510 36 1510 82.5 1507.5 c 128,-1,2
 129 1505 129 1505 145 1522 c 1,3,4
 165 1520 165 1520 190 1520 c 256,5,6
 215 1520 215 1520 264 1522 c 128,-1,7
 313 1524 313 1524 338 1524 c 0,8,9
 449 1524 449 1524 504 1479 c 1,10,-1
 457 819 l 2,11,12
 428 413 428 413 436 152 c 1,13,14
 377 123 377 123 270 123 c 0,15,16
 252 123 252 123 168 125 c 0,17,18
 107 127 107 127 68 125 c 1,19,-1
 43 137 l 1,20,-1
 43 1171 l 2,21,22
 43 1259 43 1259 20 1485 c 1,0,1
31 -31 m 1,23,24
 92 2 92 2 203 2 c 0,25,26
 221 2 221 2 303 0 c 0,27,28
 362 -2 362 -2 401 0 c 1,29,-1
 422 -14 l 1,30,-1
 422 -336 l 1,31,-1
 401 -348 l 1,32,-1
 57 -348 l 1,33,-1
 37 -328 l 1,34,-1
 31 -31 l 1,23,24
EndSplineSet
EndChar

StartChar: quotedbl
Encoding: 34 34 5
Width: 937
GlyphClass: 2
Flags: W
LayerCount: 2
Fore
SplineSet
0 954 m 1,0,1
 27 1065 27 1065 94 1219 c 0,2,3
 127 1295 127 1295 203 1475 c 0,4,5
 217 1510 217 1510 246 1509 c 0,6,7
 277 1509 277 1509 360 1446 c 0,8,9
 418 1401 418 1401 473 1356 c 1,10,11
 446 1252 446 1252 375 1128 c 0,12,13
 334 1054 334 1054 248 913 c 0,14,15
 228 882 228 882 186 883 c 0,16,17
 153 883 153 883 131 897 c 0,18,19
 100 917 100 917 66 928 c 0,20,21
 41 934 41 934 0 954 c 1,0,1
459 975 m 1,22,23
 486 1086 486 1086 553 1239 c 0,24,25
 586 1315 586 1315 662 1495 c 0,26,27
 676 1530 676 1530 705 1530 c 0,28,29
 736 1530 736 1530 819 1466 c 0,30,31
 877 1421 877 1421 932 1376 c 1,32,33
 905 1272 905 1272 834 1149 c 0,34,35
 793 1075 793 1075 707 934 c 0,36,37
 687 903 687 903 645 903 c 0,38,39
 612 903 612 903 590 918 c 0,40,41
 559 938 559 938 524 948 c 0,42,43
 499 954 499 954 459 975 c 1,22,23
EndSplineSet
EndChar

StartChar: numbersign
Encoding: 35 35 6
Width: 405
GlyphClass: 2
Flags: W
LayerCount: 2
Fore
SplineSet
20 670 m 1,0,-1
 20 864 l 2,1,2
 20 952 20 952 35 1006 c 1,3,-1
 385 1006 l 1,4,-1
 406 985 l 1,5,-1
 412 684 l 1,6,7
 353 655 353 655 248 655 c 0,8,9
 230 655 230 655 143 657 c 0,10,11
 82 659 82 659 41 657 c 1,12,-1
 20 670 l 1,0,-1
EndSplineSet
EndChar

StartChar: dollar
Encoding: 36 36 7
Width: 1112
GlyphClass: 2
Flags: W
LayerCount: 2
Fore
SplineSet
-2 1090 m 0,0,1
 -2 1192 -2 1192 31 1262 c 0,2,3
 68 1344 68 1344 150 1395 c 0,4,5
 166 1405 166 1405 205 1405 c 0,6,7
 228 1405 228 1405 272.5 1399 c 128,-1,8
 317 1393 317 1393 340 1393 c 0,9,10
 424 1393 424 1393 426 1473 c 0,11,12
 426 1506 426 1506 426 1538 c 0,13,14
 428 1583 428 1583 446 1597 c 1,15,-1
 455 1597 l 1,16,-1
 473 1597 l 1,17,-1
 588 1599 l 2,18,19
 666 1599 666 1599 711 1577 c 1,20,-1
 711 1430 l 1,21,22
 738 1416 738 1416 854 1391 c 0,23,24
 946 1371 946 1371 987 1321 c 0,25,26
 1080 1208 1080 1208 1092 942 c 1,27,28
 1026 928 1026 928 942 928 c 0,29,30
 823 928 823 928 690 956 c 1,31,32
 674 1007 674 1007 659 1061 c 1,33,34
 632 1120 632 1120 582 1120 c 2,35,36
 582 1120 582 1120 518 1116 c 0,37,38
 471 1112 471 1112 459 1118 c 1,39,-1
 467 1118 l 2,40,41
 434 1116 434 1116 420 1081 c 1,42,43
 424 968 424 968 541 891 c 0,44,45
 629 832 629 832 739 768 c 0,46,47
 792 741 792 741 895 686 c 0,48,49
 934 663 934 663 979 605 c 128,-1,50
 1024 547 1024 547 1038 504 c 0,51,52
 1073 404 1073 404 1073 242 c 0,53,54
 1073 58 1073 58 965 -31 c 0,55,56
 881 -99 881 -99 680 -135 c 1,57,-1
 666 -246 l 1,58,-1
 406 -252 l 1,59,60
 390 -242 390 -242 391.5 -200 c 128,-1,61
 393 -158 393 -158 369 -152 c 0,62,63
 353 -152 353 -152 338 -152 c 0,64,65
 256 -152 256 -152 188 -125 c 0,66,67
 92 -84 92 -84 72 -6 c 0,68,69
 60 41 60 41 35 184 c 0,70,71
 17 288 17 288 16 377 c 0,72,73
 16 432 16 432 25 483 c 1,74,-1
 27 483 l 1,75,-1
 35 483 l 1,76,-1
 68 483 l 1,77,-1
 229 485 l 2,78,79
 348 485 348 485 412 463 c 1,80,-1
 412 176 l 1,81,82
 432 125 432 125 481 125 c 0,83,84
 506 125 506 125 552 140.5 c 128,-1,85
 598 156 598 156 623 156 c 1,86,87
 697 189 697 189 696 297 c 0,88,89
 696 350 696 350 690 375 c 0,90,91
 672 453 672 453 532 518 c 0,92,93
 446 557 446 557 338 614 c 1,94,95
 258 680 258 680 145 782 c 0,96,97
 12 903 12 903 0 1016 c 0,98,99
 -2 1034 -2 1034 -2 1090 c 0,0,1
EndSplineSet
EndChar

StartChar: percent
Encoding: 37 37 8
Width: 405
GlyphClass: 2
Flags: W
LayerCount: 2
Fore
SplineSet
20 670 m 1,0,-1
 20 864 l 2,1,2
 20 952 20 952 35 1006 c 1,3,-1
 385 1006 l 1,4,-1
 406 985 l 1,5,-1
 412 684 l 1,6,7
 353 655 353 655 248 655 c 0,8,9
 230 655 230 655 143 657 c 0,10,11
 82 659 82 659 41 657 c 1,12,-1
 20 670 l 1,0,-1
EndSplineSet
EndChar

StartChar: ampersand
Encoding: 38 38 9
Width: 1415
GlyphClass: 2
Flags: W
LayerCount: 2
Fore
SplineSet
16 301 m 0,0,1
 16 336 16 336 22.5 404.5 c 128,-1,2
 29 473 29 473 29 504 c 0,3,4
 29 555 29 555 121 608.5 c 128,-1,5
 213 662 213 662 213 674 c 0,6,7
 213 701 213 701 125 735 c 1,8,9
 55 852 55 852 55 1036 c 0,10,11
 55 1132 55 1132 74 1276 c 0,12,13
 88 1393 88 1393 168 1438 c 0,14,15
 272 1497 272 1497 502 1497 c 0,16,17
 551 1497 551 1497 729 1485 c 0,18,19
 795 1483 795 1483 928 1473 c 0,20,21
 981 1467 981 1467 1034 1419.5 c 128,-1,22
 1087 1372 1087 1372 1110 1319 c 0,23,24
 1153 1221 1153 1221 1153 1038 c 1,25,26
 1153 1052 1153 1052 1137 834 c 0,27,28
 1137 832 1137 832 1137 828 c 2,29,-1
 1137 823 l 2,30,31
 1137 774 1137 774 1045.5 720 c 128,-1,32
 954 666 954 666 954 653 c 0,33,34
 954 624 954 624 1042 590 c 1,35,-1
 1073 547 l 1,36,37
 1102 557 1102 557 1147 637 c 0,38,39
 1188 709 1188 709 1233 709 c 0,40,41
 1258 709 1258 709 1315 655 c 0,42,43
 1381 594 1381 594 1401 584 c 1,44,45
 1403 575 1403 575 1403 567 c 0,46,47
 1403 512 1403 512 1331.5 421 c 128,-1,48
 1260 330 1260 330 1255 276 c 1,49,50
 1265 243 1265 243 1335 139 c 0,51,52
 1390 57 1390 57 1391 -4 c 1,53,54
 1334 -41 1334 -41 1278 -78 c 1,55,56
 1206 -119 1206 -119 1157 -129 c 1,57,-1
 1079 -20 l 1,58,59
 1007 -110 1007 -110 879 -139 c 0,60,61
 762 -166 762 -166 641 -166 c 1,62,63
 657 -166 657 -166 602 -162 c 0,64,65
 565 -160 565 -160 514 -160 c 0,66,67
 299 -160 299 -160 219 -133 c 0,68,69
 98 -92 98 -92 59 6 c 0,70,71
 16 112 16 112 16 301 c 0,0,1
330 1026 m 0,72,73
 330 979 330 979 344 948 c 0,74,75
 364 901 364 901 399 852 c 0,76,77
 442 789 442 789 569 788 c 0,78,79
 669 788 669 788 715 852 c 0,80,81
 727 868 727 868 729 874 c 0,82,83
 745 930 745 930 745 1026 c 0,84,85
 745 1118 745 1118 700 1174 c 0,86,87
 694 1180 694 1180 678 1196 c 0,88,89
 617 1262 617 1262 543 1262 c 0,90,91
 432 1262 432 1262 365 1182 c 1,92,93
 330 1084 330 1084 330 1026 c 0,72,73
422 328 m 0,94,95
 422 205 422 205 465 154 c 0,96,97
 545 58 545 58 645 57 c 0,98,99
 735 57 735 57 814 120.5 c 128,-1,100
 893 184 893 184 911 270 c 1,101,102
 870 383 870 383 772 461 c 0,103,104
 668 541 668 541 553 541 c 0,105,106
 526 541 526 541 487.5 509 c 128,-1,107
 449 477 449 477 438 453 c 0,108,109
 422 414 422 414 422 328 c 0,94,95
EndSplineSet
EndChar

StartChar: quotesingle
Encoding: 39 39 10
Width: 471
GlyphClass: 2
Flags: W
LayerCount: 2
Fore
SplineSet
0 954 m 1,0,1
 27 1065 27 1065 94 1219 c 0,2,3
 127 1295 127 1295 203 1475 c 0,4,5
 217 1510 217 1510 246 1509 c 0,6,7
 277 1509 277 1509 360 1446 c 0,8,9
 418 1401 418 1401 473 1356 c 1,10,11
 446 1252 446 1252 375 1128 c 0,12,13
 334 1054 334 1054 248 913 c 0,14,15
 228 882 228 882 186 883 c 0,16,17
 153 883 153 883 131 897 c 0,18,19
 100 917 100 917 66 928 c 0,20,21
 41 934 41 934 0 954 c 1,0,1
EndSplineSet
EndChar

StartChar: parenleft
Encoding: 40 40 11
Width: 571
GlyphClass: 2
Flags: W
LayerCount: 2
Fore
SplineSet
0 117 m 1,0,1
 0 633 0 633 55 1174 c 0,2,3
 57 1215 57 1215 68 1290 c 0,4,5
 70 1300 70 1300 84 1329 c 0,6,7
 143 1444 143 1444 279 1497 c 0,8,9
 355 1528 355 1528 578 1554 c 1,10,-1
 578 1337 l 2,11,12
 578 1208 578 1208 561 1128 c 1,13,14
 473 1124 473 1124 430 1034 c 1,15,16
 416 852 416 852 416 647 c 0,17,18
 416 500 416 500 424 360 c 0,19,20
 424 323 424 323 433 255.5 c 128,-1,21
 442 188 442 188 461 152 c 0,22,23
 488 95 488 95 535 72 c 1,24,-1
 547 -225 l 1,25,26
 408 -215 408 -215 406 -215 c 0,27,28
 322 -209 322 -209 264 -193 c 0,29,30
 129 -156 129 -156 59 -68 c 0,31,32
 39 -43 39 -43 37 -37 c 0,33,34
 31 -17 31 -17 0 117 c 1,0,1
EndSplineSet
EndChar

StartChar: parenright
Encoding: 41 41 12
Width: 841
GlyphClass: 2
Flags: W
LayerCount: 2
Fore
SplineSet
37 -281 m 0,0,1
 37 -209 37 -209 66 -96 c 1,2,3
 222 -53 222 -53 254 41 c 0,4,5
 256 45 256 45 264 94 c 0,6,7
 289 256 289 256 295 496 c 0,8,9
 299 697 299 697 303 897 c 0,10,11
 305 915 305 915 309 977 c 0,12,13
 313 1028 313 1028 313 1055 c 0,14,15
 313 1061 313 1061 301 1096 c 0,16,17
 268 1200 268 1200 188 1243 c 0,18,19
 161 1257 161 1257 133 1260 c 0,20,21
 113 1260 113 1260 72 1268 c 1,22,23
 68 1293 68 1293 68 1317 c 0,24,25
 68 1368 68 1368 87 1467.5 c 128,-1,26
 106 1567 106 1567 106 1616 c 1,27,-1
 123 1622 l 1,28,29
 254 1614 254 1614 309 1606 c 0,30,31
 415 1592 415 1592 492 1561 c 0,32,33
 594 1522 594 1522 659 1448 c 0,34,35
 684 1423 684 1423 689 1415 c 128,-1,36
 694 1407 694 1407 707 1360 c 0,37,38
 762 1172 762 1172 778 881 c 2,39,-1
 799 506 l 2,40,41
 809 316 809 316 809 326 c 1,42,43
 809 109 809 109 764 -49 c 0,44,45
 715 -219 715 -219 598 -299 c 0,46,47
 563 -324 563 -324 545 -330 c 0,48,49
 518 -334 518 -334 471 -342 c 0,50,51
 383 -362 383 -362 293 -381 c 0,52,53
 189 -404 189 -404 113 -403 c 0,54,55
 86 -403 86 -403 59 -401 c 1,56,57
 36 -350 36 -350 37 -281 c 0,0,1
EndSplineSet
EndChar

StartChar: asterisk
Encoding: 42 42 13
Width: 1292
GlyphClass: 2
Flags: W
LayerCount: 2
Fore
SplineSet
10 446 m 1,0,-1
 352 748 l 1,1,2
 309 826 309 826 201 926 c 1,3,4
 140 977 140 977 31 1087 c 1,5,6
 58 1161 58 1161 137 1241 c 1,7,8
 137 1241 137 1241 281 1366 c 1,9,10
 316 1356 316 1356 365 1300 c 0,11,12
 420 1234 420 1234 440 1221 c 1,13,-1
 446 1511 l 2,14,15
 446 1525 446 1525 477 1536 c 0,16,17
 500 1542 500 1542 520 1548 c 1,18,19
 545 1540 545 1540 598 1540 c 0,20,21
 618 1540 618 1540 660 1543 c 128,-1,22
 702 1546 702 1546 725 1546 c 0,23,24
 801 1546 801 1546 842 1518 c 1,25,-1
 827 1227 l 1,26,27
 854 1235 854 1235 909.5 1298.5 c 128,-1,28
 965 1362 965 1362 1010 1366 c 1,29,30
 1073 1327 1073 1327 1147 1241 c 0,31,32
 1186 1192 1186 1192 1270 1102 c 1,33,-1
 1264 1059 l 1,34,-1
 905 748 l 1,35,36
 952 664 952 664 1059 563 c 0,37,38
 1209 422 1209 422 1233 395 c 1,39,-1
 1233 367 l 1,40,41
 1196 310 1196 310 1110 231 c 0,42,43
 1010 137 1010 137 979 102 c 1,44,45
 973 102 973 102 967 102 c 0,46,47
 924 102 924 102 883 158 c 0,48,49
 832 226 832 226 811 238 c 1,50,51
 805 215 805 215 805 174 c 0,52,53
 805 154 805 154 808 111 c 128,-1,54
 811 68 811 68 811 45 c 0,55,56
 811 -8 811 -8 797 -43 c 1,57,58
 742 -63 742 -63 674 -63 c 0,59,60
 641 -63 641 -63 577.5 -57 c 128,-1,61
 514 -51 514 -51 481 -51 c 0,62,63
 450 -51 450 -51 426 -55 c 1,64,65
 387 -6 387 -6 387 70 c 0,66,67
 387 109 387 109 397 172 c 0,68,69
 409 246 409 246 412 272 c 1,70,71
 389 268 389 268 346 215 c 128,-1,72
 303 162 303 162 274 162 c 0,73,74
 254 162 254 162 238.5 176 c 128,-1,75
 223 190 223 190 197.5 216 c 128,-1,76
 172 242 172 242 102 305 c 0,77,78
 18 383 18 383 10 446 c 1,0,-1
EndSplineSet
EndChar

StartChar: plus
Encoding: 43 43 14
Width: 405
GlyphClass: 2
Flags: W
LayerCount: 2
Fore
SplineSet
20 670 m 1,0,-1
 20 864 l 2,1,2
 20 952 20 952 35 1006 c 1,3,-1
 385 1006 l 1,4,-1
 406 985 l 1,5,-1
 412 684 l 1,6,7
 353 655 353 655 248 655 c 0,8,9
 230 655 230 655 143 657 c 0,10,11
 82 659 82 659 41 657 c 1,12,-1
 20 670 l 1,0,-1
EndSplineSet
EndChar

StartChar: comma
Encoding: 44 44 15
Width: 471
GlyphClass: 2
Flags: W
LayerCount: 2
Fore
SplineSet
-2 -336 m 1,0,1
 25 -225 25 -225 92 -72 c 0,2,3
 125 4 125 4 201 184 c 0,4,5
 215 219 215 219 244 219 c 0,6,7
 275 219 275 219 358 156 c 0,8,9
 416 111 416 111 471 66 c 1,10,11
 444 -38 444 -38 373 -162 c 0,12,13
 332 -236 332 -236 246 -377 c 0,14,15
 226 -408 226 -408 184 -408 c 0,16,17
 151 -408 151 -408 129 -393 c 0,18,19
 98 -373 98 -373 63 -365 c 0,20,21
 38 -357 38 -357 -2 -336 c 1,0,1
EndSplineSet
EndChar

StartChar: hyphen
Encoding: 45 45 16
Width: 675
GlyphClass: 2
Flags: W
LayerCount: 2
Fore
SplineSet
14 754 m 1,0,1
 41 801 41 801 123 805 c 0,2,3
 264 813 264 813 481 813 c 0,4,5
 577 813 577 813 645 797 c 1,6,7
 653 772 653 772 653 739 c 0,8,9
 653 708 653 708 642 643 c 128,-1,10
 631 578 631 578 633 543 c 1,11,-1
 582 514 l 1,12,-1
 72 530 l 1,13,14
 27 550 27 550 27 604 c 0,15,16
 27 618 27 618 31 647 c 128,-1,17
 35 676 35 676 35 690 c 0,18,19
 35 729 35 729 14 754 c 1,0,1
EndSplineSet
EndChar

StartChar: period
Encoding: 46 46 17
Width: 405
GlyphClass: 2
Flags: W
LayerCount: 2
Fore
SplineSet
20 -16 m 2,0,1
 20 72 20 72 35 125 c 1,2,-1
 385 125 l 1,3,-1
 406 104 l 1,4,-1
 412 -197 l 1,5,6
 353 -226 353 -226 248 -225 c 0,7,8
 230 -225 230 -225 143 -223 c 0,9,10
 82 -221 82 -221 41 -223 c 1,11,-1
 20 -211 l 1,12,-1
 20 -16 l 2,0,1
EndSplineSet
EndChar

StartChar: slash
Encoding: 47 47 18
Width: 405
GlyphClass: 2
Flags: W
LayerCount: 2
Fore
SplineSet
20 670 m 1,0,-1
 20 864 l 2,1,2
 20 952 20 952 35 1006 c 1,3,-1
 385 1006 l 1,4,-1
 406 985 l 1,5,-1
 412 684 l 1,6,7
 353 655 353 655 248 655 c 0,8,9
 230 655 230 655 143 657 c 0,10,11
 82 659 82 659 41 657 c 1,12,-1
 20 670 l 1,0,-1
EndSplineSet
EndChar

StartChar: zero
Encoding: 48 48 19
Width: 1228
GlyphClass: 2
Flags: W
LayerCount: 2
Fore
SplineSet
29 188 m 0,0,1
 29 366 29 366 47 618 c 2,2,-1
 80 1051 l 2,3,4
 92 1207 92 1207 158 1325 c 0,5,6
 232 1462 232 1462 360 1520 c 0,7,8
 434 1553 434 1553 555 1559 c 1,9,10
 657 1559 657 1559 758 1559 c 2,11,-1
 776 1559 l 2,12,13
 887 1561 887 1561 977 1516 c 0,14,15
 1098 1457 1098 1457 1135 1360 c 0,16,17
 1141 1346 1141 1346 1159 1251 c 0,18,19
 1217 959 1217 959 1217 580 c 0,20,21
 1217 336 1217 336 1192 72 c 1,22,23
 1190 6 1190 6 1174 -117 c 1,24,25
 1147 -226 1147 -226 1018 -313.5 c 128,-1,26
 889 -401 889 -401 623 -401 c 0,27,28
 78 -401 78 -401 41 -82 c 0,29,30
 29 27 29 27 29 188 c 0,0,1
403 350 m 0,31,32
 403 221 403 221 496 172 c 1,33,34
 559 164 559 164 573 164 c 0,35,36
 628 164 628 164 666 203 c 1,37,38
 680 299 680 299 680 414 c 0,39,40
 680 510 680 510 664.5 700.5 c 128,-1,41
 649 891 649 891 649 987 c 0,42,43
 649 1030 649 1030 617.5 1056.5 c 128,-1,44
 586 1083 586 1083 541 1083 c 0,45,46
 498 1083 498 1083 467 1057 c 1,47,48
 426 983 426 983 420 846 c 0,49,50
 410 649 410 649 410 618 c 0,51,52
 410 608 410 608 413 582.5 c 128,-1,53
 416 557 416 557 416 543 c 0,54,55
 416 510 416 510 409.5 446.5 c 128,-1,56
 403 383 403 383 403 350 c 0,31,32
EndSplineSet
EndChar

StartChar: one
Encoding: 49 49 20
Width: 720
GlyphClass: 2
Flags: W
LayerCount: 2
Fore
SplineSet
0 1272 m 0,0,1
 0 1290 0 1290 4 1307 c 1,2,3
 121 1405 121 1405 231.5 1448 c 128,-1,4
 342 1491 342 1491 492 1491 c 0,5,6
 612 1491 612 1491 688 1442 c 1,7,8
 657 1211 657 1211 657 788 c 0,9,10
 657 475 657 475 647 -35 c 1,11,12
 579 -60 579 -60 465 -59 c 2,13,-1
 451 -59 l 1,14,-1
 242 -57 l 1,15,-1
 193 -10 l 1,16,-1
 266 1094 l 1,17,-1
 250 1106 l 1,18,19
 162 1038 162 1038 137 1038 c 0,20,21
 76 1038 76 1038 35 1128 c 0,22,23
 0 1202 0 1202 0 1272 c 0,0,1
EndSplineSet
EndChar

StartChar: two
Encoding: 50 50 21
Width: 1277
GlyphClass: 2
Flags: W
LayerCount: 2
Fore
SplineSet
53 993 m 2,0,1
 53 997 53 997 53 1004 c 0,2,3
 53 1285 53 1285 172 1423 c 0,4,5
 203 1462 203 1462 221 1473 c 0,6,7
 225 1475 225 1475 256 1485 c 0,8,9
 367 1522 367 1522 514 1522 c 0,10,11
 600 1522 600 1522 727 1509 c 2,12,-1
 879 1495 l 2,13,14
 899 1493 899 1493 938 1489 c 1,15,16
 1235 1419 1235 1419 1264 1225 c 0,17,18
 1290 1038 1290 1038 1290 932 c 0,19,20
 1290 680 1290 680 1161 571 c 0,21,22
 1114 532 1114 532 944 444 c 0,23,24
 788 364 788 364 725 319 c 0,25,26
 612 241 612 241 547 141 c 1,27,-1
 1241 131 l 1,28,29
 1251 -12 1251 -12 1251 -14 c 0,30,31
 1251 -92 1251 -92 1225 -137 c 1,32,33
 1094 -211 1094 -211 877 -211 c 0,34,35
 803 -211 803 -211 700 -201 c 2,36,-1
 164 -147 l 1,37,38
 115 -96 115 -96 115 -10 c 0,39,40
 115 21 115 21 125 100 c 0,41,42
 135 170 135 170 131 211 c 1,43,44
 172 311 172 311 293 401 c 0,45,46
 363 452 363 452 500 547 c 1,47,48
 570 582 570 582 705 657 c 1,49,50
 799 714 799 714 842 795 c 0,51,52
 856 820 856 820 858 827 c 0,53,54
 866 868 866 868 866 950 c 0,55,56
 866 1186 866 1186 641 1186 c 0,57,58
 588 1186 588 1186 547 1169 c 1,59,60
 512 1106 512 1106 512 995 c 0,61,62
 512 960 512 960 517 892.5 c 128,-1,63
 522 825 522 825 522 793 c 1,64,65
 442 770 442 770 293 770 c 0,66,67
 131 768 131 768 61 754 c 1,68,-1
 53 993 l 2,0,1
EndSplineSet
EndChar

StartChar: three
Encoding: 51 51 22
Width: 1277
GlyphClass: 2
Flags: W
LayerCount: 2
Fore
SplineSet
92 885 m 1,0,1
 102 1088 102 1088 125 1180 c 0,2,3
 168 1344 168 1344 283 1417 c 0,4,5
 312 1435 312 1435 319 1438 c 2,6,7
 319 1438 319 1438 444 1470 c 1,8,9
 507 1460 507 1460 610 1460 c 0,10,11
 868 1460 868 1460 932 1448 c 0,12,13
 1073 1421 1073 1421 1151 1327 c 0,14,15
 1161 1313 1161 1313 1180 1284 c 0,16,17
 1182 1278 1182 1278 1194 1241 c 0,18,19
 1235 1092 1235 1092 1235 936 c 0,20,21
 1235 870 1235 870 1229 797 c 0,22,23
 1225 777 1225 777 1221 735 c 0,24,25
 1221 733 1221 733 1221 729 c 0,26,27
 1223 725 1223 725 1223 723 c 0,28,29
 1223 670 1223 670 1121.5 613.5 c 128,-1,30
 1020 557 1020 557 1020 545 c 0,31,32
 1020 516 1020 516 1116 473 c 0,33,34
 1220 426 1220 426 1221 229 c 0,35,36
 1221 145 1221 145 1196 -2 c 0,37,38
 1167 -160 1167 -160 1138.5 -218 c 128,-1,39
 1110 -276 1110 -276 1067 -295 c 0,40,41
 1051 -301 1051 -301 983 -322 c 0,42,43
 764 -388 764 -388 555 -387 c 0,44,45
 442 -387 442 -387 384 -374.5 c 128,-1,46
 326 -362 326 -362 258 -303 c 0,47,48
 199 -250 199 -250 166 -193 c 0,49,50
 107 -87 107 -87 106 164 c 0,51,52
 106 199 106 199 109 233 c 1,53,-1
 438 256 l 1,54,55
 450 223 450 223 453.5 141 c 128,-1,56
 457 59 457 59 469 29 c 0,57,58
 489 -26 489 -26 550.5 -46 c 128,-1,59
 612 -66 612 -66 690 -66 c 0,60,61
 776 -66 776 -66 838 -39 c 1,62,63
 897 35 897 35 897 139 c 0,64,65
 897 387 897 387 664 387 c 0,66,67
 637 387 637 387 604 383 c 1,68,69
 563 416 563 416 563 475 c 0,70,71
 563 500 563 500 573.5 555 c 128,-1,72
 584 610 584 610 582 639 c 1,73,74
 705 664 705 664 788 799 c 1,75,76
 796 883 796 883 797 924 c 0,77,78
 797 1059 797 1059 748 1112 c 0,79,80
 719 1143 719 1143 666 1143 c 0,81,82
 641 1143 641 1143 589 1132.5 c 128,-1,83
 537 1122 537 1122 508 1124 c 1,84,85
 434 1067 434 1067 422 872 c 1,86,-1
 92 885 l 1,0,1
EndSplineSet
EndChar

StartChar: four
Encoding: 52 52 23
Width: 1245
GlyphClass: 2
Flags: W
LayerCount: 2
Fore
SplineSet
74 467 m 1,0,-1
 74 1464 l 1,1,-1
 98 1487 l 1,2,3
 182 1477 182 1477 266 1466 c 0,4,5
 368 1448 368 1448 424 1413 c 1,6,-1
 440 879 l 1,7,8
 483 861 483 861 559 862 c 0,9,10
 647 864 647 864 680 856 c 1,11,12
 703 944 703 944 725 1106 c 0,13,14
 752 1282 752 1282 768 1358 c 1,15,16
 844 1401 844 1401 981 1417 c 0,17,18
 1001 1419 1001 1419 1208 1430 c 1,19,-1
 1221 1391 l 1,20,-1
 1016 -371 l 1,21,-1
 543 -371 l 1,22,-1
 520 -348 l 1,23,24
 581 68 581 68 623 410 c 1,25,-1
 115 416 l 1,26,-1
 74 467 l 1,0,-1
EndSplineSet
EndChar

StartChar: five
Encoding: 53 53 24
Width: 1179
GlyphClass: 2
Flags: W
LayerCount: 2
Fore
SplineSet
47 156 m 1,0,1
 90 181 90 181 168 180 c 2,2,3
 168 180 168 180 309 180 c 1,4,5
 323 16 323 16 332 -8 c 0,6,7
 365 -102 365 -102 477 -102 c 0,8,9
 581 -102 581 -102 645 -39.5 c 128,-1,10
 709 23 709 23 709 127 c 0,11,12
 709 215 709 215 668 258 c 0,13,14
 615 313 615 313 401 332 c 0,15,16
 206 348 206 348 133 401 c 1,17,-1
 78 506 l 1,18,19
 74 598 74 598 72 844 c 2,20,-1
 70 1354 l 1,21,-1
 117 1393 l 1,22,-1
 1114 1393 l 1,23,-1
 1137 1366 l 1,24,25
 1127 1282 1127 1282 1118 1198 c 0,26,27
 1102 1094 1102 1094 1067 1040 c 1,28,-1
 532 1024 l 1,29,30
 507 926 507 926 508 811 c 0,31,32
 508 786 508 786 510 762 c 1,33,-1
 580 698 l 1,34,-1
 965 584 l 2,35,36
 996 574 996 574 1044 541 c 0,37,38
 1171 457 1171 457 1188 283 c 0,39,40
 1196 196 1196 196 1196 176 c 0,41,42
 1196 -29 1196 -29 1057 -150 c 0,43,44
 948 -246 948 -246 745 -303 c 0,45,46
 563 -356 563 -356 397 -356 c 0,47,48
 252 -356 252 -356 190 -309 c 0,49,50
 86 -227 86 -227 59 -94 c 0,51,52
 47 -31 47 -31 47 156 c 1,0,1
EndSplineSet
EndChar

StartChar: six
Encoding: 54 54 25
Width: 1441
GlyphClass: 2
Flags: W
LayerCount: 2
Fore
SplineSet
57 0 m 0,0,1
 57 25 57 25 57 100 c 0,2,3
 57 716 57 716 131 1286 c 0,4,5
 156 1468 156 1468 434 1550 c 0,6,7
 624 1607 624 1607 874 1608 c 0,8,9
 1067 1608 1067 1608 1161 1579 c 0,10,11
 1276 1544 1276 1544 1335 1444 c 0,12,13
 1345 1428 1345 1428 1360 1397 c 1,14,15
 1391 1300 1391 1300 1391 1073 c 0,16,17
 1391 960 1391 960 1374 870 c 1,18,-1
 1343 848 l 1,19,-1
 1331 848 l 2,20,21
 1294 850 1294 850 1223.5 840.5 c 128,-1,22
 1153 831 1153 831 1118 831 c 0,23,24
 1042 831 1042 831 991 862 c 1,25,26
 991 882 991 882 996 925.5 c 128,-1,27
 1001 969 1001 969 1001 991 c 0,28,29
 1001 1081 1001 1081 944 1112 c 0,30,31
 930 1118 930 1118 928 1118 c 0,32,33
 903 1118 903 1118 862 1118 c 0,34,35
 815 1116 815 1116 799 1116 c 0,36,37
 766 1118 766 1118 705 1116 c 0,38,39
 652 1112 652 1112 602 1085 c 0,40,41
 545 1054 545 1054 530 1008 c 0,42,43
 505 924 505 924 506 764 c 0,44,45
 506 709 506 709 512 662 c 1,46,-1
 526 662 l 2,47,48
 594 660 594 660 721 671 c 128,-1,49
 848 682 848 682 909 682 c 0,50,51
 1159 682 1159 682 1270 557 c 0,52,53
 1305 516 1305 516 1311 496 c 0,54,55
 1338 412 1338 412 1337 195 c 0,56,57
 1337 -411 1337 -411 774 -412 c 0,58,59
 524 -412 524 -412 274 -319 c 0,60,61
 178 -284 178 -284 118.5 -194 c 128,-1,62
 59 -104 59 -104 57 0 c 0,0,1
528 242 m 0,63,64
 528 236 528 236 553 80 c 0,65,66
 563 19 563 19 612 -18 c 0,67,68
 653 -47 653 -47 729 -55 c 0,69,70
 792 -61 792 -61 793 -61 c 0,71,72
 883 -61 883 -61 934 4 c 0,73,74
 981 64 981 64 981 158 c 0,75,76
 981 262 981 262 922 328 c 0,77,78
 914 336 914 336 895 352 c 0,79,80
 889 360 889 360 877 375 c 0,81,82
 828 424 828 424 750 424 c 0,83,84
 619 424 619 424 553 336 c 0,85,86
 528 303 528 303 528 242 c 0,63,64
EndSplineSet
EndChar

StartChar: seven
Encoding: 55 55 26
Width: 1572
GlyphClass: 2
Flags: W
LayerCount: 2
Fore
SplineSet
29 1262 m 0,0,1
 29 1285 29 1285 35 1300 c 1,2,3
 125 1325 125 1325 297 1364 c 1,4,-1
 1438 1575 l 2,5,6
 1461 1579 1461 1579 1458 1579 c 1,7,8
 1511 1579 1511 1579 1518 1511 c 2,9,-1
 1544 1198 l 1,10,-1
 825 -317 l 1,11,12
 729 -360 729 -360 586 -393 c 0,13,14
 461 -418 461 -418 338 -444 c 1,15,16
 414 -159 414 -159 623 272 c 0,17,18
 736 501 736 501 958 958 c 1,19,20
 804 935 804 935 598 883 c 1,21,22
 420 832 420 832 242 782 c 1,23,24
 168 891 168 891 106 1014 c 0,25,26
 28 1174 28 1174 29 1262 c 0,0,1
EndSplineSet
EndChar

StartChar: eight
Encoding: 56 56 27
Width: 1239
GlyphClass: 2
Flags: W
LayerCount: 2
Fore
SplineSet
2 240 m 0,0,1
 2 330 2 330 12 420 c 1,2,3
 35 465 35 465 141 530 c 0,4,5
 237 591 237 591 238 608 c 0,6,7
 238 633 238 633 115 682 c 0,8,9
 11 723 11 723 10 1040 c 0,10,11
 10 1159 10 1159 33 1266 c 0,12,13
 66 1409 66 1409 131 1456 c 0,14,15
 154 1472 154 1472 275.5 1505 c 128,-1,16
 397 1538 397 1538 518 1538 c 0,17,18
 598 1538 598 1538 717 1524 c 0,19,20
 815 1512 815 1512 913 1499 c 0,21,22
 940 1497 940 1497 993 1491 c 0,23,24
 1056 1481 1056 1481 1110.5 1431.5 c 128,-1,25
 1165 1382 1165 1382 1192 1321 c 0,26,27
 1241 1205 1241 1205 1241 1008 c 0,28,29
 1241 850 1241 850 1225 786 c 0,30,31
 1217 749 1217 749 1114.5 688 c 128,-1,32
 1012 627 1012 627 1012 604 c 0,33,34
 1012 569 1012 569 1122 522 c 0,35,36
 1202 489 1202 489 1202 262 c 0,37,38
 1202 135 1202 135 1180 -66 c 0,39,40
 1166 -203 1166 -203 1073 -242 c 0,41,42
 1065 -246 1065 -246 1012 -258 c 0,43,44
 799 -311 799 -311 528 -311 c 0,45,46
 254 -311 254 -311 164 -252 c 0,47,48
 2 -146 2 -146 2 240 c 0,0,1
340 997 m 0,49,50
 340 948 340 948 362 899 c 0,51,52
 366 893 366 893 416 809 c 0,53,54
 457 739 457 739 594 739 c 0,55,56
 703 739 703 739 760 803 c 0,57,58
 776 826 776 826 780 836 c 0,59,60
 797 889 797 889 797 995 c 0,61,62
 797 1099 797 1099 750 1157 c 0,63,64
 742 1165 742 1165 723 1184 c 0,65,66
 717 1192 717 1192 702 1208 c 0,67,68
 655 1257 655 1257 573 1257 c 0,69,70
 471 1257 471 1257 403 1194 c 0,71,72
 385 1178 385 1178 381 1171 c 0,73,74
 340 1099 340 1099 340 997 c 0,49,50
444 236 m 0,75,76
 444 105 444 105 492 45 c 0,77,78
 576 -59 576 -59 692 -59 c 0,79,80
 717 -59 717 -59 801 -27 c 0,81,82
 840 -11 840 -11 860 37 c 0,83,84
 897 121 897 121 897 180 c 0,85,86
 897 315 897 315 827 381 c 0,87,88
 821 385 821 385 795 403 c 0,89,90
 693 466 693 466 598 467 c 0,91,92
 563 467 563 467 519 437.5 c 128,-1,93
 475 408 475 408 459.5 371 c 128,-1,94
 444 334 444 334 444 236 c 0,75,76
EndSplineSet
EndChar

StartChar: nine
Encoding: 57 57 28
Width: 1357
GlyphClass: 2
Flags: W
LayerCount: 2
Fore
SplineSet
20 287 m 2,0,1
 20 320 20 320 68 344 c 1,2,-1
 84 344 l 2,3,4
 119 342 119 342 189.5 351 c 128,-1,5
 260 360 260 360 293 360 c 0,6,7
 369 360 369 360 420 328 c 1,8,9
 420 308 420 308 415 264.5 c 128,-1,10
 410 221 410 221 410 199 c 0,11,12
 410 86 410 86 483 72 c 0,13,14
 485 72 485 72 590 72 c 0,15,16
 705 72 705 72 739 78 c 0,17,18
 823 92 823 92 864 150 c 0,19,20
 878 173 878 173 883 184 c 0,21,22
 906 266 906 266 905 426 c 0,23,24
 905 479 905 479 899 526 c 1,25,-1
 885 526 l 2,26,27
 817 528 817 528 690 517 c 128,-1,28
 563 506 563 506 502 506 c 0,29,30
 248 506 248 506 137 637 c 0,31,32
 106 674 106 674 100 692 c 0,33,34
 86 735 86 735 86 895 c 0,35,36
 86 1088 86 1088 137 1313 c 0,37,38
 141 1338 141 1338 154 1380 c 0,39,40
 162 1398 162 1398 199 1440 c 0,41,42
 328 1583 328 1583 567 1583 c 0,43,44
 676 1583 676 1583 856 1552 c 2,45,-1
 1053 1520 l 2,46,47
 1084 1518 1084 1518 1139 1507 c 1,48,49
 1229 1480 1229 1480 1294 1382 c 0,50,51
 1308 1364 1308 1364 1309.5 1361 c 128,-1,52
 1311 1358 1311 1358 1350 1188 c 0,53,54
 1352 1184 1352 1184 1352 1057 c 0,55,56
 1352 539 1352 539 1280 -94 c 1,57,58
 1169 -297 1169 -297 920 -362 c 0,59,60
 773 -399 773 -399 455 -399 c 0,61,62
 297 -399 297 -399 274 -397 c 0,63,64
 188 -389 188 -389 113 -303 c 0,65,66
 29 -209 29 -209 27 -135 c 2,67,-1
 20 287 l 2,0,1
442 1028 m 0,68,69
 442 946 442 946 459 909 c 0,70,71
 463 899 463 899 485 868 c 0,72,73
 563 766 563 766 674 766 c 0,74,75
 762 766 762 766 834 827 c 0,76,77
 854 845 854 845 858 852 c 0,78,79
 881 885 881 885 881 965 c 0,80,81
 881 1065 881 1065 809 1204 c 1,82,83
 729 1245 729 1245 627 1245 c 0,84,85
 568 1245 568 1245 512 1229 c 1,86,87
 442 1155 442 1155 442 1028 c 0,68,69
EndSplineSet
EndChar

StartChar: colon
Encoding: 58 58 29
Width: 413
GlyphClass: 2
Flags: W
LayerCount: 2
Fore
SplineSet
6 18 m 1,0,-1
 6 213 l 2,1,2
 6 301 6 301 20 354 c 1,3,-1
 371 354 l 1,4,-1
 391 334 l 1,5,-1
 397 33 l 1,6,7
 338 4 338 4 233 4 c 0,8,9
 215 4 215 4 129 6 c 0,10,11
 68 8 68 8 27 6 c 1,12,-1
 6 18 l 1,0,-1
6 860 m 1,13,-1
 6 1055 l 2,14,15
 6 1143 6 1143 20 1196 c 1,16,-1
 371 1196 l 1,17,-1
 391 1176 l 1,18,-1
 397 874 l 1,19,20
 338 845 338 845 233 846 c 0,21,22
 215 846 215 846 129 848 c 0,23,24
 68 850 68 850 27 848 c 1,25,-1
 6 860 l 1,13,-1
EndSplineSet
EndChar

StartChar: semicolon
Encoding: 59 59 30
Width: 477
GlyphClass: 2
Flags: W
LayerCount: 2
Fore
SplineSet
-2 -336 m 1,0,1
 25 -225 25 -225 92 -72 c 0,2,3
 125 4 125 4 201 184 c 0,4,5
 215 219 215 219 244 219 c 0,6,7
 275 219 275 219 358 156 c 0,8,9
 416 111 416 111 471 66 c 1,10,11
 444 -38 444 -38 373 -162 c 0,12,13
 332 -236 332 -236 246 -377 c 0,14,15
 226 -408 226 -408 184 -408 c 0,16,17
 151 -408 151 -408 129 -393 c 0,18,19
 98 -373 98 -373 63 -365 c 0,20,21
 38 -357 38 -357 -2 -336 c 1,0,1
70 354 m 1,22,-1
 70 549 l 2,23,24
 70 637 70 637 84 690 c 1,25,-1
 434 690 l 1,26,-1
 455 670 l 1,27,-1
 461 369 l 1,28,29
 402 340 402 340 297 340 c 0,30,31
 279 340 279 340 193 342 c 0,32,33
 132 344 132 344 90 342 c 1,34,-1
 70 354 l 1,22,-1
EndSplineSet
EndChar

StartChar: less
Encoding: 60 60 31
Width: 571
GlyphClass: 2
Flags: W
LayerCount: 2
Fore
SplineSet
0 117 m 1,0,1
 0 633 0 633 55 1174 c 0,2,3
 57 1215 57 1215 68 1290 c 0,4,5
 70 1300 70 1300 84 1329 c 0,6,7
 143 1444 143 1444 279 1497 c 0,8,9
 355 1528 355 1528 578 1554 c 1,10,-1
 578 1337 l 2,11,12
 578 1208 578 1208 561 1128 c 1,13,14
 473 1124 473 1124 430 1034 c 1,15,16
 416 852 416 852 416 647 c 0,17,18
 416 500 416 500 424 360 c 0,19,20
 424 323 424 323 433 255.5 c 128,-1,21
 442 188 442 188 461 152 c 0,22,23
 488 95 488 95 535 72 c 1,24,-1
 547 -225 l 1,25,26
 408 -215 408 -215 406 -215 c 0,27,28
 322 -209 322 -209 264 -193 c 0,29,30
 129 -156 129 -156 59 -68 c 0,31,32
 39 -43 39 -43 37 -37 c 0,33,34
 31 -17 31 -17 0 117 c 1,0,1
EndSplineSet
EndChar

StartChar: equal
Encoding: 61 61 32
Width: 675
GlyphClass: 2
Flags: W
LayerCount: 2
Fore
SplineSet
10 662 m 1,0,1
 37 709 37 709 119 713 c 0,2,3
 260 721 260 721 477 721 c 0,4,5
 573 721 573 721 641 705 c 1,6,7
 649 680 649 680 649 647 c 0,8,9
 649 616 649 616 638 550.5 c 128,-1,10
 627 485 627 485 629 451 c 1,11,-1
 578 422 l 1,12,-1
 68 438 l 1,13,14
 23 458 23 458 23 512 c 0,15,16
 23 526 23 526 27 555 c 128,-1,17
 31 584 31 584 31 598 c 0,18,19
 31 637 31 637 10 662 c 1,0,1
14 1081 m 1,20,21
 41 1128 41 1128 123 1133 c 0,22,23
 264 1141 264 1141 481 1141 c 0,24,25
 577 1141 577 1141 645 1124 c 1,26,27
 653 1100 653 1100 653 1067 c 0,28,29
 653 1036 653 1036 642 970.5 c 128,-1,30
 631 905 631 905 633 870 c 1,31,-1
 582 842 l 1,32,-1
 72 858 l 1,33,34
 27 878 27 878 27 932 c 0,35,36
 27 946 27 946 31 975 c 128,-1,37
 35 1004 35 1004 35 1018 c 0,38,39
 35 1057 35 1057 14 1081 c 1,20,21
EndSplineSet
EndChar

StartChar: greater
Encoding: 62 62 33
Width: 841
GlyphClass: 2
Flags: W
LayerCount: 2
Fore
SplineSet
37 -281 m 0,0,1
 37 -209 37 -209 66 -96 c 1,2,3
 222 -53 222 -53 254 41 c 0,4,5
 256 45 256 45 264 94 c 0,6,7
 289 256 289 256 295 496 c 0,8,9
 299 697 299 697 303 897 c 0,10,11
 305 915 305 915 309 977 c 0,12,13
 313 1028 313 1028 313 1055 c 0,14,15
 313 1061 313 1061 301 1096 c 0,16,17
 268 1200 268 1200 188 1243 c 0,18,19
 161 1257 161 1257 133 1260 c 0,20,21
 113 1260 113 1260 72 1268 c 1,22,23
 68 1293 68 1293 68 1317 c 0,24,25
 68 1368 68 1368 87 1467.5 c 128,-1,26
 106 1567 106 1567 106 1616 c 1,27,-1
 123 1622 l 1,28,29
 254 1614 254 1614 309 1606 c 0,30,31
 415 1592 415 1592 492 1561 c 0,32,33
 594 1522 594 1522 659 1448 c 0,34,35
 684 1423 684 1423 689 1415 c 128,-1,36
 694 1407 694 1407 707 1360 c 0,37,38
 762 1172 762 1172 778 881 c 2,39,-1
 799 506 l 2,40,41
 809 316 809 316 809 326 c 1,42,43
 809 109 809 109 764 -49 c 0,44,45
 715 -219 715 -219 598 -299 c 0,46,47
 563 -324 563 -324 545 -330 c 0,48,49
 518 -334 518 -334 471 -342 c 0,50,51
 383 -362 383 -362 293 -381 c 0,52,53
 189 -404 189 -404 113 -403 c 0,54,55
 86 -403 86 -403 59 -401 c 1,56,57
 36 -350 36 -350 37 -281 c 0,0,1
EndSplineSet
EndChar

StartChar: question
Encoding: 63 63 34
Width: 1157
GlyphClass: 2
Flags: W
LayerCount: 2
Fore
SplineSet
16 1085 m 2,0,1
 16 1394 16 1394 170 1518 c 0,2,3
 244 1577 244 1577 387 1577 c 0,4,5
 469 1577 469 1577 606 1559 c 0,6,7
 768 1536 768 1536 825 1532 c 0,8,9
 929 1526 929 1526 1018.5 1460.5 c 128,-1,10
 1108 1395 1108 1395 1126 1292 c 0,11,12
 1149 1168 1149 1168 1149 1053 c 0,13,14
 1149 860 1149 860 1090 745 c 0,15,16
 1088 743 1088 743 1026 670 c 2,17,-1
 879 494 l 2,18,19
 750 340 750 340 700 227 c 1,20,21
 647 188 647 188 551 180 c 0,22,23
 518 176 518 176 391 176 c 2,24,-1
 336 176 l 1,25,26
 313 205 313 205 313 240 c 0,27,28
 313 287 313 287 373 381 c 0,29,30
 553 666 553 666 700 803 c 1,31,32
 755 1010 755 1010 756 1057 c 0,33,34
 756 1149 756 1149 702.5 1202 c 128,-1,35
 649 1255 649 1255 557 1255 c 0,36,37
 510 1255 510 1255 471 1241 c 1,38,39
 438 1180 438 1180 438 1055 c 0,40,41
 438 1026 438 1026 442 974 c 128,-1,42
 446 922 446 922 446 897 c 1,43,44
 368 874 368 874 238 872 c 0,45,46
 74 868 74 868 25 862 c 1,47,-1
 16 1087 l 1,48,-1
 16 1090 l 1,49,-1
 16 1087 l 1,50,-1
 16 1085 l 2,0,1
309 -66 m 2,51,52
 309 22 309 22 324 76 c 1,53,-1
 674 76 l 1,54,-1
 694 53 l 1,55,-1
 700 -246 l 1,56,57
 643 -277 643 -277 535 -276 c 0,58,59
 500 -276 500 -276 432 -276 c 0,60,61
 360 -274 360 -274 330 -274 c 1,62,-1
 309 -262 l 1,63,-1
 309 -66 l 2,51,52
EndSplineSet
EndChar

StartChar: at
Encoding: 64 64 35
Width: 1261
GlyphClass: 2
Flags: W
LayerCount: 2
Fore
SplineSet
20 453 m 0,0,1
 20 467 20 467 29 487 c 0,2,3
 211 927 211 927 268 1174 c 1,4,5
 284 1170 284 1170 309 1169 c 0,6,7
 325 1169 325 1169 359 1171.5 c 128,-1,8
 393 1174 393 1174 410 1174 c 0,9,10
 488 1174 488 1174 496 1112 c 0,11,12
 521 940 521 940 610 719 c 0,13,14
 663 590 663 590 684 526 c 0,15,16
 723 416 723 416 735 326 c 1,17,18
 706 306 706 306 670 305 c 0,19,20
 645 305 645 305 588.5 317.5 c 128,-1,21
 532 330 532 330 502 326 c 1,22,23
 482 355 482 355 467 449 c 0,24,25
 455 535 455 535 422 565 c 1,26,-1
 246 565 l 1,27,28
 236 553 236 553 213 449 c 0,29,30
 197 367 197 367 150 367 c 0,31,32
 127 367 127 367 94 383 c 1,33,34
 20 383 20 383 20 453 c 0,0,1
293 705 m 1,35,-1
 393 711 l 1,36,-1
 350 858 l 1,37,-1
 293 705 l 1,35,-1
590 909 m 1,38,-1
 590 1014 l 2,39,40
 590 1061 590 1061 604 1085 c 1,41,-1
 1251 1069 l 1,42,-1
 1251 940 l 1,43,44
 1237 936 1237 936 1217 936 c 0,45,46
 1194 936 1194 936 1147 941 c 128,-1,47
 1100 946 1100 946 1075 946 c 0,48,49
 1026 946 1026 946 997 918 c 1,50,-1
 1020 471 l 1,51,52
 932 461 932 461 920 461 c 0,53,54
 865 461 865 461 838 487 c 1,55,56
 838 518 838 518 840 598 c 0,57,58
 840 672 840 672 840 709 c 0,59,60
 840 828 840 828 815 909 c 1,61,-1
 590 909 l 1,38,-1
EndSplineSet
EndChar

StartChar: A
Encoding: 65 65 36
Width: 1687
GlyphClass: 2
Flags: W
LayerCount: 2
Fore
SplineSet
0 -119 m 1,0,1
 12 92 12 92 113 266 c 0,2,3
 121 276 121 276 133 299 c 0,4,5
 137 313 137 313 143 340 c 0,6,7
 161 403 161 403 201 492 c 0,8,9
 267 639 267 639 266 641 c 0,10,11
 299 725 299 725 369 940 c 0,12,13
 482 1292 482 1292 526 1565 c 1,14,15
 544 1596 544 1596 594 1638 c 1,16,-1
 1026 1628 l 1,17,18
 1094 1573 1094 1573 1122 1473 c 0,19,20
 1122 1469 1122 1469 1153 1288 c 0,21,22
 1210 940 1210 940 1389 551 c 0,23,24
 1462 387 1462 387 1673 -199 c 1,25,26
 1673 -236 1673 -236 1669 -306.5 c 128,-1,27
 1665 -377 1665 -377 1606 -391 c 1,28,29
 1448 -371 1448 -371 1122 -342 c 1,30,31
 1079 -303 1079 -303 1065 -225 c 2,32,-1
 1040 -94 l 2,33,34
 1036 -76 1036 -76 1026 -39 c 0,35,36
 1012 29 1012 29 997 96 c 0,37,38
 981 174 981 174 956 225 c 1,39,-1
 526 225 l 1,40,-1
 512 211 l 1,41,-1
 399 -205 l 2,42,43
 389 -244 389 -244 342 -244 c 0,44,45
 326 -244 326 -244 295 -233.5 c 128,-1,46
 264 -223 264 -223 252 -221 c 0,47,48
 180 -213 180 -213 109 -203 c 1,49,50
 27 -185 27 -185 0 -119 c 1,0,1
623 545 m 1,51,-1
 883 551 l 1,52,53
 801 799 801 799 766 924 c 1,54,55
 666 674 666 674 623 545 c 1,51,-1
EndSplineSet
EndChar

StartChar: B
Encoding: 66 66 37
Width: 1081
GlyphClass: 2
Flags: W
LayerCount: 2
Fore
SplineSet
51 1599 m 1,0,1
 57 1609 57 1609 104 1632 c 1,2,3
 192 1622 192 1622 311 1622 c 2,4,-1
 598 1624 l 1,5,6
 598 1624 598 1624 596 1624 c 1,7,8
 801 1618 801 1618 874 1585 c 0,9,10
 892 1577 892 1577 924 1546 c 0,11,12
 1039 1431 1039 1431 1040 1178 c 2,13,-1
 1040 1153 l 2,14,15
 1040 1144 1040 1144 1040 1135 c 0,16,17
 1040 926 1040 926 995 879 c 0,18,19
 985 869 985 869 915 827 c 0,20,21
 862 796 862 796 848 768 c 1,22,23
 954 719 954 719 981 633 c 0,24,25
 1004 559 1004 559 1004 403 c 0,26,27
 1004 276 1004 276 975 125 c 0,28,29
 973 107 973 107 965 76 c 0,30,31
 963 70 963 70 950 53 c 0,32,33
 903 -8 903 -8 807 -31 c 0,34,35
 782 -37 782 -37 635 -51 c 0,36,37
 576 -57 576 -57 578 -57 c 2,38,-1
 88 -51 l 1,39,-1
 72 -35 l 1,40,41
 88 184 88 184 88 451 c 0,42,43
 88 734 88 734 51 1599 c 1,0,1
354 946 m 1,44,45
 368 909 368 909 440 909 c 0,46,47
 485 909 485 909 492 909 c 0,48,49
 527 911 527 911 562.5 939 c 128,-1,50
 598 967 598 967 615.5 1001.5 c 128,-1,51
 633 1036 633 1036 633 1130 c 0,52,53
 633 1218 633 1218 614 1260 c 0,54,55
 598 1295 598 1295 559 1335 c 0,56,57
 514 1380 514 1380 481 1386 c 0,58,59
 465 1388 465 1388 430 1393 c 2,60,-1
 412 1395 l 1,61,62
 373 1395 373 1395 354 1372 c 1,63,-1
 354 946 l 1,44,45
489 489 m 0,64,65
 489 456 489 456 494.5 390 c 128,-1,66
 500 324 500 324 500 291 c 0,67,68
 500 264 500 264 498 240 c 1,69,70
 525 217 525 217 565 217 c 0,71,72
 610 217 610 217 682 246 c 1,73,74
 721 309 721 309 721 393 c 0,75,76
 721 471 721 471 705 516 c 0,77,78
 668 618 668 618 535 618 c 0,79,80
 525 618 525 618 512 618 c 1,81,82
 489 563 489 563 489 489 c 0,64,65
EndSplineSet
EndChar

StartChar: C
Encoding: 67 67 38
Width: 1261
GlyphClass: 2
Flags: W
LayerCount: 2
Fore
SplineSet
10 31 m 1,0,1
 10 678 10 678 47 1059 c 0,2,3
 51 1122 51 1122 70 1247 c 1,4,5
 97 1368 97 1368 211 1442 c 0,6,7
 287 1491 287 1491 428 1516 c 0,8,9
 485 1526 485 1526 586 1542 c 0,10,11
 662 1554 662 1554 664 1554 c 0,12,13
 699 1554 699 1554 760 1554 c 0,14,15
 830 1552 830 1552 858 1552 c 0,16,17
 876 1553 876 1553 904 1553 c 128,-1,18
 932 1553 932 1553 969 1552 c 0,19,20
 1147 1542 1147 1542 1206 1407 c 0,21,22
 1251 1307 1251 1307 1251 1098 c 0,23,24
 1251 1026 1251 1026 1243 891 c 1,25,-1
 1206 860 l 1,26,-1
 1192 860 l 2,27,28
 1185 860 1185 860 1177 860 c 0,29,30
 1144 860 1144 860 1094 854 c 0,31,32
 1030 846 1030 846 999 846 c 0,33,34
 925 846 925 846 879 877 c 1,35,-1
 879 887 l 2,36,37
 879 892 879 892 879 898 c 0,38,39
 879 918 879 918 884 952 c 0,40,41
 891 994 891 994 891 1016 c 0,42,43
 891 1124 891 1124 738 1124 c 0,44,45
 737 1124 737 1124 735 1124 c 0,46,47
 641 1124 641 1124 537 1100 c 0,48,49
 457 1082 457 1082 440 967 c 0,50,51
 426 867 426 867 426 786 c 0,52,53
 426 763 426 763 428 729 c 0,54,55
 430 682 430 682 430 670 c 0,56,57
 432 615 432 615 436 430 c 0,58,59
 442 170 442 170 484 92 c 128,-1,60
 526 14 526 14 662 14 c 0,61,62
 717 14 717 14 793 31 c 1,63,64
 852 90 852 90 870 219 c 1,65,66
 878 323 878 323 887 430 c 1,67,68
 942 438 942 438 997 438 c 0,69,70
 1101 438 1101 438 1192 408 c 1,71,72
 1186 289 1186 289 1165 51 c 0,73,74
 1147 -111 1147 -111 1051 -207 c 0,75,76
 1022 -236 1022 -236 1006 -246 c 0,77,78
 943 -285 943 -285 793 -285 c 0,79,80
 764 -285 764 -285 707.5 -283 c 128,-1,81
 651 -281 651 -281 625 -281 c 0,82,83
 613 -281 613 -281 588 -281 c 0,84,85
 565 -283 565 -283 553 -283 c 2,86,87
 553 -283 553 -283 442 -266 c 1,88,89
 383 -262 383 -262 279 -244 c 1,90,91
 148 -209 148 -209 76 -125 c 0,92,93
 56 -100 56 -100 53 -96 c 2,94,-1
 10 31 l 1,0,1
EndSplineSet
EndChar

StartChar: D
Encoding: 68 68 39
Width: 1245
GlyphClass: 2
Flags: W
LayerCount: 2
Fore
SplineSet
49 -164 m 1,0,1
 51 10 51 10 66 446 c 0,2,3
 80 835 80 835 80 1059 c 0,4,5
 80 1256 80 1256 72 1421 c 1,6,-1
 115 1450 l 1,7,8
 226 1454 226 1454 307 1454 c 0,9,10
 694 1454 694 1454 936 1339 c 0,11,12
 999 1308 999 1308 1030 1286 c 0,13,14
 1210 1153 1210 1153 1210 813 c 0,15,16
 1210 631 1210 631 1126 195 c 0,17,18
 1101 66 1101 66 1032 -29 c 0,19,20
 952 -133 952 -133 836 -164 c 0,21,22
 637 -215 637 -215 397 -215 c 0,23,24
 245 -215 245 -215 78 -193 c 1,25,-1
 49 -164 l 1,0,1
358 762 m 0,26,27
 358 674 358 674 360 496.5 c 128,-1,28
 362 319 362 319 362 231 c 1,29,30
 394 207 394 207 440 207 c 0,31,32
 442 207 442 207 444 207 c 0,33,34
 499 207 499 207 571 238.5 c 128,-1,35
 643 270 643 270 662 336 c 0,36,37
 672 371 672 371 672 475 c 0,38,39
 672 817 672 817 612 987 c 0,40,41
 585 1061 585 1061 510 1100 c 0,42,43
 498 1104 498 1104 473 1114 c 0,44,45
 436 1132 436 1132 416 1133 c 0,46,47
 379 1133 379 1133 375 1094 c 0,48,49
 359 938 359 938 358 762 c 0,26,27
EndSplineSet
EndChar

StartChar: E
Encoding: 69 69 40
Width: 1017
GlyphClass: 2
Flags: W
LayerCount: 2
Fore
SplineSet
8 170 m 1,0,1
 26 422 26 422 31 854 c 0,2,3
 37 1352 37 1352 45 1540 c 1,4,-1
 68 1556 l 1,5,6
 144 1552 144 1552 227 1552 c 0,7,8
 344 1552 344 1552 590 1565 c 0,9,10
 798 1577 798 1577 919 1577 c 0,11,12
 936 1577 936 1577 952 1577 c 2,13,-1
 995 1577 l 1,14,-1
 1012 1546 l 1,15,-1
 995 1206 l 1,16,17
 955 1176 955 1176 899 1176 c 0,18,19
 897 1176 897 1176 895 1176 c 0,20,21
 868 1176 868 1176 831 1184 c 0,22,23
 759 1200 759 1200 672 1200 c 0,24,25
 631 1200 631 1200 551 1198 c 128,-1,26
 471 1196 471 1196 430 1196 c 1,27,28
 408 1168 408 1168 408 1129 c 0,29,30
 408 1104 408 1104 416 1058 c 128,-1,31
 424 1012 424 1012 424 989 c 1,32,33
 483 952 483 952 580 952 c 1,34,35
 576 952 576 952 575 952 c 2,36,-1
 582 952 l 1,37,-1
 608 954 l 2,38,39
 674 958 674 958 725 961 c 2,40,-1
 750 961 l 2,41,42
 756 961 756 961 763 961 c 0,43,44
 817 961 817 961 862 946 c 1,45,-1
 848 639 l 1,46,-1
 334 633 l 1,47,48
 301 608 301 608 301 557 c 0,49,50
 301 541 301 541 306 509 c 128,-1,51
 311 477 311 477 311 463 c 1,52,-1
 342 440 l 1,53,-1
 719 442 l 2,54,55
 797 442 797 442 950 446 c 1,56,57
 973 403 973 403 977 317 c 1,58,59
 977 326 977 326 976 326 c 128,-1,60
 975 326 975 326 975 186 c 0,61,62
 975 157 975 157 922 127 c 1,63,64
 854 123 854 123 780 123 c 0,65,66
 653 123 653 123 400 136.5 c 128,-1,67
 147 150 147 150 20 150 c 1,68,-1
 8 170 l 1,0,1
EndSplineSet
EndChar

StartChar: F
Encoding: 70 70 41
Width: 1130
GlyphClass: 2
Flags: W
LayerCount: 2
Fore
SplineSet
33 1401 m 1,0,-1
 63 1434 l 1,1,-1
 1014 1454 l 1,2,3
 1077 1415 1077 1415 1077 1323 c 0,4,5
 1077 1300 1077 1300 1073 1255 c 128,-1,6
 1069 1210 1069 1210 1069 1188 c 0,7,8
 1069 1180 1069 1180 1071 1164.5 c 128,-1,9
 1073 1149 1073 1149 1073 1141 c 0,10,11
 1073 1098 1073 1098 1030 1098 c 2,12,13
 1030 1098 1030 1098 1032 1098 c 1,14,15
 1032 1099 1032 1099 895 1108 c 0,16,17
 717 1118 717 1118 590 1118 c 0,18,19
 477 1118 477 1118 389 1110 c 1,20,21
 350 1085 350 1085 350 1028 c 0,22,23
 350 1012 350 1012 355 980 c 128,-1,24
 360 948 360 948 360 934 c 1,25,-1
 397 903 l 1,26,-1
 934 903 l 1,27,-1
 954 881 l 1,28,29
 946 846 946 846 946 809 c 0,30,31
 946 776 946 776 954.5 713.5 c 128,-1,32
 963 651 963 651 963 618 c 0,33,34
 963 598 963 598 961 578 c 1,35,36
 936 545 936 545 893 545 c 0,37,38
 877 545 877 545 842 551 c 128,-1,39
 807 557 807 557 788 557 c 0,40,41
 778 557 778 557 757.5 553 c 128,-1,42
 737 549 737 549 727 549 c 0,43,44
 704 549 704 549 657 555 c 128,-1,45
 610 561 610 561 586 561 c 0,46,47
 533 561 533 561 494 530 c 1,48,49
 465 419 465 419 465 285 c 0,50,51
 465 262 465 262 468 217 c 128,-1,52
 471 172 471 172 471 149.5 c 128,-1,53
 471 127 471 127 477 84 c 128,-1,54
 483 41 483 41 483 18 c 0,55,56
 483 -56 483 -56 434 -86 c 1,57,-1
 90 -86 l 1,58,-1
 70 -63 l 1,59,60
 72 25 72 25 72 119 c 0,61,62
 72 639 72 639 33 1401 c 1,0,-1
EndSplineSet
EndChar

StartChar: G
Encoding: 71 71 42
Width: 1130
GlyphClass: 2
Flags: W
LayerCount: 2
Fore
SplineSet
0 477 m 0,0,1
 0 502 0 502 0 549 c 128,-1,2
 0 596 0 596 0 621 c 0,3,4
 0 1039 0 1039 25 1171 c 0,5,6
 41 1267 41 1267 100 1350 c 0,7,8
 166 1442 166 1442 238 1458 c 0,9,10
 263 1464 263 1464 428 1489 c 0,11,12
 595 1513 595 1513 654 1513 c 0,13,14
 657 1513 657 1513 659 1513 c 0,15,16
 794 1513 794 1513 893 1473 c 0,17,18
 922 1461 922 1461 924 1458 c 0,19,20
 963 1421 963 1421 1004 1378 c 0,21,22
 1008 1374 1008 1374 1022 1339 c 0,23,24
 1081 1205 1081 1205 1081 1006 c 0,25,26
 1081 961 1081 961 1077 911 c 1,27,28
 995 886 995 886 664 874 c 1,29,30
 644 892 644 892 631 989 c 0,31,32
 619 1071 619 1071 573 1081 c 0,33,34
 571 1081 571 1081 541 1081 c 0,35,36
 383 1081 383 1081 334 1051 c 0,37,38
 268 1010 268 1010 268 825 c 0,39,40
 268 813 268 813 268 788 c 0,41,42
 270 765 270 765 270 754 c 0,43,44
 270 711 270 711 263 627 c 128,-1,45
 256 543 256 543 256 500 c 0,46,47
 256 291 256 291 381 231 c 0,48,49
 428 209 428 209 502 209 c 0,50,51
 505 209 505 209 508 209 c 0,52,53
 610 209 610 209 657 248 c 0,54,55
 716 297 716 297 715 352 c 2,56,-1
 715 358 l 1,57,-1
 694 381 l 2,58,59
 696 381 696 381 520 381 c 0,60,61
 434 381 434 381 397 418 c 1,62,-1
 397 768 l 1,63,-1
 418 791 l 1,64,65
 615 775 615 775 983 754 c 1,66,-1
 1004 731 l 1,67,68
 1006 704 1006 704 1014 563 c 0,69,70
 1022 461 1022 461 1022 395 c 0,71,72
 1022 172 1022 172 924 72 c 0,73,74
 781 -75 781 -75 516 -76 c 0,75,76
 297 -76 297 -76 150 35 c 0,77,78
 56 105 56 105 23 236 c 0,79,80
 0 322 0 322 0 477 c 0,0,1
EndSplineSet
EndChar

StartChar: H
Encoding: 72 72 43
Width: 1130
GlyphClass: 2
Flags: W
LayerCount: 2
Fore
SplineSet
39 -41 m 1,0,1
 66 244 66 244 66 578 c 0,2,3
 66 848 66 848 47 1198 c 1,4,5
 98 1225 98 1225 176 1225 c 0,6,7
 239 1225 239 1225 309 1208 c 1,8,9
 323 1169 323 1169 324 1034 c 0,10,11
 324 950 324 950 336 911 c 1,12,13
 455 895 455 895 549 895 c 0,14,15
 606 895 606 895 655 901 c 1,16,17
 680 932 680 932 680 1081 c 0,18,19
 680 1140 680 1140 680 1139 c 1,20,21
 666 1219 666 1219 662.5 1262 c 128,-1,22
 659 1305 659 1305 649 1384 c 1,23,-1
 680 1409 l 1,24,25
 784 1401 784 1401 864 1401 c 0,26,27
 968 1401 968 1401 1028 1415 c 1,28,-1
 1059 1372 l 1,29,30
 1045 1110 1045 1110 1044 823 c 0,31,32
 1044 481 1044 481 1067 23 c 0,33,34
 1073 -82 1073 -82 1073 -78 c 1,35,36
 1073 -88 1073 -88 1052.5 -101.5 c 128,-1,37
 1032 -115 1032 -115 1022 -115 c 0,38,39
 766 -115 766 -115 680 -88 c 1,40,41
 686 -10 686 -10 686 80 c 0,42,43
 686 213 686 213 666 471 c 1,44,45
 625 500 625 500 563 500 c 0,46,47
 536 500 536 500 486 493.5 c 128,-1,48
 436 487 436 487 410 487 c 0,49,50
 387 487 387 487 367 492 c 1,51,52
 344 449 344 449 344 383 c 0,53,54
 344 365 344 365 348 313 c 0,55,56
 356 219 356 219 373 -55 c 1,57,-1
 358 -72 l 1,58,59
 319 -74 319 -74 285 -74 c 0,60,61
 119 -74 119 -74 39 -41 c 1,0,1
EndSplineSet
EndChar

StartChar: I
Encoding: 73 73 44
Width: 557
GlyphClass: 2
Flags: W
LayerCount: 2
Fore
SplineSet
41 135 m 0,0,1
 41 162 41 162 49 218 c 128,-1,2
 57 274 57 274 57 305 c 0,3,4
 57 325 57 325 66 453 c 0,5,6
 102 1071 102 1071 102 1188 c 0,7,8
 102 1191 102 1191 102 1194 c 0,9,10
 102 1323 102 1323 94 1436 c 1,11,12
 104 1452 104 1452 170 1473 c 1,13,14
 188 1469 188 1469 231 1468 c 0,15,16
 254 1468 254 1468 301 1470.5 c 128,-1,17
 348 1473 348 1473 373 1473 c 0,18,19
 457 1473 457 1473 504 1442 c 1,20,21
 473 1206 473 1206 473 840 c 2,22,-1
 471 346 l 2,23,24
 471 322 471 322 471 293 c 0,25,26
 471 205 471 205 467 66 c 1,27,-1
 444 53 l 1,28,-1
 86 45 l 1,29,30
 41 74 41 74 41 135 c 0,0,1
EndSplineSet
EndChar

StartChar: J
Encoding: 74 74 45
Width: 1064
GlyphClass: 2
Flags: W
LayerCount: 2
Fore
SplineSet
16 348 m 0,0,1
 16 383 16 383 23 537 c 1,2,3
 19 537 19 537 18 537 c 2,4,-1
 20 537 l 1,5,-1
 27 539 l 1,6,-1
 59 539 l 2,7,8
 88 539 88 539 211 539 c 0,9,10
 328 539 328 539 385 506 c 1,11,-1
 385 494 l 2,12,13
 386 486 386 486 386 475 c 0,14,15
 386 449 386 449 382 410 c 0,16,17
 377 354 377 354 377 330 c 0,18,19
 377 234 377 234 422 186 c 1,20,21
 449 178 449 178 477 178 c 0,22,23
 590 178 590 178 629 266 c 0,24,25
 653 319 653 319 653 441 c 0,26,27
 653 446 653 446 653 451 c 0,28,29
 653 504 653 504 646 607.5 c 128,-1,30
 639 711 639 711 639 760 c 0,31,32
 637 946 637 946 625 1362 c 1,33,34
 652 1393 652 1393 715 1393 c 0,35,36
 719 1393 719 1393 723 1393 c 0,37,38
 741 1393 741 1393 755 1393 c 0,39,40
 815 1393 815 1393 831 1399 c 1,41,42
 843 1397 843 1397 858 1397 c 0,43,44
 870 1397 870 1397 896 1399 c 128,-1,45
 922 1401 922 1401 934 1401 c 0,46,47
 1000 1401 1000 1401 1012 1362 c 0,48,49
 1012 1360 1012 1360 1018 1313 c 0,50,51
 1038 1149 1038 1149 1038 956 c 0,52,53
 1038 647 1038 647 983 199 c 2,54,-1
 975 135 l 2,55,56
 975 131 975 131 961 104 c 0,57,58
 918 26 918 26 834 -14 c 0,59,60
 762 -51 762 -51 631 -66 c 0,61,62
 568 -74 568 -74 483 -82 c 0,63,64
 417 -88 417 -88 416 -88 c 0,65,66
 185 -88 185 -88 125 -31 c 0,67,68
 16 73 16 73 16 348 c 0,0,1
EndSplineSet
EndChar

StartChar: K
Encoding: 75 75 46
Width: 1130
GlyphClass: 2
Flags: W
LayerCount: 2
Fore
SplineSet
51 1425 m 1,0,-1
 68 1440 l 1,1,-1
 475 1432 l 1,2,-1
 504 1393 l 1,3,4
 504 1289 504 1289 496.5 1078.5 c 128,-1,5
 489 868 489 868 489 764 c 0,6,7
 489 713 489 713 492 672 c 1,8,9
 555 807 555 807 764 1366 c 0,10,11
 787 1425 787 1425 887 1425 c 0,12,13
 910 1425 910 1425 955.5 1420 c 128,-1,14
 1001 1415 1001 1415 1024 1415 c 1,15,16
 1047 1403 1047 1403 1071.5 1388 c 128,-1,17
 1096 1373 1096 1373 1096 1350 c 0,18,19
 1096 1348 1096 1348 795 516 c 1,20,21
 842 366 842 366 938 98 c 0,22,23
 1044 -191 1044 -191 1085 -317 c 1,24,25
 1085 -352 1085 -352 1040 -358 c 0,26,27
 977 -368 977 -368 965 -369 c 2,28,-1
 858 -369 l 2,29,30
 795 -369 795 -369 764 -344 c 1,31,32
 715 -211 715 -211 608 55 c 1,33,34
 577 2 577 2 541 -141 c 0,35,36
 506 -270 506 -270 461 -332 c 1,37,-1
 119 -332 l 1,38,-1
 82 -295 l 1,39,40
 96 70 96 70 96 387 c 0,41,42
 96 948 96 948 51 1425 c 1,0,-1
EndSplineSet
EndChar

StartChar: L
Encoding: 76 76 47
Width: 1048
GlyphClass: 2
Flags: W
LayerCount: 2
Fore
SplineSet
20 1532 m 1,0,-1
 59 1561 l 1,1,-1
 430 1561 l 2,2,3
 475 1561 475 1561 475 1503 c 0,4,5
 475 1480 475 1480 467 1464 c 1,6,7
 440 1036 440 1036 436 1001 c 0,8,9
 418 739 418 739 393 541 c 1,10,11
 401 527 401 527 401 502 c 0,12,13
 401 492 401 492 398 471.5 c 128,-1,14
 395 451 395 451 395 440 c 0,15,16
 395 403 395 403 418 385 c 1,17,18
 486 379 486 379 569 379 c 0,19,20
 628 379 628 379 748 383 c 128,-1,21
 868 387 868 387 928 387 c 0,22,23
 981 387 981 387 1020 385 c 1,24,-1
 1020 119 l 1,25,-1
 997 94 l 1,26,-1
 961 94 l 2,27,28
 955 94 955 94 948 94 c 0,29,30
 738 94 738 94 47 156 c 1,31,-1
 31 178 l 1,32,33
 47 571 47 571 47 858 c 0,34,35
 47 1233 47 1233 20 1532 c 1,0,-1
EndSplineSet
EndChar

StartChar: M
Encoding: 77 77 48
Width: 2015
GlyphClass: 2
Flags: W
LayerCount: 2
Fore
SplineSet
-6 -248 m 2,0,1
 -6 -205 -6 -205 -2 -125 c 2,2,-1
 0 -94 l 2,3,4
 -2 -90 -2 -90 0 -84 c 1,5,6
 2 -86 2 -86 0 -86 c 0,7,8
 -2 -27 -2 -27 -2 41 c 0,9,10
 -2 272 -2 272 23 797 c 0,11,12
 42 1197 42 1197 42 1448 c 0,13,14
 42 1503 42 1503 41 1550 c 1,15,-1
 66 1575 l 1,16,-1
 451 1575 l 1,17,18
 492 1536 492 1536 518 1458 c 0,19,20
 530 1413 530 1413 559 1325 c 1,21,22
 582 1270 582 1270 623 1159 c 0,23,24
 674 1022 674 1022 758 786 c 0,25,26
 879 444 879 444 977 258 c 1,27,28
 985 272 985 272 1028 377 c 0,29,30
 1048 420 1048 420 1083 508 c 0,31,32
 1085 516 1085 516 1112 606 c 0,33,34
 1245 1061 1245 1061 1333 1509 c 1,35,36
 1362 1525 1362 1525 1407 1526 c 0,37,38
 1452 1526 1452 1526 1497 1514.5 c 128,-1,39
 1542 1503 1542 1503 1614 1497 c 0,40,41
 1694 1491 1694 1491 1720 1450 c 1,42,43
 1772 540 1772 540 1942 -375 c 1,44,-1
 1929 -393 l 1,45,-1
 1870 -393 l 2,46,47
 1856 -393 1856 -393 1843 -393 c 0,48,49
 1666 -393 1666 -393 1511 -369 c 1,50,51
 1487 -331 1487 -331 1487 -271 c 0,52,53
 1487 -209 1487 -209 1477 -100 c 0,54,55
 1467 62 1467 62 1454 223 c 0,56,57
 1442 416 1442 416 1411 543 c 1,58,59
 1358 410 1358 410 1319 225 c 0,60,61
 1307 166 1307 166 1262 -100 c 0,62,63
 1258 -143 1258 -143 1243 -209 c 1,64,65
 1223 -264 1223 -264 1104 -276 c 1,66,67
 1020 -280 1020 -280 934 -285 c 1,68,69
 868 -293 868 -293 864 -293 c 0,70,71
 768 -293 768 -293 750 -219 c 0,72,73
 738 -162 738 -162 709 -47 c 0,74,75
 639 207 639 207 500 524 c 1,76,77
 486 420 486 420 485 295 c 0,78,79
 485 195 485 195 497.5 -6 c 128,-1,80
 510 -207 510 -207 510 -307 c 0,81,82
 510 -397 510 -397 469 -410 c 1,83,84
 432 -406 432 -406 391 -406 c 0,85,86
 346 -406 346 -406 257 -412 c 128,-1,87
 168 -418 168 -418 123 -418 c 0,88,89
 62 -418 62 -418 10 -410 c 1,90,91
 -6 -357 -6 -357 -6 -288 c 0,92,93
 -6 -280 -6 -280 -6 -272 c 2,94,-1
 -6 -248 l 2,0,1
EndSplineSet
EndChar

StartChar: N
Encoding: 78 78 49
Width: 1294
GlyphClass: 2
Flags: W
LayerCount: 2
Fore
SplineSet
18 -186 m 1,0,1
 53 344 53 344 53 915 c 0,2,3
 53 1163 53 1163 47 1413 c 1,4,5
 82 1450 82 1450 156 1450 c 0,6,7
 170 1450 170 1450 195.5 1448 c 128,-1,8
 221 1446 221 1446 236 1446 c 0,9,10
 267 1446 267 1446 329 1459.5 c 128,-1,11
 391 1473 391 1473 422 1473 c 0,12,13
 449 1473 449 1473 471 1464 c 1,14,15
 516 1396 516 1396 549 1276 c 0,16,17
 600 1092 600 1092 604 1079 c 0,18,19
 641 973 641 973 680 864 c 0,20,21
 725 741 725 741 770 655 c 1,22,23
 780 770 780 770 780 913 c 0,24,25
 780 1017 780 1017 772 1225.5 c 128,-1,26
 764 1434 764 1434 764 1538 c 0,27,28
 764 1561 764 1561 797 1575 c 0,29,30
 807 1577 807 1577 829 1583 c 0,31,32
 845 1589 845 1589 846 1589 c 2,33,-1
 1257 1589 l 1,34,35
 1274 1560 1274 1560 1274 1513 c 0,36,37
 1274 1501 1274 1501 1264 1430 c 0,38,39
 1252 1348 1252 1348 1239 1108 c 0,40,41
 1221 795 1221 795 1221 408 c 0,42,43
 1221 369 1221 369 1229 -371 c 1,44,-1
 1188 -406 l 1,45,-1
 811 -393 l 1,46,-1
 780 -362 l 1,47,48
 688 -28 688 -28 412 655 c 1,49,50
 412 630 412 630 412 604 c 0,51,52
 412 448 412 448 432 233 c 0,53,54
 448 94 448 94 471 -178 c 1,55,56
 399 -223 399 -223 268 -223 c 0,57,58
 231 -223 231 -223 156.5 -218 c 128,-1,59
 82 -213 82 -213 47 -213 c 1,60,-1
 18 -186 l 1,0,1
EndSplineSet
EndChar

StartChar: O
Encoding: 79 79 50
Width: 1114
GlyphClass: 2
Flags: W
LayerCount: 2
Fore
SplineSet
-4 440 m 0,0,1
 -4 481 -4 481 -2 565 c 128,-1,2
 0 649 0 649 0 690 c 0,3,4
 0 733 0 733 -2 821 c 128,-1,5
 -4 909 -4 909 -4 952 c 0,6,7
 -4 1198 -4 1198 53 1343 c 0,8,9
 67 1376 67 1376 73.5 1384.5 c 128,-1,10
 80 1393 80 1393 111 1415 c 0,11,12
 228 1501 228 1501 408 1501 c 0,13,14
 560 1501 560 1501 729 1456 c 0,15,16
 930 1403 930 1403 1014 1317 c 0,17,18
 1075 1256 1075 1256 1081 1098 c 0,19,20
 1085 1018 1085 1018 1092 858 c 0,21,22
 1094 792 1094 792 1104 600 c 0,23,24
 1114 440 1114 440 1114 344 c 0,25,26
 1114 104 1114 104 1044 -23 c 0,27,28
 1024 -60 1024 -60 1014 -70 c 128,-1,29
 1004 -80 1004 -80 958 -104 c 0,30,31
 786 -200 786 -200 535 -201 c 0,32,33
 283 -201 283 -201 177.5 -115 c 128,-1,34
 72 -29 72 -29 27 137 c 0,35,36
 -4 250 -4 250 -4 440 c 0,0,1
479 1032 m 1,37,38
 489 569 489 569 489 565 c 0,39,40
 489 534 489 534 486 474 c 128,-1,41
 483 414 483 414 483 383 c 0,42,43
 483 244 483 244 547 182 c 0,44,45
 563 166 563 166 573 162 c 0,46,47
 593 154 593 154 629 154 c 0,48,49
 692 154 692 154 723 197 c 1,50,51
 731 401 731 401 731 571 c 0,52,53
 731 776 731 776 719 932 c 0,54,55
 719 952 719 952 715 989 c 0,56,57
 713 997 713 997 700 1018 c 0,58,59
 649 1098 649 1098 539 1098 c 1,60,61
 494 1061 494 1061 479 1032 c 1,37,38
EndSplineSet
EndChar

StartChar: P
Encoding: 80 80 51
Width: 1228
GlyphClass: 2
Flags: W
LayerCount: 2
Fore
SplineSet
18 1421 m 1,0,1
 51 1448 51 1448 147 1448 c 0,2,3
 219 1448 219 1448 244 1456 c 1,4,5
 590 1448 590 1448 610 1448 c 0,6,7
 833 1432 833 1432 963 1368 c 0,8,9
 1104 1298 1104 1298 1178 1159 c 0,10,11
 1188 1141 1188 1141 1202 1106 c 1,12,13
 1219 1042 1219 1042 1219 911 c 0,14,15
 1219 653 1219 653 1061 563 c 0,16,17
 1000 528 1000 528 795 467 c 0,18,19
 703 440 703 440 524 373 c 1,20,-1
 502 338 l 1,21,22
 506 207 506 207 510 78 c 0,23,24
 518 -78 518 -78 543 -180 c 1,25,-1
 543 -188 l 2,26,27
 541 -202 541 -202 547 -228 c 128,-1,28
 553 -254 553 -254 553 -266 c 0,29,30
 553 -289 553 -289 537 -305 c 1,31,32
 482 -313 482 -313 412 -313 c 0,33,34
 371 -313 371 -313 240 -307 c 0,35,36
 175 -303 175 -303 125 -303 c 0,37,38
 92 -303 92 -303 66 -305 c 1,39,-1
 43 -281 l 1,40,-1
 45 592 l 2,41,42
 45 1084 45 1084 18 1421 c 1,0,1
369 831 m 1,43,-1
 393 803 l 1,44,45
 418 801 418 801 442 801 c 0,46,47
 563 801 563 801 662 862 c 1,48,49
 702 915 702 915 702 999 c 0,50,51
 702 1056 702 1056 691 1084 c 128,-1,52
 680 1112 680 1112 635 1157 c 128,-1,53
 590 1202 590 1202 561 1205 c 128,-1,54
 532 1208 532 1208 479 1212 c 2,55,-1
 461 1214 l 1,56,-1
 457 1214 l 1,57,58
 457 1214 457 1214 459 1214 c 1,59,60
 400 1214 400 1214 369 1188 c 1,61,-1
 369 831 l 1,43,-1
EndSplineSet
EndChar

StartChar: Q
Encoding: 81 81 52
Width: 1605
GlyphClass: 2
Flags: W
LayerCount: 2
Fore
SplineSet
-6 244 m 0,0,1
 -6 394 -6 394 10 737 c 0,2,3
 18 905 18 905 37 1243 c 0,4,5
 45 1356 45 1356 160 1415 c 0,6,7
 187 1429 187 1429 399 1487 c 0,8,9
 661 1559 661 1559 813 1559 c 0,10,11
 1034 1559 1034 1559 1155 1432 c 0,12,13
 1190 1395 1190 1395 1204 1368 c 0,14,15
 1214 1350 1214 1350 1233 1290 c 0,16,17
 1282 1132 1282 1132 1282 922 c 0,18,19
 1282 818 1282 818 1262 553 c 0,20,21
 1248 369 1248 369 1247 193 c 0,22,23
 1247 187 1247 187 1244 172.5 c 128,-1,24
 1241 158 1241 158 1241 152 c 0,25,26
 1241 -20 1241 -20 1223 -57 c 1,27,28
 1264 -75 1264 -75 1311 -76 c 0,29,30
 1358 -76 1358 -76 1432 -53 c 0,31,32
 1557 -14 1557 -14 1561 -14 c 0,33,34
 1588 -14 1588 -14 1608 -43 c 1,35,36
 1598 -180 1598 -180 1581 -461 c 1,37,-1
 1556 -485 l 1,38,39
 1384 -501 1384 -501 1272 -502 c 0,40,41
 914 -502 914 -502 721 -348 c 1,42,43
 655 -334 655 -334 471 -326 c 0,44,45
 303 -320 303 -320 221 -291 c 0,46,47
 112 -254 112 -254 53 -164 c 0,48,49
 39 -137 39 -137 38 -135 c 128,-1,50
 37 -133 37 -133 -4 82 c 0,51,52
 -6 92 -6 92 -6 244 c 0,0,1
428 547 m 0,53,54
 428 496 428 496 430 390.5 c 128,-1,55
 432 285 432 285 432 231 c 0,56,57
 432 184 432 184 430 152 c 1,58,59
 450 115 450 115 500 98 c 0,60,61
 510 96 510 96 590 82 c 1,62,63
 590 88 590 88 590 92 c 0,64,65
 590 121 590 121 569.5 171 c 128,-1,66
 549 221 549 221 549 248 c 0,67,68
 549 301 549 301 621 356 c 0,69,70
 686 408 686 408 745 416 c 1,71,72
 745 566 745 566 715 756 c 0,73,74
 709 801 709 801 690 891 c 1,75,76
 667 969 667 969 551 969 c 0,77,78
 506 969 506 969 465 950 c 1,79,80
 428 798 428 798 428 547 c 0,53,54
EndSplineSet
EndChar

StartChar: R
Encoding: 82 82 53
Width: 1310
GlyphClass: 2
Flags: W
LayerCount: 2
Fore
SplineSet
14 1403 m 1,0,-1
 45 1438 l 1,1,-1
 137 1438 l 2,2,3
 162 1438 162 1438 186 1438 c 0,4,5
 613 1438 613 1438 891 1372 c 0,6,7
 926 1364 926 1364 991 1343 c 0,8,9
 1100 1302 1100 1302 1169 1176 c 0,10,11
 1235 1059 1235 1059 1235 934 c 0,12,13
 1235 715 1235 715 1047 604 c 1,14,15
 1027 598 1027 598 990.5 583.5 c 128,-1,16
 954 569 954 569 956 543 c 2,17,-1
 956 535 l 1,18,19
 1069 469 1069 469 1108 324 c 0,20,21
 1108 322 1108 322 1118 236 c 2,22,-1
 1141 57 l 2,23,24
 1164 -119 1164 -119 1229 -180.5 c 128,-1,25
 1294 -242 1294 -242 1294 -285 c 0,26,27
 1294 -297 1294 -297 1290 -307 c 1,28,29
 1208 -354 1208 -354 1090 -354 c 0,30,31
 1010 -354 1010 -354 891 -332 c 1,32,33
 832 -252 832 -252 805 -74 c 0,34,35
 774 129 774 129 745 193 c 0,36,37
 686 322 686 322 532 352 c 1,38,-1
 504 326 l 1,39,-1
 504 260 l 2,40,41
 504 244 504 244 504 229 c 0,42,43
 504 -7 504 -7 532 -272 c 1,44,-1
 516 -301 l 1,45,-1
 45 -313 l 1,46,-1
 23 -291 l 1,47,48
 46 8 46 8 47 383 c 1,49,50
 47 358 47 358 47 309 c 2,51,-1
 45 1063 l 2,52,53
 45 1120 45 1120 29.5 1233 c 128,-1,54
 14 1346 14 1346 14 1403 c 1,0,-1
379 760 m 1,55,-1
 408 735 l 1,56,57
 553 745 553 745 596 762 c 0,58,59
 690 796 690 796 690 909 c 0,60,61
 690 1007 690 1007 657 1044 c 0,62,63
 632 1073 632 1073 582 1128 c 1,64,65
 562 1132 562 1132 511.5 1156 c 128,-1,66
 461 1180 461 1180 430 1180 c 0,67,68
 407 1180 407 1180 389 1169 c 1,69,-1
 379 760 l 1,55,-1
EndSplineSet
EndChar

StartChar: S
Encoding: 83 83 54
Width: 1376
GlyphClass: 2
Flags: W
LayerCount: 2
Fore
SplineSet
27 250 m 1,0,1
 97 260 97 260 182 260 c 0,2,3
 334 260 334 260 535 227 c 1,4,5
 549 207 549 207 557 129 c 0,6,7
 565 68 565 68 604 43 c 0,8,9
 661 8 661 8 733 8 c 0,10,11
 811 8 811 8 862 59 c 1,12,13
 856 186 856 186 760 279 c 0,14,15
 701 334 701 334 553 412 c 0,16,17
 459 461 459 461 406 496 c 0,18,19
 383 514 383 514 344 543 c 1,20,21
 317 555 317 555 264 584 c 1,22,23
 155 654 155 654 104 770 c 0,24,25
 88 805 88 805 86 817 c 0,26,27
 86 819 86 819 80 895 c 0,28,29
 68 1040 68 1040 68 1092 c 0,30,31
 68 1405 68 1405 244 1511 c 0,32,33
 344 1572 344 1572 553 1593 c 0,34,35
 817 1620 817 1620 907 1620 c 0,36,37
 1179 1620 1179 1620 1280 1468 c 0,38,39
 1364 1341 1364 1341 1364 958 c 0,40,41
 1364 882 1364 882 1356 817 c 1,42,43
 1233 817 1233 817 1110 819 c 0,44,45
 967 823 967 823 868 852 c 1,46,-1
 874 993 l 2,47,48
 874 1016 874 1016 879 1061 c 1,49,50
 879 1176 879 1176 854 1235 c 0,51,52
 831 1288 831 1288 772 1288 c 0,53,54
 706 1288 706 1288 645 1245 c 1,55,56
 559 1229 559 1229 528 1137 c 0,57,58
 520 1112 520 1112 520 1053 c 0,59,60
 520 922 520 922 588 868 c 0,61,62
 592 866 592 866 702 803 c 0,63,64
 915 682 915 682 999 629 c 0,65,66
 1159 527 1159 527 1270 420 c 0,67,68
 1286 406 1286 406 1313 377 c 1,69,70
 1386 278 1386 278 1386 90 c 0,71,72
 1386 -119 1386 -119 1296 -225 c 0,73,74
 1280 -243 1280 -243 1239 -274 c 0,75,76
 1083 -389 1083 -389 834 -389 c 0,77,78
 627 -389 627 -389 319 -309 c 0,79,80
 126 -258 126 -258 76 -82 c 0,81,82
 33 68 33 68 27 250 c 1,0,1
EndSplineSet
EndChar

StartChar: T
Encoding: 84 84 55
Width: 1785
GlyphClass: 2
Flags: W
LayerCount: 2
Fore
SplineSet
10 1163 m 1,0,1
 18 1222 18 1222 18 1380 c 0,2,3
 18 1517 18 1517 35 1597 c 1,4,5
 76 1613 76 1613 129 1614 c 0,6,7
 164 1614 164 1614 225 1604 c 0,8,9
 297 1590 297 1590 319 1587 c 1,10,11
 317 1587 317 1587 393 1587 c 2,12,-1
 573 1589 l 2,13,14
 708 1589 708 1589 982.5 1586 c 128,-1,15
 1257 1583 1257 1583 1393 1583 c 0,16,17
 1592 1583 1592 1583 1720 1587 c 1,18,-1
 1763 1563 l 1,19,-1
 1763 1235 l 1,20,-1
 1729 1204 l 1,21,-1
 1126 1229 l 1,22,-1
 1096 1194 l 1,23,24
 1096 1165 1096 1165 1106 586 c 0,25,26
 1112 230 1112 230 1137 -16 c 1,27,28
 1090 -30 1090 -30 1030 -31 c 0,29,30
 997 -31 997 -31 932.5 -24.5 c 128,-1,31
 868 -18 868 -18 836 -18 c 0,32,33
 803 -18 803 -18 778 -23 c 1,34,35
 768 -15 768 -15 715 -14 c 0,36,37
 674 -14 674 -14 662 12 c 1,38,39
 666 94 666 94 666 186 c 0,40,41
 666 329 666 329 649 645 c 0,42,43
 637 905 637 905 637 1061 c 0,44,45
 637 1083 637 1083 637 1104 c 1,46,-1
 594 1139 l 1,47,-1
 29 1139 l 1,48,-1
 10 1163 l 1,0,1
EndSplineSet
EndChar

StartChar: U
Encoding: 85 85 56
Width: 1245
GlyphClass: 2
Flags: W
LayerCount: 2
Fore
SplineSet
6 141 m 0,0,1
 6 186 6 186 14.5 276.5 c 128,-1,2
 23 367 23 367 23 412 c 0,3,4
 23 420 23 420 23 440 c 0,5,6
 21 458 21 458 20 469 c 1,7,8
 20 465 20 465 33 623 c 2,9,-1
 55 946 l 2,10,11
 75 1231 75 1231 139 1403 c 1,12,13
 190 1446 190 1446 276 1446 c 0,14,15
 323 1446 323 1446 360 1436 c 0,16,17
 419 1420 419 1420 420 1386 c 0,18,19
 420 1196 420 1196 408 885 c 0,20,21
 392 496 392 496 389 385 c 2,22,-1
 389 375 l 2,23,24
 389 372 389 372 389 369 c 0,25,26
 390 330 390 330 412 293 c 0,27,28
 436 254 436 254 479 244 c 0,29,30
 514 236 514 236 573 236 c 0,31,32
 671 236 671 236 688 295 c 0,33,34
 694 318 694 318 694 467 c 0,35,36
 694 551 694 551 687 719 c 128,-1,37
 680 887 680 887 680 971 c 0,38,39
 680 1213 680 1213 723 1393 c 1,40,41
 832 1442 832 1442 956 1442 c 0,42,43
 1089 1442 1089 1442 1188 1386 c 1,44,45
 1204 1341 1204 1341 1204 1268 c 0,46,47
 1204 1211 1204 1211 1212 1087 c 0,48,49
 1233 807 1233 807 1233 528 c 0,50,51
 1233 231 1233 231 1206 -8 c 1,52,53
 1155 -108 1155 -108 1126 -131 c 1,54,55
 1079 -154 1079 -154 1004 -193 c 0,56,57
 895 -248 895 -248 741 -248 c 0,58,59
 678 -248 678 -248 557 -240 c 0,60,61
 539 -236 539 -236 504 -229.5 c 128,-1,62
 469 -223 469 -223 360 -203 c 0,63,64
 180 -170 180 -170 104 -109 c 0,65,66
 6 -29 6 -29 6 141 c 0,0,1
EndSplineSet
EndChar

StartChar: V
Encoding: 86 86 57
Width: 1900
GlyphClass: 2
Flags: W
LayerCount: 2
Fore
SplineSet
0 1503 m 1,0,1
 4 1530 4 1530 18.5 1584 c 128,-1,2
 33 1638 33 1638 66 1638 c 0,3,4
 168 1638 168 1638 346 1616 c 0,5,6
 549 1591 549 1591 627 1587 c 1,7,8
 672 1548 672 1548 690 1475 c 1,9,10
 702 1409 702 1409 717 1346 c 0,11,12
 764 1158 764 1158 852 825 c 0,13,14
 928 538 928 538 1016 319 c 1,15,16
 1071 387 1071 387 1122 524 c 0,17,18
 1142 579 1142 579 1186 692 c 0,19,20
 1196 708 1196 708 1210.5 743 c 128,-1,21
 1225 778 1225 778 1288 977 c 0,22,23
 1347 1167 1347 1167 1427 1436 c 1,24,25
 1464 1479 1464 1479 1526 1479 c 0,26,27
 1563 1479 1563 1479 1624 1460 c 0,28,29
 1694 1440 1694 1440 1720 1436 c 0,30,31
 1767 1430 1767 1430 1815 1423 c 1,32,33
 1868 1409 1868 1409 1886 1370 c 1,34,35
 1866 1147 1866 1147 1757 977 c 0,36,37
 1749 967 1749 967 1737 946 c 1,38,39
 1729 919 1729 919 1712 872 c 0,40,41
 1685 802 1685 802 1619.5 672.5 c 128,-1,42
 1554 543 1554 543 1528 475 c 0,43,44
 1491 379 1491 379 1425 70 c 0,45,46
 1378 -155 1378 -155 1315 -281 c 0,47,48
 1299 -314 1299 -314 1296.5 -315.5 c 128,-1,49
 1294 -317 1294 -317 1219 -391 c 1,50,-1
 735 -383 l 1,51,52
 665 -340 665 -340 643 -223 c 0,53,54
 614 -78 614 -78 592 -43 c 1,55,56
 547 201 547 201 334 678 c 0,57,58
 242 881 242 881 150 1083 c 1,59,60
 48 1321 48 1321 0 1503 c 1,0,1
EndSplineSet
EndChar

StartChar: W
Encoding: 87 87 58
Width: 1851
GlyphClass: 2
Flags: W
LayerCount: 2
Fore
SplineSet
27 1468 m 0,0,1
 27 1505 27 1505 37 1540 c 1,2,3
 146 1573 146 1573 510 1624 c 1,4,-1
 553 1530 l 2,5,6
 555 1526 555 1526 610 1112 c 0,7,8
 643 864 643 864 688 705 c 1,9,10
 788 1090 788 1090 813 1487 c 1,11,12
 858 1546 858 1546 973 1546 c 0,13,14
 985 1546 985 1546 1087 1540 c 1,15,16
 1140 1505 1140 1505 1161 1432 c 0,17,18
 1173 1387 1173 1387 1178.5 1292.5 c 128,-1,19
 1184 1198 1184 1198 1196 1155 c 128,-1,20
 1208 1112 1208 1112 1249 905 c 0,21,22
 1280 753 1280 753 1321 664 c 1,23,24
 1364 816 1364 816 1372 1083 c 0,25,26
 1380 1394 1380 1394 1399 1505 c 1,27,-1
 1430 1540 l 1,28,-1
 1817 1554 l 1,29,30
 1833 1528 1833 1528 1833 1497 c 0,31,32
 1833 1468 1833 1468 1812.5 1409 c 128,-1,33
 1792 1350 1792 1350 1792 1313 c 1,34,35
 1792 1321 1792 1321 1767 1169 c 0,36,37
 1687 657 1687 657 1608 -231 c 1,38,39
 1475 -286 1475 -286 1315 -287 c 0,40,41
 1288 -287 1288 -287 1262 -285 c 1,42,43
 1145 219 1145 219 1022 635 c 1,44,-1
 1022 639 l 2,45,46
 1022 647 1022 647 1006 664 c 1,47,48
 983 592 983 592 958 451 c 0,49,50
 940 345 940 345 913 236 c 0,51,52
 907 213 907 213 893 66 c 0,53,54
 877 -69 877 -69 856 -297 c 1,55,56
 823 -344 823 -344 739 -354 c 0,57,58
 692 -358 692 -358 602 -373 c 1,59,60
 491 -401 491 -401 465 -401 c 0,61,62
 464 -401 464 -401 463 -401 c 0,63,64
 393 -401 393 -401 379 -350 c 0,65,66
 375 -323 375 -323 367 -270 c 2,67,-1
 336 -43 l 1,68,69
 279 344 279 344 258 483 c 0,70,71
 211 778 211 778 160 1006 c 0,72,73
 137 1104 137 1104 127 1145 c 0,74,75
 107 1223 107 1223 80 1278 c 0,76,77
 27 1393 27 1393 27 1468 c 0,0,1
EndSplineSet
EndChar

StartChar: X
Encoding: 88 88 59
Width: 1460
GlyphClass: 2
Flags: W
LayerCount: 2
Fore
SplineSet
37 1372 m 0,0,1
 37 1419 37 1419 106 1450 c 0,2,3
 274 1524 274 1524 328 1524 c 0,4,5
 365 1524 365 1524 393.5 1515.5 c 128,-1,6
 422 1507 422 1507 526 1323 c 0,7,8
 647 1106 647 1106 668 1081 c 1,9,10
 734 1212 734 1212 868 1475 c 1,11,12
 1030 1440 1030 1440 1251 1366 c 1,13,-1
 1251 1307 l 1,14,15
 1020 924 1020 924 918 705 c 1,16,17
 1020 545 1020 545 1186 313 c 0,18,19
 1323 120 1323 120 1460 -72 c 1,20,-1
 1460 -88 l 1,21,22
 1388 -131 1388 -131 1272 -180 c 0,23,24
 1104 -250 1104 -250 1077 -262 c 1,25,-1
 1042 -256 l 1,26,-1
 709 281 l 1,27,28
 641 156 641 156 573 31 c 0,29,30
 499 -114 499 -114 465 -231 c 1,31,32
 432 -249 432 -249 393 -250 c 0,33,34
 352 -250 352 -250 269 -222 c 0,35,36
 192 -196 192 -196 147 -197 c 0,37,38
 144 -197 144 -197 141 -197 c 0,39,40
 123 -168 123 -168 123 -131 c 0,41,42
 123 -92 123 -92 143 -41 c 0,43,44
 213 129 213 129 322 346 c 0,45,46
 373 444 373 444 465 645 c 1,47,48
 37 1302 37 1302 37 1372 c 0,0,1
EndSplineSet
EndChar

StartChar: Y
Encoding: 89 89 60
Width: 1425
GlyphClass: 2
Flags: W
LayerCount: 2
Fore
SplineSet
2 1434 m 0,0,1
 2 1461 2 1461 80 1489 c 2,2,-1
 424 1614 l 1,3,4
 487 1581 487 1581 537 1483 c 0,5,6
 564 1428 564 1428 616 1315 c 0,7,8
 643 1262 643 1262 696 1157 c 0,9,10
 721 1106 721 1106 772 1006 c 1,11,12
 952 1270 952 1270 1049 1470 c 0,13,14
 1057 1490 1057 1490 1075 1530 c 0,15,16
 1093 1563 1093 1563 1151 1563 c 0,17,18
 1227 1563 1227 1563 1321 1522 c 0,19,20
 1432 1475 1432 1475 1432 1409 c 0,21,22
 1432 1374 1432 1374 1393 1303 c 0,23,24
 1379 1276 1379 1276 1352 1221 c 0,25,26
 1350 1213 1350 1213 1344.5 1198.5 c 128,-1,27
 1339 1184 1339 1184 1248 1024 c 128,-1,28
 1157 864 1157 864 1024 639 c 1,29,30
 998 270 998 270 998 -162 c 0,31,32
 998 -246 998 -246 999 -332 c 1,33,-1
 975 -356 l 1,34,-1
 481 -373 l 1,35,-1
 457 -350 l 1,36,37
 500 191 500 191 500 475 c 0,38,39
 500 553 500 553 498 629 c 1,40,41
 398 811 398 811 14 1405 c 0,42,43
 2 1423 2 1423 2 1434 c 0,0,1
EndSplineSet
EndChar

StartChar: Z
Encoding: 90 90 61
Width: 1867
GlyphClass: 2
Flags: W
LayerCount: 2
Fore
SplineSet
20 -254 m 1,0,-1
 45 63 l 1,1,-1
 1065 999 l 1,2,-1
 213 1024 l 1,3,4
 209 1057 209 1057 209 1098 c 0,5,6
 209 1161 209 1161 225 1303 c 0,7,8
 238 1427 238 1427 238 1497 c 0,9,10
 238 1502 238 1502 238 1507 c 0,11,12
 279 1542 279 1542 348 1542 c 0,13,14
 366 1542 366 1542 405 1539 c 128,-1,15
 444 1536 444 1536 463 1536 c 0,16,17
 479 1536 479 1536 513 1536 c 128,-1,18
 547 1536 547 1536 563 1536 c 0,19,20
 655 1536 655 1536 735 1530 c 2,21,-1
 1841 1434 l 1,22,-1
 1866 1411 l 1,23,-1
 1817 1090 l 1,24,25
 1674 947 1674 947 1356 649 c 0,26,27
 1053 364 1053 364 897 207 c 1,28,29
 1135 213 1135 213 1616 242 c 1,30,31
 1616 158 1616 158 1573 -154 c 1,32,-1
 1548 -176 l 1,33,34
 1470 -180 1470 -180 1028 -207 c 2,35,-1
 39 -270 l 1,36,-1
 20 -254 l 1,0,-1
EndSplineSet
EndChar

StartChar: bracketleft
Encoding: 91 91 62
Width: 571
GlyphClass: 2
Flags: W
LayerCount: 2
Fore
SplineSet
0 117 m 1,0,1
 0 633 0 633 55 1174 c 0,2,3
 57 1215 57 1215 68 1290 c 0,4,5
 70 1300 70 1300 84 1329 c 0,6,7
 143 1444 143 1444 279 1497 c 0,8,9
 355 1528 355 1528 578 1554 c 1,10,-1
 578 1337 l 2,11,12
 578 1208 578 1208 561 1128 c 1,13,14
 473 1124 473 1124 430 1034 c 1,15,16
 416 852 416 852 416 647 c 0,17,18
 416 500 416 500 424 360 c 0,19,20
 424 323 424 323 433 255.5 c 128,-1,21
 442 188 442 188 461 152 c 0,22,23
 488 95 488 95 535 72 c 1,24,-1
 547 -225 l 1,25,26
 408 -215 408 -215 406 -215 c 0,27,28
 322 -209 322 -209 264 -193 c 0,29,30
 129 -156 129 -156 59 -68 c 0,31,32
 39 -43 39 -43 37 -37 c 0,33,34
 31 -17 31 -17 0 117 c 1,0,1
EndSplineSet
EndChar

StartChar: backslash
Encoding: 92 92 63
Width: 405
GlyphClass: 2
Flags: W
LayerCount: 2
Fore
SplineSet
20 670 m 1,0,-1
 20 864 l 2,1,2
 20 952 20 952 35 1006 c 1,3,-1
 385 1006 l 1,4,-1
 406 985 l 1,5,-1
 412 684 l 1,6,7
 353 655 353 655 248 655 c 0,8,9
 230 655 230 655 143 657 c 0,10,11
 82 659 82 659 41 657 c 1,12,-1
 20 670 l 1,0,-1
EndSplineSet
EndChar

StartChar: bracketright
Encoding: 93 93 64
Width: 841
GlyphClass: 2
Flags: W
LayerCount: 2
Fore
SplineSet
37 -281 m 0,0,1
 37 -209 37 -209 66 -96 c 1,2,3
 222 -53 222 -53 254 41 c 0,4,5
 256 45 256 45 264 94 c 0,6,7
 289 256 289 256 295 496 c 0,8,9
 299 697 299 697 303 897 c 0,10,11
 305 915 305 915 309 977 c 0,12,13
 313 1028 313 1028 313 1055 c 0,14,15
 313 1061 313 1061 301 1096 c 0,16,17
 268 1200 268 1200 188 1243 c 0,18,19
 161 1257 161 1257 133 1260 c 0,20,21
 113 1260 113 1260 72 1268 c 1,22,23
 68 1293 68 1293 68 1317 c 0,24,25
 68 1368 68 1368 87 1467.5 c 128,-1,26
 106 1567 106 1567 106 1616 c 1,27,-1
 123 1622 l 1,28,29
 254 1614 254 1614 309 1606 c 0,30,31
 415 1592 415 1592 492 1561 c 0,32,33
 594 1522 594 1522 659 1448 c 0,34,35
 684 1423 684 1423 689 1415 c 128,-1,36
 694 1407 694 1407 707 1360 c 0,37,38
 762 1172 762 1172 778 881 c 2,39,-1
 799 506 l 2,40,41
 809 316 809 316 809 326 c 1,42,43
 809 109 809 109 764 -49 c 0,44,45
 715 -219 715 -219 598 -299 c 0,46,47
 563 -324 563 -324 545 -330 c 0,48,49
 518 -334 518 -334 471 -342 c 0,50,51
 383 -362 383 -362 293 -381 c 0,52,53
 189 -404 189 -404 113 -403 c 0,54,55
 86 -403 86 -403 59 -401 c 1,56,57
 36 -350 36 -350 37 -281 c 0,0,1
EndSplineSet
EndChar

StartChar: asciicircum
Encoding: 94 94 65
Width: 405
GlyphClass: 2
Flags: W
LayerCount: 2
Fore
SplineSet
20 670 m 1,0,-1
 20 864 l 2,1,2
 20 952 20 952 35 1006 c 1,3,-1
 385 1006 l 1,4,-1
 406 985 l 1,5,-1
 412 684 l 1,6,7
 353 655 353 655 248 655 c 0,8,9
 230 655 230 655 143 657 c 0,10,11
 82 659 82 659 41 657 c 1,12,-1
 20 670 l 1,0,-1
EndSplineSet
EndChar

StartChar: underscore
Encoding: 95 95 66
Width: 405
GlyphClass: 2
Flags: W
LayerCount: 2
Fore
SplineSet
20 670 m 1,0,-1
 20 864 l 2,1,2
 20 952 20 952 35 1006 c 1,3,-1
 385 1006 l 1,4,-1
 406 985 l 1,5,-1
 412 684 l 1,6,7
 353 655 353 655 248 655 c 0,8,9
 230 655 230 655 143 657 c 0,10,11
 82 659 82 659 41 657 c 1,12,-1
 20 670 l 1,0,-1
EndSplineSet
EndChar

StartChar: grave
Encoding: 96 96 67
Width: 405
GlyphClass: 2
Flags: W
LayerCount: 2
Fore
SplineSet
20 670 m 1,0,-1
 20 864 l 2,1,2
 20 952 20 952 35 1006 c 1,3,-1
 385 1006 l 1,4,-1
 406 985 l 1,5,-1
 412 684 l 1,6,7
 353 655 353 655 248 655 c 0,8,9
 230 655 230 655 143 657 c 0,10,11
 82 659 82 659 41 657 c 1,12,-1
 20 670 l 1,0,-1
EndSplineSet
EndChar

StartChar: a
Encoding: 97 97 68
Width: 1687
GlyphClass: 2
Flags: W
LayerCount: 2
Fore
SplineSet
0 -119 m 1,0,1
 12 92 12 92 113 266 c 0,2,3
 121 276 121 276 133 299 c 0,4,5
 137 313 137 313 143 340 c 0,6,7
 161 403 161 403 201 492 c 0,8,9
 267 639 267 639 266 641 c 0,10,11
 299 725 299 725 369 940 c 0,12,13
 482 1292 482 1292 526 1565 c 1,14,15
 544 1596 544 1596 594 1638 c 1,16,-1
 1026 1628 l 1,17,18
 1094 1573 1094 1573 1122 1473 c 0,19,20
 1122 1469 1122 1469 1153 1288 c 0,21,22
 1210 940 1210 940 1389 551 c 0,23,24
 1462 387 1462 387 1673 -199 c 1,25,26
 1673 -236 1673 -236 1669 -306.5 c 128,-1,27
 1665 -377 1665 -377 1606 -391 c 1,28,29
 1448 -371 1448 -371 1122 -342 c 1,30,31
 1079 -303 1079 -303 1065 -225 c 2,32,-1
 1040 -94 l 2,33,34
 1036 -76 1036 -76 1026 -39 c 0,35,36
 1012 29 1012 29 997 96 c 0,37,38
 981 174 981 174 956 225 c 1,39,-1
 526 225 l 1,40,-1
 512 211 l 1,41,-1
 399 -205 l 2,42,43
 389 -244 389 -244 342 -244 c 0,44,45
 326 -244 326 -244 295 -233.5 c 128,-1,46
 264 -223 264 -223 252 -221 c 0,47,48
 180 -213 180 -213 109 -203 c 1,49,50
 27 -185 27 -185 0 -119 c 1,0,1
623 545 m 1,51,-1
 883 551 l 1,52,53
 801 799 801 799 766 924 c 1,54,55
 666 674 666 674 623 545 c 1,51,-1
EndSplineSet
EndChar

StartChar: b
Encoding: 98 98 69
Width: 1081
GlyphClass: 2
Flags: W
LayerCount: 2
Fore
SplineSet
51 1599 m 1,0,1
 57 1609 57 1609 104 1632 c 1,2,3
 192 1622 192 1622 311 1622 c 2,4,-1
 598 1624 l 1,5,6
 598 1624 598 1624 596 1624 c 1,7,8
 801 1618 801 1618 874 1585 c 0,9,10
 892 1577 892 1577 924 1546 c 0,11,12
 1039 1431 1039 1431 1040 1178 c 2,13,-1
 1040 1153 l 2,14,15
 1040 1144 1040 1144 1040 1135 c 0,16,17
 1040 926 1040 926 995 879 c 0,18,19
 985 869 985 869 915 827 c 0,20,21
 862 796 862 796 848 768 c 1,22,23
 954 719 954 719 981 633 c 0,24,25
 1004 559 1004 559 1004 403 c 0,26,27
 1004 276 1004 276 975 125 c 0,28,29
 973 107 973 107 965 76 c 0,30,31
 963 70 963 70 950 53 c 0,32,33
 903 -8 903 -8 807 -31 c 0,34,35
 782 -37 782 -37 635 -51 c 0,36,37
 576 -57 576 -57 578 -57 c 2,38,-1
 88 -51 l 1,39,-1
 72 -35 l 1,40,41
 88 184 88 184 88 451 c 0,42,43
 88 734 88 734 51 1599 c 1,0,1
354 946 m 1,44,45
 368 909 368 909 440 909 c 0,46,47
 485 909 485 909 492 909 c 0,48,49
 527 911 527 911 562.5 939 c 128,-1,50
 598 967 598 967 615.5 1001.5 c 128,-1,51
 633 1036 633 1036 633 1130 c 0,52,53
 633 1218 633 1218 614 1260 c 0,54,55
 598 1295 598 1295 559 1335 c 0,56,57
 514 1380 514 1380 481 1386 c 0,58,59
 465 1388 465 1388 430 1393 c 2,60,-1
 412 1395 l 1,61,62
 373 1395 373 1395 354 1372 c 1,63,-1
 354 946 l 1,44,45
489 489 m 0,64,65
 489 456 489 456 494.5 390 c 128,-1,66
 500 324 500 324 500 291 c 0,67,68
 500 264 500 264 498 240 c 1,69,70
 525 217 525 217 565 217 c 0,71,72
 610 217 610 217 682 246 c 1,73,74
 721 309 721 309 721 393 c 0,75,76
 721 471 721 471 705 516 c 0,77,78
 668 618 668 618 535 618 c 0,79,80
 525 618 525 618 512 618 c 1,81,82
 489 563 489 563 489 489 c 0,64,65
EndSplineSet
EndChar

StartChar: c
Encoding: 99 99 70
Width: 1261
GlyphClass: 2
Flags: W
LayerCount: 2
Fore
SplineSet
10 31 m 1,0,1
 10 678 10 678 47 1059 c 0,2,3
 51 1122 51 1122 70 1247 c 1,4,5
 97 1368 97 1368 211 1442 c 0,6,7
 287 1491 287 1491 428 1516 c 0,8,9
 485 1526 485 1526 586 1542 c 0,10,11
 662 1554 662 1554 664 1554 c 0,12,13
 699 1554 699 1554 760 1554 c 0,14,15
 830 1552 830 1552 858 1552 c 0,16,17
 876 1553 876 1553 904 1553 c 128,-1,18
 932 1553 932 1553 969 1552 c 0,19,20
 1147 1542 1147 1542 1206 1407 c 0,21,22
 1251 1307 1251 1307 1251 1098 c 0,23,24
 1251 1026 1251 1026 1243 891 c 1,25,-1
 1206 860 l 1,26,-1
 1192 860 l 2,27,28
 1185 860 1185 860 1177 860 c 0,29,30
 1144 860 1144 860 1094 854 c 0,31,32
 1030 846 1030 846 999 846 c 0,33,34
 925 846 925 846 879 877 c 1,35,-1
 879 887 l 2,36,37
 879 892 879 892 879 898 c 0,38,39
 879 918 879 918 884 952 c 0,40,41
 891 994 891 994 891 1016 c 0,42,43
 891 1124 891 1124 738 1124 c 0,44,45
 737 1124 737 1124 735 1124 c 0,46,47
 641 1124 641 1124 537 1100 c 0,48,49
 457 1082 457 1082 440 967 c 0,50,51
 426 867 426 867 426 786 c 0,52,53
 426 763 426 763 428 729 c 0,54,55
 430 682 430 682 430 670 c 0,56,57
 432 615 432 615 436 430 c 0,58,59
 442 170 442 170 484 92 c 128,-1,60
 526 14 526 14 662 14 c 0,61,62
 717 14 717 14 793 31 c 1,63,64
 852 90 852 90 870 219 c 1,65,66
 878 323 878 323 887 430 c 1,67,68
 942 438 942 438 997 438 c 0,69,70
 1101 438 1101 438 1192 408 c 1,71,72
 1186 289 1186 289 1165 51 c 0,73,74
 1147 -111 1147 -111 1051 -207 c 0,75,76
 1022 -236 1022 -236 1006 -246 c 0,77,78
 943 -285 943 -285 793 -285 c 0,79,80
 764 -285 764 -285 707.5 -283 c 128,-1,81
 651 -281 651 -281 625 -281 c 0,82,83
 613 -281 613 -281 588 -281 c 0,84,85
 565 -283 565 -283 553 -283 c 2,86,87
 553 -283 553 -283 442 -266 c 1,88,89
 383 -262 383 -262 279 -244 c 1,90,91
 148 -209 148 -209 76 -125 c 0,92,93
 56 -100 56 -100 53 -96 c 2,94,-1
 10 31 l 1,0,1
EndSplineSet
EndChar

StartChar: d
Encoding: 100 100 71
Width: 1245
GlyphClass: 2
Flags: W
LayerCount: 2
Fore
SplineSet
49 -164 m 1,0,1
 51 10 51 10 66 446 c 0,2,3
 80 835 80 835 80 1059 c 0,4,5
 80 1256 80 1256 72 1421 c 1,6,-1
 115 1450 l 1,7,8
 226 1454 226 1454 307 1454 c 0,9,10
 694 1454 694 1454 936 1339 c 0,11,12
 999 1308 999 1308 1030 1286 c 0,13,14
 1210 1153 1210 1153 1210 813 c 0,15,16
 1210 631 1210 631 1126 195 c 0,17,18
 1101 66 1101 66 1032 -29 c 0,19,20
 952 -133 952 -133 836 -164 c 0,21,22
 637 -215 637 -215 397 -215 c 0,23,24
 245 -215 245 -215 78 -193 c 1,25,-1
 49 -164 l 1,0,1
358 762 m 0,26,27
 358 674 358 674 360 496.5 c 128,-1,28
 362 319 362 319 362 231 c 1,29,30
 394 207 394 207 440 207 c 0,31,32
 442 207 442 207 444 207 c 0,33,34
 499 207 499 207 571 238.5 c 128,-1,35
 643 270 643 270 662 336 c 0,36,37
 672 371 672 371 672 475 c 0,38,39
 672 817 672 817 612 987 c 0,40,41
 585 1061 585 1061 510 1100 c 0,42,43
 498 1104 498 1104 473 1114 c 0,44,45
 436 1132 436 1132 416 1133 c 0,46,47
 379 1133 379 1133 375 1094 c 0,48,49
 359 938 359 938 358 762 c 0,26,27
EndSplineSet
EndChar

StartChar: e
Encoding: 101 101 72
Width: 1017
GlyphClass: 2
Flags: W
LayerCount: 2
Fore
SplineSet
8 170 m 1,0,1
 26 422 26 422 31 854 c 0,2,3
 37 1352 37 1352 45 1540 c 1,4,-1
 68 1556 l 1,5,6
 144 1552 144 1552 227 1552 c 0,7,8
 344 1552 344 1552 590 1565 c 0,9,10
 798 1577 798 1577 919 1577 c 0,11,12
 936 1577 936 1577 952 1577 c 2,13,-1
 995 1577 l 1,14,-1
 1012 1546 l 1,15,-1
 995 1206 l 1,16,17
 955 1176 955 1176 899 1176 c 0,18,19
 897 1176 897 1176 895 1176 c 0,20,21
 868 1176 868 1176 831 1184 c 0,22,23
 759 1200 759 1200 672 1200 c 0,24,25
 631 1200 631 1200 551 1198 c 128,-1,26
 471 1196 471 1196 430 1196 c 1,27,28
 408 1168 408 1168 408 1129 c 0,29,30
 408 1104 408 1104 416 1058 c 128,-1,31
 424 1012 424 1012 424 989 c 1,32,33
 483 952 483 952 580 952 c 1,34,35
 576 952 576 952 575 952 c 2,36,-1
 582 952 l 1,37,-1
 608 954 l 2,38,39
 674 958 674 958 725 961 c 2,40,-1
 750 961 l 2,41,42
 756 961 756 961 763 961 c 0,43,44
 817 961 817 961 862 946 c 1,45,-1
 848 639 l 1,46,-1
 334 633 l 1,47,48
 301 608 301 608 301 557 c 0,49,50
 301 541 301 541 306 509 c 128,-1,51
 311 477 311 477 311 463 c 1,52,-1
 342 440 l 1,53,-1
 719 442 l 2,54,55
 797 442 797 442 950 446 c 1,56,57
 973 403 973 403 977 317 c 1,58,59
 977 326 977 326 976 326 c 128,-1,60
 975 326 975 326 975 186 c 0,61,62
 975 157 975 157 922 127 c 1,63,64
 854 123 854 123 780 123 c 0,65,66
 653 123 653 123 400 136.5 c 128,-1,67
 147 150 147 150 20 150 c 1,68,-1
 8 170 l 1,0,1
EndSplineSet
EndChar

StartChar: f
Encoding: 102 102 73
Width: 1130
GlyphClass: 2
Flags: W
LayerCount: 2
Fore
SplineSet
33 1401 m 1,0,-1
 63 1434 l 1,1,-1
 1014 1454 l 1,2,3
 1077 1415 1077 1415 1077 1323 c 0,4,5
 1077 1300 1077 1300 1073 1255 c 128,-1,6
 1069 1210 1069 1210 1069 1188 c 0,7,8
 1069 1180 1069 1180 1071 1164.5 c 128,-1,9
 1073 1149 1073 1149 1073 1141 c 0,10,11
 1073 1098 1073 1098 1030 1098 c 1,12,13
 1032 1098 1032 1098 1032 1098 c 2,14,15
 1032 1099 1032 1099 895 1108 c 0,16,17
 717 1118 717 1118 590 1118 c 0,18,19
 477 1118 477 1118 389 1110 c 1,20,21
 350 1085 350 1085 350 1028 c 0,22,23
 350 1012 350 1012 355 980 c 128,-1,24
 360 948 360 948 360 934 c 1,25,-1
 397 903 l 1,26,-1
 934 903 l 1,27,-1
 954 881 l 1,28,29
 946 846 946 846 946 809 c 0,30,31
 946 776 946 776 954.5 713.5 c 128,-1,32
 963 651 963 651 963 618 c 0,33,34
 963 598 963 598 961 578 c 1,35,36
 936 545 936 545 893 545 c 0,37,38
 877 545 877 545 842 551 c 128,-1,39
 807 557 807 557 788 557 c 0,40,41
 778 557 778 557 757.5 553 c 128,-1,42
 737 549 737 549 727 549 c 0,43,44
 704 549 704 549 657 555 c 128,-1,45
 610 561 610 561 586 561 c 0,46,47
 533 561 533 561 494 530 c 1,48,49
 465 419 465 419 465 285 c 0,50,51
 465 262 465 262 468 217 c 128,-1,52
 471 172 471 172 471 149.5 c 128,-1,53
 471 127 471 127 477 84 c 128,-1,54
 483 41 483 41 483 18 c 0,55,56
 483 -56 483 -56 434 -86 c 1,57,-1
 90 -86 l 1,58,-1
 70 -63 l 1,59,60
 72 25 72 25 72 119 c 0,61,62
 72 639 72 639 33 1401 c 1,0,-1
EndSplineSet
EndChar

StartChar: g
Encoding: 103 103 74
Width: 1130
GlyphClass: 2
Flags: W
LayerCount: 2
Fore
SplineSet
0 477 m 0,0,1
 0 502 0 502 0 549 c 128,-1,2
 0 596 0 596 0 621 c 0,3,4
 0 1039 0 1039 25 1171 c 0,5,6
 41 1267 41 1267 100 1350 c 0,7,8
 166 1442 166 1442 238 1458 c 0,9,10
 263 1464 263 1464 428 1489 c 0,11,12
 595 1513 595 1513 654 1513 c 0,13,14
 657 1513 657 1513 659 1513 c 0,15,16
 794 1513 794 1513 893 1473 c 0,17,18
 922 1461 922 1461 924 1458 c 0,19,20
 963 1421 963 1421 1004 1378 c 0,21,22
 1008 1374 1008 1374 1022 1339 c 0,23,24
 1081 1205 1081 1205 1081 1006 c 0,25,26
 1081 961 1081 961 1077 911 c 1,27,28
 995 886 995 886 664 874 c 1,29,30
 644 892 644 892 631 989 c 0,31,32
 619 1071 619 1071 573 1081 c 0,33,34
 571 1081 571 1081 541 1081 c 0,35,36
 383 1081 383 1081 334 1051 c 0,37,38
 268 1010 268 1010 268 825 c 0,39,40
 268 813 268 813 268 788 c 0,41,42
 270 765 270 765 270 754 c 0,43,44
 270 711 270 711 263 627 c 128,-1,45
 256 543 256 543 256 500 c 0,46,47
 256 291 256 291 381 231 c 0,48,49
 428 209 428 209 502 209 c 0,50,51
 505 209 505 209 508 209 c 0,52,53
 610 209 610 209 657 248 c 0,54,55
 716 297 716 297 715 352 c 2,56,-1
 715 358 l 1,57,-1
 694 381 l 2,58,59
 696 381 696 381 520 381 c 0,60,61
 434 381 434 381 397 418 c 1,62,-1
 397 768 l 1,63,-1
 418 791 l 1,64,65
 615 775 615 775 983 754 c 1,66,-1
 1004 731 l 1,67,68
 1006 704 1006 704 1014 563 c 0,69,70
 1022 461 1022 461 1022 395 c 0,71,72
 1022 172 1022 172 924 72 c 0,73,74
 781 -75 781 -75 516 -76 c 0,75,76
 297 -76 297 -76 150 35 c 0,77,78
 56 105 56 105 23 236 c 0,79,80
 0 322 0 322 0 477 c 0,0,1
EndSplineSet
EndChar

StartChar: h
Encoding: 104 104 75
Width: 1130
GlyphClass: 2
Flags: W
LayerCount: 2
Fore
SplineSet
39 -41 m 1,0,1
 66 244 66 244 66 578 c 0,2,3
 66 848 66 848 47 1198 c 1,4,5
 98 1225 98 1225 176 1225 c 0,6,7
 239 1225 239 1225 309 1208 c 1,8,9
 323 1169 323 1169 324 1034 c 0,10,11
 324 950 324 950 336 911 c 1,12,13
 455 895 455 895 549 895 c 0,14,15
 606 895 606 895 655 901 c 1,16,17
 680 932 680 932 680 1081 c 0,18,19
 680 1140 680 1140 680 1139 c 1,20,21
 666 1219 666 1219 662.5 1262 c 128,-1,22
 659 1305 659 1305 649 1384 c 1,23,-1
 680 1409 l 1,24,25
 784 1401 784 1401 864 1401 c 0,26,27
 968 1401 968 1401 1028 1415 c 1,28,-1
 1059 1372 l 1,29,30
 1045 1110 1045 1110 1044 823 c 0,31,32
 1044 481 1044 481 1067 23 c 0,33,34
 1073 -82 1073 -82 1073 -78 c 1,35,36
 1073 -88 1073 -88 1052.5 -101.5 c 128,-1,37
 1032 -115 1032 -115 1022 -115 c 0,38,39
 766 -115 766 -115 680 -88 c 1,40,41
 686 -10 686 -10 686 80 c 0,42,43
 686 213 686 213 666 471 c 1,44,45
 625 500 625 500 563 500 c 0,46,47
 536 500 536 500 486 493.5 c 128,-1,48
 436 487 436 487 410 487 c 0,49,50
 387 487 387 487 367 492 c 1,51,52
 344 449 344 449 344 383 c 0,53,54
 344 365 344 365 348 313 c 0,55,56
 356 219 356 219 373 -55 c 1,57,-1
 358 -72 l 1,58,59
 319 -74 319 -74 285 -74 c 0,60,61
 119 -74 119 -74 39 -41 c 1,0,1
EndSplineSet
EndChar

StartChar: i
Encoding: 105 105 76
Width: 557
GlyphClass: 2
Flags: W
LayerCount: 2
Fore
SplineSet
41 135 m 0,0,1
 41 162 41 162 49 218 c 128,-1,2
 57 274 57 274 57 305 c 0,3,4
 57 325 57 325 66 453 c 0,5,6
 102 1071 102 1071 102 1188 c 0,7,8
 102 1191 102 1191 102 1194 c 0,9,10
 102 1323 102 1323 94 1436 c 1,11,12
 104 1452 104 1452 170 1473 c 1,13,14
 188 1469 188 1469 231 1468 c 0,15,16
 254 1468 254 1468 301 1470.5 c 128,-1,17
 348 1473 348 1473 373 1473 c 0,18,19
 457 1473 457 1473 504 1442 c 1,20,21
 473 1206 473 1206 473 840 c 2,22,-1
 471 346 l 2,23,24
 471 322 471 322 471 293 c 0,25,26
 471 205 471 205 467 66 c 1,27,-1
 444 53 l 1,28,-1
 86 45 l 1,29,30
 41 74 41 74 41 135 c 0,0,1
EndSplineSet
EndChar

StartChar: j
Encoding: 106 106 77
Width: 1064
GlyphClass: 2
Flags: W
LayerCount: 2
Fore
SplineSet
16 348 m 0,0,1
 16 383 16 383 23 537 c 1,2,3
 19 537 19 537 18 537 c 2,4,-1
 20 537 l 1,5,-1
 27 539 l 1,6,-1
 59 539 l 2,7,8
 88 539 88 539 211 539 c 0,9,10
 328 539 328 539 385 506 c 1,11,-1
 385 494 l 2,12,13
 386 486 386 486 386 475 c 0,14,15
 386 449 386 449 382 410 c 0,16,17
 377 354 377 354 377 330 c 0,18,19
 377 234 377 234 422 186 c 1,20,21
 449 178 449 178 477 178 c 0,22,23
 590 178 590 178 629 266 c 0,24,25
 653 319 653 319 653 441 c 0,26,27
 653 446 653 446 653 451 c 0,28,29
 653 504 653 504 646 607.5 c 128,-1,30
 639 711 639 711 639 760 c 0,31,32
 637 946 637 946 625 1362 c 1,33,34
 652 1393 652 1393 715 1393 c 0,35,36
 719 1393 719 1393 723 1393 c 0,37,38
 741 1393 741 1393 755 1393 c 0,39,40
 815 1393 815 1393 831 1399 c 1,41,42
 843 1397 843 1397 858 1397 c 0,43,44
 870 1397 870 1397 896 1399 c 128,-1,45
 922 1401 922 1401 934 1401 c 0,46,47
 1000 1401 1000 1401 1012 1362 c 0,48,49
 1012 1360 1012 1360 1018 1313 c 0,50,51
 1038 1149 1038 1149 1038 956 c 0,52,53
 1038 647 1038 647 983 199 c 2,54,-1
 975 135 l 2,55,56
 975 131 975 131 961 104 c 0,57,58
 918 26 918 26 834 -14 c 0,59,60
 762 -51 762 -51 631 -66 c 0,61,62
 568 -74 568 -74 483 -82 c 0,63,64
 417 -88 417 -88 416 -88 c 0,65,66
 185 -88 185 -88 125 -31 c 0,67,68
 16 73 16 73 16 348 c 0,0,1
EndSplineSet
EndChar

StartChar: k
Encoding: 107 107 78
Width: 1130
GlyphClass: 2
Flags: W
LayerCount: 2
Fore
SplineSet
51 1425 m 1,0,-1
 68 1440 l 1,1,-1
 475 1432 l 1,2,-1
 504 1393 l 1,3,4
 504 1289 504 1289 496.5 1078.5 c 128,-1,5
 489 868 489 868 489 764 c 0,6,7
 489 713 489 713 492 672 c 1,8,9
 555 807 555 807 764 1366 c 0,10,11
 787 1425 787 1425 887 1425 c 0,12,13
 910 1425 910 1425 955.5 1420 c 128,-1,14
 1001 1415 1001 1415 1024 1415 c 1,15,16
 1047 1403 1047 1403 1071.5 1388 c 128,-1,17
 1096 1373 1096 1373 1096 1350 c 0,18,19
 1096 1348 1096 1348 795 516 c 1,20,21
 842 366 842 366 938 98 c 0,22,23
 1044 -191 1044 -191 1085 -317 c 1,24,25
 1085 -352 1085 -352 1040 -358 c 0,26,27
 977 -368 977 -368 965 -369 c 2,28,-1
 858 -369 l 2,29,30
 795 -369 795 -369 764 -344 c 1,31,32
 715 -211 715 -211 608 55 c 1,33,34
 577 2 577 2 541 -141 c 0,35,36
 506 -270 506 -270 461 -332 c 1,37,-1
 119 -332 l 1,38,-1
 82 -295 l 1,39,40
 96 70 96 70 96 387 c 0,41,42
 96 948 96 948 51 1425 c 1,0,-1
EndSplineSet
EndChar

StartChar: l
Encoding: 108 108 79
Width: 1048
GlyphClass: 2
Flags: W
LayerCount: 2
Fore
SplineSet
20 1532 m 1,0,-1
 59 1561 l 1,1,-1
 430 1561 l 2,2,3
 475 1561 475 1561 475 1503 c 0,4,5
 475 1480 475 1480 467 1464 c 1,6,7
 440 1036 440 1036 436 1001 c 0,8,9
 418 739 418 739 393 541 c 1,10,11
 401 527 401 527 401 502 c 0,12,13
 401 492 401 492 398 471.5 c 128,-1,14
 395 451 395 451 395 440 c 0,15,16
 395 403 395 403 418 385 c 1,17,18
 486 379 486 379 569 379 c 0,19,20
 628 379 628 379 748 383 c 128,-1,21
 868 387 868 387 928 387 c 0,22,23
 981 387 981 387 1020 385 c 1,24,-1
 1020 119 l 1,25,-1
 997 94 l 1,26,-1
 961 94 l 2,27,28
 955 94 955 94 948 94 c 0,29,30
 738 94 738 94 47 156 c 1,31,-1
 31 178 l 1,32,33
 47 571 47 571 47 858 c 0,34,35
 47 1233 47 1233 20 1532 c 1,0,-1
EndSplineSet
EndChar

StartChar: m
Encoding: 109 109 80
Width: 2015
GlyphClass: 2
Flags: W
LayerCount: 2
Fore
SplineSet
-6 -248 m 2,0,1
 -6 -205 -6 -205 -2 -125 c 2,2,-1
 0 -94 l 2,3,4
 -2 -90 -2 -90 0 -84 c 1,5,6
 2 -86 2 -86 0 -86 c 0,7,8
 -2 -27 -2 -27 -2 41 c 0,9,10
 -2 272 -2 272 23 797 c 0,11,12
 42 1197 42 1197 42 1448 c 0,13,14
 42 1503 42 1503 41 1550 c 1,15,-1
 66 1575 l 1,16,-1
 451 1575 l 1,17,18
 492 1536 492 1536 518 1458 c 0,19,20
 530 1413 530 1413 559 1325 c 1,21,22
 582 1270 582 1270 623 1159 c 0,23,24
 674 1022 674 1022 758 786 c 0,25,26
 879 444 879 444 977 258 c 1,27,28
 985 272 985 272 1028 377 c 0,29,30
 1048 420 1048 420 1083 508 c 0,31,32
 1085 516 1085 516 1112 606 c 0,33,34
 1245 1061 1245 1061 1333 1509 c 1,35,36
 1362 1525 1362 1525 1407 1526 c 0,37,38
 1452 1526 1452 1526 1497 1514.5 c 128,-1,39
 1542 1503 1542 1503 1614 1497 c 0,40,41
 1694 1491 1694 1491 1720 1450 c 1,42,43
 1772 540 1772 540 1942 -375 c 1,44,-1
 1929 -393 l 1,45,-1
 1870 -393 l 2,46,47
 1856 -393 1856 -393 1843 -393 c 0,48,49
 1666 -393 1666 -393 1511 -369 c 1,50,51
 1487 -331 1487 -331 1487 -271 c 0,52,53
 1487 -209 1487 -209 1477 -100 c 0,54,55
 1467 62 1467 62 1454 223 c 0,56,57
 1442 416 1442 416 1411 543 c 1,58,59
 1358 410 1358 410 1319 225 c 0,60,61
 1307 166 1307 166 1262 -100 c 0,62,63
 1258 -143 1258 -143 1243 -209 c 1,64,65
 1223 -264 1223 -264 1104 -276 c 1,66,67
 1020 -280 1020 -280 934 -285 c 1,68,69
 868 -293 868 -293 864 -293 c 0,70,71
 768 -293 768 -293 750 -219 c 0,72,73
 738 -162 738 -162 709 -47 c 0,74,75
 639 207 639 207 500 524 c 1,76,77
 486 420 486 420 485 295 c 0,78,79
 485 195 485 195 497.5 -6 c 128,-1,80
 510 -207 510 -207 510 -307 c 0,81,82
 510 -397 510 -397 469 -410 c 1,83,84
 432 -406 432 -406 391 -406 c 0,85,86
 346 -406 346 -406 257 -412 c 128,-1,87
 168 -418 168 -418 123 -418 c 0,88,89
 62 -418 62 -418 10 -410 c 1,90,91
 -6 -357 -6 -357 -6 -288 c 0,92,93
 -6 -280 -6 -280 -6 -272 c 2,94,-1
 -6 -248 l 2,0,1
EndSplineSet
EndChar

StartChar: n
Encoding: 110 110 81
Width: 1294
GlyphClass: 2
Flags: W
LayerCount: 2
Fore
SplineSet
18 -186 m 1,0,1
 53 344 53 344 53 915 c 0,2,3
 53 1163 53 1163 47 1413 c 1,4,5
 82 1450 82 1450 156 1450 c 0,6,7
 170 1450 170 1450 195.5 1448 c 128,-1,8
 221 1446 221 1446 236 1446 c 0,9,10
 267 1446 267 1446 329 1459.5 c 128,-1,11
 391 1473 391 1473 422 1473 c 0,12,13
 449 1473 449 1473 471 1464 c 1,14,15
 516 1396 516 1396 549 1276 c 0,16,17
 600 1092 600 1092 604 1079 c 0,18,19
 641 973 641 973 680 864 c 0,20,21
 725 741 725 741 770 655 c 1,22,23
 780 770 780 770 780 913 c 0,24,25
 780 1017 780 1017 772 1225.5 c 128,-1,26
 764 1434 764 1434 764 1538 c 0,27,28
 764 1561 764 1561 797 1575 c 0,29,30
 807 1577 807 1577 829 1583 c 0,31,32
 845 1589 845 1589 846 1589 c 2,33,-1
 1257 1589 l 1,34,35
 1274 1560 1274 1560 1274 1513 c 0,36,37
 1274 1501 1274 1501 1264 1430 c 0,38,39
 1252 1348 1252 1348 1239 1108 c 0,40,41
 1221 795 1221 795 1221 408 c 0,42,43
 1221 369 1221 369 1229 -371 c 1,44,-1
 1188 -406 l 1,45,-1
 811 -393 l 1,46,-1
 780 -362 l 1,47,48
 688 -28 688 -28 412 655 c 1,49,50
 412 630 412 630 412 604 c 0,51,52
 412 448 412 448 432 233 c 0,53,54
 448 94 448 94 471 -178 c 1,55,56
 399 -223 399 -223 268 -223 c 0,57,58
 231 -223 231 -223 156.5 -218 c 128,-1,59
 82 -213 82 -213 47 -213 c 1,60,-1
 18 -186 l 1,0,1
EndSplineSet
EndChar

StartChar: o
Encoding: 111 111 82
Width: 1114
GlyphClass: 2
Flags: W
LayerCount: 2
Fore
SplineSet
-4 440 m 0,0,1
 -4 481 -4 481 -2 565 c 128,-1,2
 0 649 0 649 0 690 c 0,3,4
 0 733 0 733 -2 821 c 128,-1,5
 -4 909 -4 909 -4 952 c 0,6,7
 -4 1198 -4 1198 53 1343 c 0,8,9
 67 1376 67 1376 73.5 1384.5 c 128,-1,10
 80 1393 80 1393 111 1415 c 0,11,12
 228 1501 228 1501 408 1501 c 0,13,14
 560 1501 560 1501 729 1456 c 0,15,16
 930 1403 930 1403 1014 1317 c 0,17,18
 1075 1256 1075 1256 1081 1098 c 0,19,20
 1085 1018 1085 1018 1092 858 c 0,21,22
 1094 792 1094 792 1104 600 c 0,23,24
 1114 440 1114 440 1114 344 c 0,25,26
 1114 104 1114 104 1044 -23 c 0,27,28
 1024 -60 1024 -60 1014 -70 c 128,-1,29
 1004 -80 1004 -80 958 -104 c 0,30,31
 786 -200 786 -200 535 -201 c 0,32,33
 283 -201 283 -201 177.5 -115 c 128,-1,34
 72 -29 72 -29 27 137 c 0,35,36
 -4 250 -4 250 -4 440 c 0,0,1
479 1032 m 1,37,38
 489 565 489 565 489 557 c 0,39,40
 489 528 489 528 486 469 c 128,-1,41
 483 410 483 410 483 381 c 0,42,43
 483 244 483 244 547 182 c 0,44,45
 563 166 563 166 573 162 c 0,46,47
 593 154 593 154 629 154 c 0,48,49
 692 154 692 154 723 197 c 1,50,51
 731 401 731 401 731 571 c 0,52,53
 731 776 731 776 719 932 c 0,54,55
 719 952 719 952 715 989 c 0,56,57
 713 997 713 997 700 1018 c 0,58,59
 649 1098 649 1098 539 1098 c 1,60,61
 494 1061 494 1061 479 1032 c 1,37,38
EndSplineSet
EndChar

StartChar: p
Encoding: 112 112 83
Width: 1228
GlyphClass: 2
Flags: W
LayerCount: 2
Fore
SplineSet
18 1421 m 1,0,1
 51 1448 51 1448 147 1448 c 0,2,3
 219 1448 219 1448 244 1456 c 1,4,5
 590 1448 590 1448 610 1448 c 0,6,7
 833 1432 833 1432 963 1368 c 0,8,9
 1104 1298 1104 1298 1178 1159 c 0,10,11
 1188 1141 1188 1141 1202 1106 c 1,12,13
 1219 1042 1219 1042 1219 911 c 0,14,15
 1219 653 1219 653 1061 563 c 0,16,17
 1000 528 1000 528 795 467 c 0,18,19
 703 440 703 440 524 373 c 1,20,-1
 502 338 l 1,21,22
 506 207 506 207 510 78 c 0,23,24
 518 -78 518 -78 543 -180 c 1,25,-1
 543 -188 l 2,26,27
 541 -202 541 -202 547 -228 c 128,-1,28
 553 -254 553 -254 553 -266 c 0,29,30
 553 -289 553 -289 537 -305 c 1,31,32
 482 -313 482 -313 412 -313 c 0,33,34
 371 -313 371 -313 240 -307 c 0,35,36
 175 -303 175 -303 125 -303 c 0,37,38
 92 -303 92 -303 66 -305 c 1,39,-1
 43 -281 l 1,40,-1
 45 592 l 2,41,42
 45 1084 45 1084 18 1421 c 1,0,1
369 831 m 1,43,-1
 393 803 l 1,44,45
 418 801 418 801 442 801 c 0,46,47
 563 801 563 801 662 862 c 1,48,49
 702 915 702 915 702 999 c 0,50,51
 702 1056 702 1056 691 1084 c 128,-1,52
 680 1112 680 1112 635 1157 c 128,-1,53
 590 1202 590 1202 561 1205 c 128,-1,54
 532 1208 532 1208 479 1212 c 2,55,-1
 461 1214 l 1,56,-1
 457 1214 l 1,57,58
 457 1214 457 1214 459 1214 c 1,59,60
 400 1214 400 1214 369 1188 c 1,61,-1
 369 831 l 1,43,-1
EndSplineSet
EndChar

StartChar: q
Encoding: 113 113 84
Width: 1605
GlyphClass: 2
Flags: W
LayerCount: 2
Fore
SplineSet
-6 244 m 0,0,1
 -6 394 -6 394 10 737 c 0,2,3
 18 905 18 905 37 1243 c 0,4,5
 45 1356 45 1356 160 1415 c 0,6,7
 187 1429 187 1429 399 1487 c 0,8,9
 661 1559 661 1559 813 1559 c 0,10,11
 1034 1559 1034 1559 1155 1432 c 0,12,13
 1190 1395 1190 1395 1204 1368 c 0,14,15
 1214 1350 1214 1350 1233 1290 c 0,16,17
 1282 1132 1282 1132 1282 922 c 0,18,19
 1282 818 1282 818 1262 553 c 0,20,21
 1248 369 1248 369 1247 193 c 0,22,23
 1247 187 1247 187 1244 172.5 c 128,-1,24
 1241 158 1241 158 1241 152 c 0,25,26
 1241 -20 1241 -20 1223 -57 c 1,27,28
 1264 -75 1264 -75 1311 -76 c 0,29,30
 1358 -76 1358 -76 1432 -53 c 0,31,32
 1557 -14 1557 -14 1561 -14 c 0,33,34
 1588 -14 1588 -14 1608 -43 c 1,35,36
 1598 -180 1598 -180 1581 -461 c 1,37,-1
 1556 -485 l 1,38,39
 1384 -501 1384 -501 1272 -502 c 0,40,41
 914 -502 914 -502 721 -348 c 1,42,43
 655 -334 655 -334 471 -326 c 0,44,45
 303 -320 303 -320 221 -291 c 0,46,47
 112 -254 112 -254 53 -164 c 0,48,49
 39 -137 39 -137 38 -135 c 128,-1,50
 37 -133 37 -133 -4 82 c 0,51,52
 -6 92 -6 92 -6 244 c 0,0,1
428 547 m 0,53,54
 428 496 428 496 430 390.5 c 128,-1,55
 432 285 432 285 432 231 c 0,56,57
 432 184 432 184 430 152 c 1,58,59
 450 115 450 115 500 98 c 0,60,61
 510 96 510 96 590 82 c 1,62,63
 590 88 590 88 590 92 c 0,64,65
 590 121 590 121 569.5 171 c 128,-1,66
 549 221 549 221 549 248 c 0,67,68
 549 301 549 301 621 356 c 0,69,70
 686 408 686 408 745 416 c 1,71,72
 745 566 745 566 715 756 c 0,73,74
 709 801 709 801 690 891 c 1,75,76
 667 969 667 969 551 969 c 0,77,78
 506 969 506 969 465 950 c 1,79,80
 428 798 428 798 428 547 c 0,53,54
EndSplineSet
EndChar

StartChar: r
Encoding: 114 114 85
Width: 1310
GlyphClass: 2
Flags: W
LayerCount: 2
Fore
SplineSet
14 1403 m 1,0,-1
 45 1438 l 1,1,-1
 137 1438 l 2,2,3
 162 1438 162 1438 186 1438 c 0,4,5
 613 1438 613 1438 891 1372 c 0,6,7
 926 1364 926 1364 991 1343 c 0,8,9
 1100 1302 1100 1302 1169 1176 c 0,10,11
 1235 1059 1235 1059 1235 934 c 0,12,13
 1235 715 1235 715 1047 604 c 1,14,15
 1027 598 1027 598 990.5 583.5 c 128,-1,16
 954 569 954 569 956 543 c 2,17,-1
 956 535 l 1,18,19
 1069 469 1069 469 1108 324 c 0,20,21
 1108 322 1108 322 1118 236 c 2,22,-1
 1141 57 l 2,23,24
 1164 -119 1164 -119 1229 -180.5 c 128,-1,25
 1294 -242 1294 -242 1294 -285 c 0,26,27
 1294 -297 1294 -297 1290 -307 c 1,28,29
 1208 -354 1208 -354 1090 -354 c 0,30,31
 1010 -354 1010 -354 891 -332 c 1,32,33
 832 -252 832 -252 805 -74 c 0,34,35
 774 129 774 129 745 193 c 0,36,37
 686 322 686 322 532 352 c 1,38,-1
 504 326 l 1,39,-1
 504 260 l 2,40,41
 504 244 504 244 504 229 c 0,42,43
 504 -7 504 -7 532 -272 c 1,44,-1
 516 -301 l 1,45,-1
 45 -313 l 1,46,-1
 23 -291 l 1,47,48
 46 8 46 8 47 383 c 1,49,50
 47 358 47 358 47 309 c 2,51,-1
 45 1063 l 2,52,53
 45 1120 45 1120 29.5 1233 c 128,-1,54
 14 1346 14 1346 14 1403 c 1,0,-1
379 760 m 1,55,-1
 408 735 l 1,56,57
 553 745 553 745 596 762 c 0,58,59
 690 796 690 796 690 909 c 0,60,61
 690 1007 690 1007 657 1044 c 0,62,63
 632 1073 632 1073 582 1128 c 1,64,65
 562 1132 562 1132 511.5 1156 c 128,-1,66
 461 1180 461 1180 430 1180 c 0,67,68
 407 1180 407 1180 389 1169 c 1,69,-1
 379 760 l 1,55,-1
EndSplineSet
EndChar

StartChar: s
Encoding: 115 115 86
Width: 1376
GlyphClass: 2
Flags: W
LayerCount: 2
Fore
SplineSet
27 250 m 1,0,1
 97 260 97 260 182 260 c 0,2,3
 334 260 334 260 535 227 c 1,4,5
 549 207 549 207 557 129 c 0,6,7
 565 68 565 68 604 43 c 0,8,9
 661 8 661 8 733 8 c 0,10,11
 811 8 811 8 862 59 c 1,12,13
 856 186 856 186 760 279 c 0,14,15
 701 334 701 334 553 412 c 0,16,17
 459 461 459 461 406 496 c 0,18,19
 383 514 383 514 344 543 c 1,20,21
 317 555 317 555 264 584 c 1,22,23
 155 654 155 654 104 770 c 0,24,25
 88 805 88 805 86 817 c 0,26,27
 86 819 86 819 80 895 c 0,28,29
 68 1040 68 1040 68 1092 c 0,30,31
 68 1405 68 1405 244 1511 c 0,32,33
 344 1572 344 1572 553 1593 c 0,34,35
 817 1620 817 1620 907 1620 c 0,36,37
 1179 1620 1179 1620 1280 1468 c 0,38,39
 1364 1341 1364 1341 1364 958 c 0,40,41
 1364 882 1364 882 1356 817 c 1,42,43
 1233 817 1233 817 1110 819 c 0,44,45
 967 823 967 823 868 852 c 1,46,-1
 874 993 l 2,47,48
 874 1016 874 1016 879 1061 c 1,49,50
 879 1176 879 1176 854 1235 c 0,51,52
 831 1288 831 1288 772 1288 c 0,53,54
 706 1288 706 1288 645 1245 c 1,55,56
 559 1229 559 1229 528 1137 c 0,57,58
 520 1112 520 1112 520 1053 c 0,59,60
 520 922 520 922 588 868 c 0,61,62
 592 866 592 866 702 803 c 0,63,64
 915 682 915 682 999 629 c 0,65,66
 1159 527 1159 527 1270 420 c 0,67,68
 1286 406 1286 406 1313 377 c 1,69,70
 1386 278 1386 278 1386 90 c 0,71,72
 1386 -119 1386 -119 1296 -225 c 0,73,74
 1280 -243 1280 -243 1239 -274 c 0,75,76
 1083 -389 1083 -389 834 -389 c 0,77,78
 627 -389 627 -389 319 -309 c 0,79,80
 126 -258 126 -258 76 -82 c 0,81,82
 33 68 33 68 27 250 c 1,0,1
EndSplineSet
EndChar

StartChar: t
Encoding: 116 116 87
Width: 1785
GlyphClass: 2
Flags: W
LayerCount: 2
Fore
SplineSet
10 1163 m 1,0,1
 18 1222 18 1222 18 1380 c 0,2,3
 18 1517 18 1517 35 1597 c 1,4,5
 76 1613 76 1613 129 1614 c 0,6,7
 164 1614 164 1614 225 1604 c 0,8,9
 297 1590 297 1590 319 1587 c 1,10,11
 317 1587 317 1587 393 1587 c 2,12,-1
 573 1589 l 2,13,14
 708 1589 708 1589 982.5 1586 c 128,-1,15
 1257 1583 1257 1583 1393 1583 c 0,16,17
 1592 1583 1592 1583 1720 1587 c 1,18,-1
 1763 1563 l 1,19,-1
 1763 1235 l 1,20,-1
 1729 1204 l 1,21,-1
 1126 1229 l 1,22,-1
 1096 1194 l 1,23,24
 1096 1165 1096 1165 1106 586 c 0,25,26
 1112 230 1112 230 1137 -16 c 1,27,28
 1090 -30 1090 -30 1030 -31 c 0,29,30
 997 -31 997 -31 932.5 -24.5 c 128,-1,31
 868 -18 868 -18 836 -18 c 0,32,33
 803 -18 803 -18 778 -23 c 1,34,35
 768 -15 768 -15 715 -14 c 0,36,37
 674 -14 674 -14 662 12 c 1,38,39
 666 94 666 94 666 186 c 0,40,41
 666 329 666 329 649 645 c 0,42,43
 637 905 637 905 637 1061 c 0,44,45
 637 1083 637 1083 637 1104 c 1,46,-1
 594 1139 l 1,47,-1
 29 1139 l 1,48,-1
 10 1163 l 1,0,1
EndSplineSet
EndChar

StartChar: u
Encoding: 117 117 88
Width: 1245
GlyphClass: 2
Flags: W
LayerCount: 2
Fore
SplineSet
6 141 m 0,0,1
 6 186 6 186 14.5 276.5 c 128,-1,2
 23 367 23 367 23 412 c 0,3,4
 23 420 23 420 23 440 c 0,5,6
 21 458 21 458 20 469 c 1,7,8
 20 465 20 465 33 623 c 2,9,-1
 55 946 l 2,10,11
 75 1231 75 1231 139 1403 c 1,12,13
 190 1446 190 1446 276 1446 c 0,14,15
 323 1446 323 1446 360 1436 c 0,16,17
 419 1420 419 1420 420 1386 c 0,18,19
 420 1196 420 1196 408 885 c 0,20,21
 392 496 392 496 389 385 c 2,22,-1
 389 375 l 2,23,24
 389 372 389 372 389 369 c 0,25,26
 390 330 390 330 412 293 c 0,27,28
 436 254 436 254 479 244 c 0,29,30
 514 236 514 236 573 236 c 0,31,32
 671 236 671 236 688 295 c 0,33,34
 694 318 694 318 694 467 c 0,35,36
 694 551 694 551 687 719 c 128,-1,37
 680 887 680 887 680 971 c 0,38,39
 680 1213 680 1213 723 1393 c 1,40,41
 832 1442 832 1442 956 1442 c 0,42,43
 1089 1442 1089 1442 1188 1386 c 1,44,45
 1204 1341 1204 1341 1204 1268 c 0,46,47
 1204 1211 1204 1211 1212 1087 c 0,48,49
 1233 807 1233 807 1233 528 c 0,50,51
 1233 231 1233 231 1206 -8 c 1,52,53
 1155 -108 1155 -108 1126 -131 c 1,54,55
 1079 -154 1079 -154 1004 -193 c 0,56,57
 895 -248 895 -248 741 -248 c 0,58,59
 678 -248 678 -248 557 -240 c 0,60,61
 539 -236 539 -236 504 -229.5 c 128,-1,62
 469 -223 469 -223 360 -203 c 0,63,64
 180 -170 180 -170 104 -109 c 0,65,66
 6 -29 6 -29 6 141 c 0,0,1
EndSplineSet
EndChar

StartChar: v
Encoding: 118 118 89
Width: 1900
GlyphClass: 2
Flags: W
LayerCount: 2
Fore
SplineSet
0 1503 m 1,0,1
 4 1530 4 1530 18.5 1584 c 128,-1,2
 33 1638 33 1638 66 1638 c 0,3,4
 168 1638 168 1638 346 1616 c 0,5,6
 549 1591 549 1591 627 1587 c 1,7,8
 672 1548 672 1548 690 1475 c 1,9,10
 702 1409 702 1409 717 1346 c 0,11,12
 764 1158 764 1158 852 825 c 0,13,14
 928 538 928 538 1016 319 c 1,15,16
 1071 387 1071 387 1122 524 c 0,17,18
 1142 579 1142 579 1186 692 c 0,19,20
 1196 708 1196 708 1210.5 743 c 128,-1,21
 1225 778 1225 778 1288 977 c 0,22,23
 1347 1167 1347 1167 1427 1436 c 1,24,25
 1464 1479 1464 1479 1526 1479 c 0,26,27
 1563 1479 1563 1479 1624 1460 c 0,28,29
 1694 1440 1694 1440 1720 1436 c 0,30,31
 1767 1430 1767 1430 1815 1423 c 1,32,33
 1868 1409 1868 1409 1886 1370 c 1,34,35
 1866 1147 1866 1147 1757 977 c 0,36,37
 1749 967 1749 967 1737 946 c 1,38,39
 1729 919 1729 919 1712 872 c 0,40,41
 1685 802 1685 802 1619.5 672.5 c 128,-1,42
 1554 543 1554 543 1528 475 c 0,43,44
 1491 379 1491 379 1425 70 c 0,45,46
 1378 -155 1378 -155 1315 -281 c 0,47,48
 1299 -314 1299 -314 1296.5 -315.5 c 128,-1,49
 1294 -317 1294 -317 1219 -391 c 1,50,-1
 735 -383 l 1,51,52
 665 -340 665 -340 643 -223 c 0,53,54
 614 -78 614 -78 592 -43 c 1,55,56
 547 201 547 201 334 678 c 0,57,58
 242 881 242 881 150 1083 c 1,59,60
 48 1321 48 1321 0 1503 c 1,0,1
EndSplineSet
EndChar

StartChar: w
Encoding: 119 119 90
Width: 1851
GlyphClass: 2
Flags: W
LayerCount: 2
Fore
SplineSet
27 1468 m 0,0,1
 27 1505 27 1505 37 1540 c 1,2,3
 146 1573 146 1573 510 1624 c 1,4,-1
 553 1530 l 2,5,6
 555 1526 555 1526 610 1112 c 0,7,8
 643 864 643 864 688 705 c 1,9,10
 788 1090 788 1090 813 1487 c 1,11,12
 858 1546 858 1546 973 1546 c 0,13,14
 985 1546 985 1546 1087 1540 c 1,15,16
 1140 1505 1140 1505 1161 1432 c 0,17,18
 1173 1387 1173 1387 1178.5 1292.5 c 128,-1,19
 1184 1198 1184 1198 1196 1155 c 128,-1,20
 1208 1112 1208 1112 1249 905 c 0,21,22
 1280 753 1280 753 1321 664 c 1,23,24
 1364 816 1364 816 1372 1083 c 0,25,26
 1380 1394 1380 1394 1399 1505 c 1,27,-1
 1430 1540 l 1,28,-1
 1817 1554 l 1,29,30
 1833 1528 1833 1528 1833 1497 c 0,31,32
 1833 1468 1833 1468 1812.5 1409 c 128,-1,33
 1792 1350 1792 1350 1792 1313 c 1,34,35
 1792 1321 1792 1321 1767 1169 c 0,36,37
 1687 657 1687 657 1608 -231 c 1,38,39
 1475 -286 1475 -286 1315 -287 c 0,40,41
 1288 -287 1288 -287 1262 -285 c 1,42,43
 1145 219 1145 219 1022 635 c 1,44,-1
 1022 639 l 2,45,46
 1022 647 1022 647 1006 664 c 1,47,48
 983 592 983 592 958 451 c 0,49,50
 940 345 940 345 913 236 c 0,51,52
 907 213 907 213 893 66 c 0,53,54
 877 -69 877 -69 856 -297 c 1,55,56
 823 -344 823 -344 739 -354 c 0,57,58
 692 -358 692 -358 602 -373 c 1,59,60
 491 -401 491 -401 465 -401 c 0,61,62
 464 -401 464 -401 463 -401 c 0,63,64
 393 -401 393 -401 379 -350 c 0,65,66
 375 -323 375 -323 367 -270 c 2,67,-1
 336 -43 l 1,68,69
 279 344 279 344 258 483 c 0,70,71
 211 778 211 778 160 1006 c 0,72,73
 137 1104 137 1104 127 1145 c 0,74,75
 107 1223 107 1223 80 1278 c 0,76,77
 27 1393 27 1393 27 1468 c 0,0,1
EndSplineSet
EndChar

StartChar: x
Encoding: 120 120 91
Width: 1460
GlyphClass: 2
Flags: W
LayerCount: 2
Fore
SplineSet
37 1372 m 0,0,1
 37 1419 37 1419 106 1450 c 0,2,3
 274 1524 274 1524 328 1524 c 0,4,5
 365 1524 365 1524 393.5 1515.5 c 128,-1,6
 422 1507 422 1507 526 1323 c 0,7,8
 647 1106 647 1106 668 1081 c 1,9,10
 734 1212 734 1212 868 1475 c 1,11,12
 1030 1440 1030 1440 1251 1366 c 1,13,-1
 1251 1307 l 1,14,15
 1020 924 1020 924 918 705 c 1,16,17
 1020 545 1020 545 1186 313 c 0,18,19
 1323 120 1323 120 1460 -72 c 1,20,-1
 1460 -88 l 1,21,22
 1388 -131 1388 -131 1272 -180 c 0,23,24
 1104 -250 1104 -250 1077 -262 c 1,25,-1
 1042 -256 l 1,26,-1
 709 281 l 1,27,28
 641 156 641 156 573 31 c 0,29,30
 499 -114 499 -114 465 -231 c 1,31,32
 432 -249 432 -249 393 -250 c 0,33,34
 352 -250 352 -250 269 -222 c 0,35,36
 192 -196 192 -196 147 -197 c 0,37,38
 144 -197 144 -197 141 -197 c 0,39,40
 123 -168 123 -168 123 -131 c 0,41,42
 123 -92 123 -92 143 -41 c 0,43,44
 213 129 213 129 322 346 c 0,45,46
 373 444 373 444 465 645 c 1,47,48
 37 1302 37 1302 37 1372 c 0,0,1
EndSplineSet
EndChar

StartChar: y
Encoding: 121 121 92
Width: 1425
GlyphClass: 2
Flags: W
LayerCount: 2
Fore
SplineSet
2 1434 m 0,0,1
 2 1461 2 1461 80 1489 c 2,2,-1
 424 1614 l 1,3,4
 487 1581 487 1581 537 1483 c 0,5,6
 564 1428 564 1428 616 1315 c 0,7,8
 643 1262 643 1262 696 1157 c 0,9,10
 721 1106 721 1106 772 1006 c 1,11,12
 952 1270 952 1270 1049 1470 c 0,13,14
 1057 1490 1057 1490 1075 1530 c 0,15,16
 1093 1563 1093 1563 1151 1563 c 0,17,18
 1227 1563 1227 1563 1321 1522 c 0,19,20
 1432 1475 1432 1475 1432 1409 c 0,21,22
 1432 1374 1432 1374 1393 1303 c 0,23,24
 1379 1276 1379 1276 1352 1221 c 0,25,26
 1350 1213 1350 1213 1344.5 1198.5 c 128,-1,27
 1339 1184 1339 1184 1248 1024 c 128,-1,28
 1157 864 1157 864 1024 639 c 1,29,30
 998 270 998 270 998 -162 c 0,31,32
 998 -246 998 -246 999 -332 c 1,33,-1
 975 -356 l 1,34,-1
 481 -373 l 1,35,-1
 457 -350 l 1,36,37
 500 191 500 191 500 475 c 0,38,39
 500 553 500 553 498 629 c 1,40,41
 398 811 398 811 14 1405 c 0,42,43
 2 1423 2 1423 2 1434 c 0,0,1
EndSplineSet
EndChar

StartChar: z
Encoding: 122 122 93
Width: 1867
GlyphClass: 2
Flags: W
LayerCount: 2
Fore
SplineSet
20 -254 m 1,0,-1
 45 63 l 1,1,-1
 1065 999 l 1,2,-1
 213 1024 l 1,3,4
 209 1057 209 1057 209 1098 c 0,5,6
 209 1161 209 1161 225 1303 c 0,7,8
 238 1427 238 1427 238 1497 c 0,9,10
 238 1502 238 1502 238 1507 c 0,11,12
 279 1542 279 1542 348 1542 c 0,13,14
 366 1542 366 1542 405 1539 c 128,-1,15
 444 1536 444 1536 463 1536 c 0,16,17
 479 1536 479 1536 513 1536 c 128,-1,18
 547 1536 547 1536 563 1536 c 0,19,20
 655 1536 655 1536 735 1530 c 2,21,-1
 1841 1434 l 1,22,-1
 1866 1411 l 1,23,-1
 1817 1090 l 1,24,25
 1674 947 1674 947 1356 649 c 0,26,27
 1053 364 1053 364 897 207 c 1,28,29
 1135 213 1135 213 1616 242 c 1,30,31
 1616 158 1616 158 1573 -154 c 1,32,-1
 1548 -176 l 1,33,34
 1470 -180 1470 -180 1028 -207 c 2,35,-1
 39 -270 l 1,36,-1
 20 -254 l 1,0,-1
EndSplineSet
EndChar

StartChar: braceleft
Encoding: 123 123 94
Width: 571
GlyphClass: 2
Flags: W
LayerCount: 2
Fore
SplineSet
0 117 m 1,0,1
 0 633 0 633 55 1174 c 0,2,3
 57 1215 57 1215 68 1290 c 0,4,5
 70 1300 70 1300 84 1329 c 0,6,7
 143 1444 143 1444 279 1497 c 0,8,9
 355 1528 355 1528 578 1554 c 1,10,-1
 578 1337 l 2,11,12
 578 1208 578 1208 561 1128 c 1,13,14
 473 1124 473 1124 430 1034 c 1,15,16
 416 852 416 852 416 647 c 0,17,18
 416 500 416 500 424 360 c 0,19,20
 424 323 424 323 433 255.5 c 128,-1,21
 442 188 442 188 461 152 c 0,22,23
 488 95 488 95 535 72 c 1,24,-1
 547 -225 l 1,25,26
 408 -215 408 -215 406 -215 c 0,27,28
 322 -209 322 -209 264 -193 c 0,29,30
 129 -156 129 -156 59 -68 c 0,31,32
 39 -43 39 -43 37 -37 c 0,33,34
 31 -17 31 -17 0 117 c 1,0,1
EndSplineSet
EndChar

StartChar: bar
Encoding: 124 124 95
Width: 405
GlyphClass: 2
Flags: W
LayerCount: 2
Fore
SplineSet
20 670 m 1,0,-1
 20 864 l 2,1,2
 20 952 20 952 35 1006 c 1,3,-1
 385 1006 l 1,4,-1
 406 985 l 1,5,-1
 412 684 l 1,6,7
 353 655 353 655 248 655 c 0,8,9
 230 655 230 655 143 657 c 0,10,11
 82 659 82 659 41 657 c 1,12,-1
 20 670 l 1,0,-1
EndSplineSet
EndChar

StartChar: braceright
Encoding: 125 125 96
Width: 841
GlyphClass: 2
Flags: W
LayerCount: 2
Fore
SplineSet
37 -281 m 0,0,1
 37 -209 37 -209 66 -96 c 1,2,3
 222 -53 222 -53 254 41 c 0,4,5
 256 45 256 45 264 94 c 0,6,7
 289 256 289 256 295 496 c 0,8,9
 299 697 299 697 303 897 c 0,10,11
 305 915 305 915 309 977 c 0,12,13
 313 1028 313 1028 313 1055 c 0,14,15
 313 1061 313 1061 301 1096 c 0,16,17
 268 1200 268 1200 188 1243 c 0,18,19
 161 1257 161 1257 133 1260 c 0,20,21
 113 1260 113 1260 72 1268 c 1,22,23
 68 1293 68 1293 68 1317 c 0,24,25
 68 1368 68 1368 87 1467.5 c 128,-1,26
 106 1567 106 1567 106 1616 c 1,27,-1
 123 1622 l 1,28,29
 254 1614 254 1614 309 1606 c 0,30,31
 415 1592 415 1592 492 1561 c 0,32,33
 594 1522 594 1522 659 1448 c 0,34,35
 684 1423 684 1423 689 1415 c 128,-1,36
 694 1407 694 1407 707 1360 c 0,37,38
 762 1172 762 1172 778 881 c 2,39,-1
 799 506 l 2,40,41
 809 316 809 316 809 326 c 1,42,43
 809 109 809 109 764 -49 c 0,44,45
 715 -219 715 -219 598 -299 c 0,46,47
 563 -324 563 -324 545 -330 c 0,48,49
 518 -334 518 -334 471 -342 c 0,50,51
 383 -362 383 -362 293 -381 c 0,52,53
 189 -404 189 -404 113 -403 c 0,54,55
 86 -403 86 -403 59 -401 c 1,56,57
 36 -350 36 -350 37 -281 c 0,0,1
EndSplineSet
EndChar

StartChar: asciitilde
Encoding: 126 126 97
Width: 405
GlyphClass: 2
Flags: W
LayerCount: 2
Fore
SplineSet
20 670 m 1,0,-1
 20 864 l 2,1,2
 20 952 20 952 35 1006 c 1,3,-1
 385 1006 l 1,4,-1
 406 985 l 1,5,-1
 412 684 l 1,6,7
 353 655 353 655 248 655 c 0,8,9
 230 655 230 655 143 657 c 0,10,11
 82 659 82 659 41 657 c 1,12,-1
 20 670 l 1,0,-1
EndSplineSet
EndChar

StartChar: uni00AD
Encoding: 173 173 99
Width: 675
GlyphClass: 2
Flags: W
LayerCount: 2
Fore
SplineSet
14 754 m 1,0,1
 41 801 41 801 123 805 c 0,2,3
 264 813 264 813 481 813 c 0,4,5
 577 813 577 813 645 797 c 1,6,7
 653 772 653 772 653 739 c 0,8,9
 653 708 653 708 642 643 c 128,-1,10
 631 578 631 578 633 543 c 1,11,-1
 582 514 l 1,12,-1
 72 530 l 1,13,14
 27 550 27 550 27 604 c 0,15,16
 27 618 27 618 31 647 c 128,-1,17
 35 676 35 676 35 690 c 0,18,19
 35 729 35 729 14 754 c 1,0,1
EndSplineSet
EndChar

StartChar: uni2010
Encoding: 8208 8208 111
Width: 675
GlyphClass: 2
Flags: W
LayerCount: 2
Fore
SplineSet
14 754 m 1,0,1
 41 801 41 801 123 805 c 0,2,3
 264 813 264 813 481 813 c 0,4,5
 577 813 577 813 645 797 c 1,6,7
 653 772 653 772 653 739 c 0,8,9
 653 708 653 708 642 643 c 128,-1,10
 631 578 631 578 633 543 c 1,11,-1
 582 514 l 1,12,-1
 72 530 l 1,13,14
 27 550 27 550 27 604 c 0,15,16
 27 618 27 618 31 647 c 128,-1,17
 35 676 35 676 35 690 c 0,18,19
 35 729 35 729 14 754 c 1,0,1
EndSplineSet
EndChar

StartChar: uni2011
Encoding: 8209 8209 112
Width: 675
GlyphClass: 2
Flags: W
LayerCount: 2
Fore
SplineSet
14 754 m 1,0,1
 41 801 41 801 123 805 c 0,2,3
 264 813 264 813 481 813 c 0,4,5
 577 813 577 813 645 797 c 1,6,7
 653 772 653 772 653 739 c 0,8,9
 653 708 653 708 642 643 c 128,-1,10
 631 578 631 578 633 543 c 1,11,-1
 582 514 l 1,12,-1
 72 530 l 1,13,14
 27 550 27 550 27 604 c 0,15,16
 27 618 27 618 31 647 c 128,-1,17
 35 676 35 676 35 690 c 0,18,19
 35 729 35 729 14 754 c 1,0,1
EndSplineSet
EndChar

StartChar: figuredash
Encoding: 8210 8210 113
Width: 675
GlyphClass: 2
Flags: W
LayerCount: 2
Fore
SplineSet
14 754 m 1,0,1
 41 801 41 801 123 805 c 0,2,3
 264 813 264 813 481 813 c 0,4,5
 577 813 577 813 645 797 c 1,6,7
 653 772 653 772 653 739 c 0,8,9
 653 708 653 708 642 643 c 128,-1,10
 631 578 631 578 633 543 c 1,11,-1
 582 514 l 1,12,-1
 72 530 l 1,13,14
 27 550 27 550 27 604 c 0,15,16
 27 618 27 618 31 647 c 128,-1,17
 35 676 35 676 35 690 c 0,18,19
 35 729 35 729 14 754 c 1,0,1
EndSplineSet
EndChar

StartChar: endash
Encoding: 8211 8211 114
Width: 1060
GlyphClass: 2
Flags: W
LayerCount: 2
Fore
SplineSet
14 754 m 1,0,1
 57 801 57 801 189 805 c 0,2,3
 415 813 415 813 762 813 c 0,4,5
 916 813 916 813 1025 797 c 1,6,7
 1038 772 1038 772 1038 739 c 0,8,9
 1038 708 1038 708 1020.5 643 c 128,-1,10
 1003 578 1003 578 1006 543 c 1,11,-1
 924 514 l 1,12,-1
 107 530 l 1,13,14
 35 550 35 550 35 604 c 0,15,16
 35 618 35 618 41.5 647 c 128,-1,17
 48 676 48 676 48 690 c 0,18,19
 48 729 48 729 14 754 c 1,0,1
EndSplineSet
EndChar

StartChar: emdash
Encoding: 8212 8212 115
Width: 2084
GlyphClass: 2
Flags: W
LayerCount: 2
Fore
SplineSet
14 754 m 1,0,1
 101 801 101 801 363 805 c 0,2,3
 815 813 815 813 1511 813 c 0,4,5
 1818 813 1818 813 2036 797 c 1,6,7
 2062 772 2062 772 2062 739 c 0,8,9
 2062 708 2062 708 2026.5 643 c 128,-1,10
 1991 578 1991 578 1998 543 c 1,11,-1
 1834 514 l 1,12,-1
 200 530 l 1,13,14
 56 550 56 550 56 604 c 0,15,16
 56 618 56 618 68.5 647 c 128,-1,17
 81 676 81 676 81 690 c 0,18,19
 81 729 81 729 14 754 c 1,0,1
EndSplineSet
EndChar

StartChar: uni25FC
Encoding: 9724 9724 118
Width: 1525
GlyphClass: 2
Flags: W
LayerCount: 2
Fore
SplineSet
0 0 m 1,0,-1
 0 1526 l 1,1,-1
 1526 1526 l 1,2,-1
 1526 0 l 1,3,-1
 0 0 l 1,0,-1
EndSplineSet
EndChar

StartChar: Egrave
Encoding: 200 200 119
Width: 1017
Flags: W
LayerCount: 2
Fore
SplineSet
54 1738 m 1,0,-1
 66 1606 l 1,1,2
 186 1590 186 1590 269.5 1592 c 128,-1,3
 353 1594 353 1594 487 1599.5 c 128,-1,4
 621 1605 621 1605 702 1600 c 0,5,6
 742 1597 742 1597 818 1605 c 128,-1,7
 894 1613 894 1613 930 1612 c 0,8,9
 931 1612 931 1612 786 1637.5 c 128,-1,10
 641 1663 641 1663 458 1694.5 c 128,-1,11
 275 1726 275 1726 198 1738 c 1,12,-1
 57 1735 l 1,13,-1
 54 1726 l 1025,14,-1
8 170 m 1,15,16
 26 422 26 422 31 854 c 0,17,18
 37 1352 37 1352 45 1540 c 1,19,-1
 68 1556 l 1,20,21
 144 1552 144 1552 227 1552 c 0,22,23
 344 1552 344 1552 590 1565 c 0,24,25
 798 1577 798 1577 919 1577 c 0,26,27
 936 1577 936 1577 952 1577 c 2,28,-1
 995 1577 l 1,29,-1
 1012 1546 l 1,30,-1
 995 1206 l 1,31,32
 955 1176 955 1176 899 1176 c 0,33,34
 897 1176 897 1176 895 1176 c 0,35,36
 868 1176 868 1176 831 1184 c 0,37,38
 759 1200 759 1200 672 1200 c 0,39,40
 631 1200 631 1200 551 1198 c 128,-1,41
 471 1196 471 1196 430 1196 c 1,42,43
 408 1168 408 1168 408 1129 c 0,44,45
 408 1104 408 1104 416 1058 c 128,-1,46
 424 1012 424 1012 424 989 c 1,47,48
 483 952 483 952 580 952 c 1,49,50
 576 952 576 952 575 952 c 2,51,-1
 582 952 l 1,52,-1
 608 954 l 2,53,54
 674 958 674 958 725 961 c 2,55,-1
 750 961 l 2,56,57
 756 961 756 961 763 961 c 0,58,59
 817 961 817 961 862 946 c 1,60,-1
 848 639 l 1,61,-1
 334 633 l 1,62,63
 301 608 301 608 301 557 c 0,64,65
 301 541 301 541 306 509 c 128,-1,66
 311 477 311 477 311 463 c 1,67,-1
 342 440 l 1,68,-1
 719 442 l 2,69,70
 797 442 797 442 950 446 c 1,71,72
 973 403 973 403 977 317 c 1,73,74
 977 326 977 326 976 326 c 128,-1,75
 975 326 975 326 975 186 c 0,76,77
 975 157 975 157 922 127 c 1,78,79
 854 123 854 123 780 123 c 0,80,81
 653 123 653 123 400 136.5 c 128,-1,82
 147 150 147 150 20 150 c 1,83,-1
 8 170 l 1,15,16
EndSplineSet
EndChar

StartChar: Eacute
Encoding: 201 201 120
Width: 1017
InSpiro: 1
Flags: W
LayerCount: 2
Fore
SplineSet
114 1600 m 0,0,1
 253 1639 253 1639 522.5 1669.5 c 128,-1,2
 792 1700 792 1700 843 1708 c 0,3,4
 861 1711 861 1711 888 1711 c 1,5,6
 905 1719 905 1719 910.5 1709 c 128,-1,7
 916 1699 916 1699 916.5 1676 c 128,-1,8
 917 1653 917 1653 918 1648 c 2,9,-1
 918 1612 l 2,10,11
 915 1605 915 1605 900.5 1604 c 128,-1,12
 886 1603 886 1603 871.5 1605 c 128,-1,13
 857 1607 857 1607 846 1603 c 0,14,15
 827 1596 827 1596 802.5 1594 c 128,-1,16
 778 1592 778 1592 739.5 1594.5 c 128,-1,17
 701 1597 701 1597 693 1597 c 2,18,-1
 390 1603 l 1,19,-1
 111 1600 l 1025,20,-1
  Spiro
    114 1600 {
    285.625 1636.88 o
    522.5 1669.5 o
    737.375 1694.38 o
    843 1708 o
    863.25 1710.25 o
    888 1711 v
    902.125 1714.5 o
    910.5 1709 o
    914.75 1695.75 o
    916.5 1676 o
    917.125 1657.5 o
    918 1648 [
    918 1612 ]
    912.125 1606.5 o
    900.5 1604 o
    886 1603.75 o
    871.5 1605 o
    857.875 1605.5 o
    846 1603 o
    825.625 1597.25 o
    802.5 1594 o
    774.5 1593.12 o
    739.5 1594.5 o
    708.625 1596.38 o
    693 1597 [
    390 1603 v
    111 1600 v
    0 0 z
  EndSpiro
8 170 m 1,21,22
 26 422 26 422 31 854 c 0,23,24
 37 1352 37 1352 45 1540 c 1,25,-1
 68 1556 l 1,26,27
 144 1552 144 1552 227 1552 c 0,28,29
 344 1552 344 1552 590 1565 c 0,30,31
 798 1577 798 1577 919 1577 c 0,32,33
 936 1577 936 1577 952 1577 c 2,34,-1
 995 1577 l 1,35,-1
 1012 1546 l 1,36,-1
 995 1206 l 1,37,38
 955 1176 955 1176 899 1176 c 0,39,40
 897 1176 897 1176 895 1176 c 0,41,42
 868 1176 868 1176 831 1184 c 0,43,44
 759 1200 759 1200 672 1200 c 0,45,46
 631 1200 631 1200 551 1198 c 128,-1,47
 471 1196 471 1196 430 1196 c 1,48,49
 408 1168 408 1168 408 1129 c 0,50,51
 408 1104 408 1104 416 1058 c 128,-1,52
 424 1012 424 1012 424 989 c 1,53,54
 483 952 483 952 580 952 c 1,55,56
 576 952 576 952 575 952 c 2,57,-1
 582 952 l 1,58,-1
 608 954 l 2,59,60
 674 958 674 958 725 961 c 2,61,-1
 750 961 l 2,62,63
 756 961 756 961 763 961 c 0,64,65
 817 961 817 961 862 946 c 1,66,-1
 848 639 l 1,67,-1
 334 633 l 1,68,69
 301 608 301 608 301 557 c 0,70,71
 301 541 301 541 306 509 c 128,-1,72
 311 477 311 477 311 463 c 1,73,-1
 342 440 l 1,74,-1
 719 442 l 2,75,76
 797 442 797 442 950 446 c 1,77,78
 973 403 973 403 977 317 c 1,79,80
 977 326 977 326 976 326 c 128,-1,81
 975 326 975 326 975 186 c 0,82,83
 975 157 975 157 922 127 c 1,84,85
 854 123 854 123 780 123 c 0,86,87
 653 123 653 123 400 136.5 c 128,-1,88
 147 150 147 150 20 150 c 1,89,-1
 8 170 l 1,21,22
  Spiro
    8 170 v
    22.75 467 o
    31 854 o
    37.5 1274.5 o
    45 1540 v
    68 1556 v
    145.75 1553 o
    227 1552 o
    376.25 1555.25 o
    590 1565 o
    776.25 1574 o
    919 1577 o
    952 1577 v
    995 1577 v
    1012 1546 v
    995 1206 v
    951 1183.5 o
    899 1176 o
    895 1176 o
    865.5 1178 o
    831 1184 o
    755.25 1196 o
    672 1200 o
    621.25 1199.5 o
    551 1198 o
    480.75 1196.5 o
    430 1196 v
    413.5 1165.25 o
    408 1129 o
    410 1098.75 o
    416 1058 o
    422 1017.75 o
    424 989 v
    492.5 961.25 o
    580 952 v
    575 952 v
    582 952 v
    608 954 ]
    670.25 957.75 o
    725 961 [
    750 961 v
    763 961 o
    814.75 957.25 o
    862 946 v
    848 639 v
    334 633 v
    309.25 601.5 o
    301 557 o
    302.25 537 o
    306 509 o
    309.75 481.5 o
    311 463 v
    342 440 v
    719 442 ]
    815.75 443 o
    950 446 v
    968.25 392.25 o
    977 317 v
    976.75 323.75 o
    976 326 o
    975.25 291 o
    975 186 o
    961.75 156.75 o
    922 127 v
    852.5 124 o
    780 123 o
    621.5 126.375 o
    400 136.5 o
    178.5 146.625 o
    20 150 v
    0 0 z
  EndSpiro
EndSplineSet
EndChar

StartChar: Ecircumflex
Encoding: 202 202 121
Width: 1017
Flags: W
LayerCount: 2
Fore
SplineSet
255 1612 m 1,0,-1
 264 1612 l 2,1,2
 285 1612 285 1612 327 1609 c 128,-1,3
 369 1606 369 1606 390 1606 c 1,4,5
 410.142966061 1610.91912761 410.142966061 1610.91912761 450.680047804 1670.11551463 c 0,6,7
 490.097776676 1727.67730825 490.097776676 1727.67730825 506.003045806 1735.2994058 c 0,8,9
 529.15266009 1746.3931268 529.15266009 1746.3931268 542.642249996 1699.99441529 c 0,10,11
 544.387634714 1693.99100061 544.387634714 1693.99100061 546 1687 c 0,12,13
 550 1668 550 1668 557.5 1654 c 128,-1,14
 565 1640 565 1640 578.5 1631.5 c 128,-1,15
 592 1623 592 1623 601.5 1618 c 128,-1,16
 611 1613 611 1613 632 1611 c 128,-1,17
 653 1609 653 1609 663 1608.5 c 128,-1,18
 673 1608 673 1608 699.5 1608.5 c 128,-1,19
 726 1609 726 1609 735 1609 c 0,20,21
 740 1609 740 1609 740.5 1610 c 128,-1,22
 741 1611 741 1611 741 1615 c 0,23,24
 741 1633 741 1633 698 1703.5 c 128,-1,25
 655 1774 655 1774 599 1840 c 128,-1,26
 543 1906 543 1906 513 1906 c 0,27,28
 492 1906 492 1906 455.5 1868.5 c 128,-1,29
 419 1831 419 1831 379 1778.5 c 128,-1,30
 339 1726 339 1726 330 1717 c 2,31,-1
 267 1612 l 1025,32,-1
8 170 m 1,33,34
 26 422 26 422 31 854 c 0,35,36
 37 1352 37 1352 45 1540 c 1,37,-1
 68 1556 l 1,38,39
 144 1552 144 1552 227 1552 c 0,40,41
 344 1552 344 1552 590 1565 c 0,42,43
 798 1577 798 1577 919 1577 c 0,44,45
 936 1577 936 1577 952 1577 c 2,46,-1
 995 1577 l 1,47,-1
 1012 1546 l 1,48,-1
 995 1206 l 1,49,50
 955 1176 955 1176 899 1176 c 0,51,52
 897 1176 897 1176 895 1176 c 0,53,54
 868 1176 868 1176 831 1184 c 0,55,56
 759 1200 759 1200 672 1200 c 0,57,58
 631 1200 631 1200 551 1198 c 128,-1,59
 471 1196 471 1196 430 1196 c 1,60,61
 408 1168 408 1168 408 1129 c 0,62,63
 408 1104 408 1104 416 1058 c 128,-1,64
 424 1012 424 1012 424 989 c 1,65,66
 483 952 483 952 580 952 c 1,67,68
 576 952 576 952 575 952 c 2,69,-1
 582 952 l 1,70,-1
 608 954 l 2,71,72
 674 958 674 958 725 961 c 2,73,-1
 750 961 l 2,74,75
 756 961 756 961 763 961 c 0,76,77
 817 961 817 961 862 946 c 1,78,-1
 848 639 l 1,79,-1
 334 633 l 1,80,81
 301 608 301 608 301 557 c 0,82,83
 301 541 301 541 306 509 c 128,-1,84
 311 477 311 477 311 463 c 1,85,-1
 342 440 l 1,86,-1
 719 442 l 2,87,88
 797 442 797 442 950 446 c 1,89,90
 973 403 973 403 977 317 c 1,91,92
 977 326 977 326 976 326 c 128,-1,93
 975 326 975 326 975 186 c 0,94,95
 975 157 975 157 922 127 c 1,96,97
 854 123 854 123 780 123 c 0,98,99
 653 123 653 123 400 136.5 c 128,-1,100
 147 150 147 150 20 150 c 1,101,-1
 8 170 l 1,33,34
EndSplineSet
EndChar

StartChar: egrave
Encoding: 232 232 122
Width: 1017
Flags: W
LayerCount: 2
Fore
SplineSet
54 1738 m 1,0,-1
 66 1606 l 1,1,2
 186 1590 186 1590 269.5 1592 c 128,-1,3
 353 1594 353 1594 487 1599.5 c 128,-1,4
 621 1605 621 1605 702 1600 c 0,5,6
 742 1597 742 1597 818 1605 c 128,-1,7
 894 1613 894 1613 930 1612 c 0,8,9
 931 1612 931 1612 786 1637.5 c 128,-1,10
 641 1663 641 1663 458 1694.5 c 128,-1,11
 275 1726 275 1726 198 1738 c 1,12,-1
 57 1735 l 1,13,-1
 54 1726 l 1025,14,-1
8 170 m 1,15,16
 26 422 26 422 31 854 c 0,17,18
 37 1352 37 1352 45 1540 c 1,19,-1
 68 1556 l 1,20,21
 144 1552 144 1552 227 1552 c 0,22,23
 344 1552 344 1552 590 1565 c 0,24,25
 798 1577 798 1577 919 1577 c 0,26,27
 936 1577 936 1577 952 1577 c 2,28,-1
 995 1577 l 1,29,-1
 1012 1546 l 1,30,-1
 995 1206 l 1,31,32
 955 1176 955 1176 899 1176 c 0,33,34
 897 1176 897 1176 895 1176 c 0,35,36
 868 1176 868 1176 831 1184 c 0,37,38
 759 1200 759 1200 672 1200 c 0,39,40
 631 1200 631 1200 551 1198 c 128,-1,41
 471 1196 471 1196 430 1196 c 1,42,43
 408 1168 408 1168 408 1129 c 0,44,45
 408 1104 408 1104 416 1058 c 128,-1,46
 424 1012 424 1012 424 989 c 1,47,48
 483 952 483 952 580 952 c 1,49,50
 576 952 576 952 575 952 c 2,51,-1
 582 952 l 1,52,-1
 608 954 l 2,53,54
 674 958 674 958 725 961 c 2,55,-1
 750 961 l 2,56,57
 756 961 756 961 763 961 c 0,58,59
 817 961 817 961 862 946 c 1,60,-1
 848 639 l 1,61,-1
 334 633 l 1,62,63
 301 608 301 608 301 557 c 0,64,65
 301 541 301 541 306 509 c 128,-1,66
 311 477 311 477 311 463 c 1,67,-1
 342 440 l 1,68,-1
 719 442 l 2,69,70
 797 442 797 442 950 446 c 1,71,72
 973 403 973 403 977 317 c 1,73,74
 977 326 977 326 976 326 c 128,-1,75
 975 326 975 326 975 186 c 0,76,77
 975 157 975 157 922 127 c 1,78,79
 854 123 854 123 780 123 c 0,80,81
 653 123 653 123 400 136.5 c 128,-1,82
 147 150 147 150 20 150 c 1,83,-1
 8 170 l 1,15,16
EndSplineSet
EndChar

StartChar: eacute
Encoding: 233 233 123
Width: 1017
Flags: W
LayerCount: 2
Fore
SplineSet
114 1600 m 0,0,1
 253 1639 253 1639 522.5 1669.5 c 128,-1,2
 792 1700 792 1700 843 1708 c 0,3,4
 861 1711 861 1711 888 1711 c 1,5,6
 905 1719 905 1719 910.5 1709 c 128,-1,7
 916 1699 916 1699 916.5 1676 c 128,-1,8
 917 1653 917 1653 918 1648 c 2,9,-1
 918 1612 l 2,10,11
 915 1605 915 1605 900.5 1604 c 128,-1,12
 886 1603 886 1603 871.5 1605 c 128,-1,13
 857 1607 857 1607 846 1603 c 0,14,15
 827 1596 827 1596 802.5 1594 c 128,-1,16
 778 1592 778 1592 739.5 1594.5 c 128,-1,17
 701 1597 701 1597 693 1597 c 2,18,-1
 390 1603 l 1,19,-1
 111 1600 l 1025,20,-1
  Spiro
    114 1600 {
    285.625 1636.88 o
    522.5 1669.5 o
    737.375 1694.38 o
    843 1708 o
    863.25 1710.25 o
    888 1711 v
    902.125 1714.5 o
    910.5 1709 o
    914.75 1695.75 o
    916.5 1676 o
    917.125 1657.5 o
    918 1648 [
    918 1612 ]
    912.125 1606.5 o
    900.5 1604 o
    886 1603.75 o
    871.5 1605 o
    857.875 1605.5 o
    846 1603 o
    825.625 1597.25 o
    802.5 1594 o
    774.5 1593.12 o
    739.5 1594.5 o
    708.625 1596.38 o
    693 1597 [
    390 1603 v
    111 1600 v
    0 0 z
  EndSpiro
8 170 m 1,21,22
 26 422 26 422 31 854 c 0,23,24
 37 1352 37 1352 45 1540 c 1,25,-1
 68 1556 l 1,26,27
 144 1552 144 1552 227 1552 c 0,28,29
 344 1552 344 1552 590 1565 c 0,30,31
 798 1577 798 1577 919 1577 c 0,32,33
 936 1577 936 1577 952 1577 c 2,34,-1
 995 1577 l 1,35,-1
 1012 1546 l 1,36,-1
 995 1206 l 1,37,38
 955 1176 955 1176 899 1176 c 0,39,40
 897 1176 897 1176 895 1176 c 0,41,42
 868 1176 868 1176 831 1184 c 0,43,44
 759 1200 759 1200 672 1200 c 0,45,46
 631 1200 631 1200 551 1198 c 128,-1,47
 471 1196 471 1196 430 1196 c 1,48,49
 408 1168 408 1168 408 1129 c 0,50,51
 408 1104 408 1104 416 1058 c 128,-1,52
 424 1012 424 1012 424 989 c 1,53,54
 483 952 483 952 580 952 c 1,55,56
 576 952 576 952 575 952 c 2,57,-1
 582 952 l 1,58,-1
 608 954 l 2,59,60
 674 958 674 958 725 961 c 2,61,-1
 750 961 l 2,62,63
 756 961 756 961 763 961 c 0,64,65
 817 961 817 961 862 946 c 1,66,-1
 848 639 l 1,67,-1
 334 633 l 1,68,69
 301 608 301 608 301 557 c 0,70,71
 301 541 301 541 306 509 c 128,-1,72
 311 477 311 477 311 463 c 1,73,-1
 342 440 l 1,74,-1
 719 442 l 2,75,76
 797 442 797 442 950 446 c 1,77,78
 973 403 973 403 977 317 c 1,79,80
 977 326 977 326 976 326 c 128,-1,81
 975 326 975 326 975 186 c 0,82,83
 975 157 975 157 922 127 c 1,84,85
 854 123 854 123 780 123 c 0,86,87
 653 123 653 123 400 136.5 c 128,-1,88
 147 150 147 150 20 150 c 1,89,-1
 8 170 l 1,21,22
  Spiro
    8 170 v
    22.75 467 o
    31 854 o
    37.5 1274.5 o
    45 1540 v
    68 1556 v
    145.75 1553 o
    227 1552 o
    376.25 1555.25 o
    590 1565 o
    776.25 1574 o
    919 1577 o
    952 1577 v
    995 1577 v
    1012 1546 v
    995 1206 v
    951 1183.5 o
    899 1176 o
    895 1176 o
    865.5 1178 o
    831 1184 o
    755.25 1196 o
    672 1200 o
    621.25 1199.5 o
    551 1198 o
    480.75 1196.5 o
    430 1196 v
    413.5 1165.25 o
    408 1129 o
    410 1098.75 o
    416 1058 o
    422 1017.75 o
    424 989 v
    492.5 961.25 o
    580 952 v
    575 952 v
    582 952 v
    608 954 ]
    670.25 957.75 o
    725 961 [
    750 961 v
    763 961 o
    814.75 957.25 o
    862 946 v
    848 639 v
    334 633 v
    309.25 601.5 o
    301 557 o
    302.25 537 o
    306 509 o
    309.75 481.5 o
    311 463 v
    342 440 v
    719 442 ]
    815.75 443 o
    950 446 v
    968.25 392.25 o
    977 317 v
    976.75 323.75 o
    976 326 o
    975.25 291 o
    975 186 o
    961.75 156.75 o
    922 127 v
    852.5 124 o
    780 123 o
    621.5 126.375 o
    400 136.5 o
    178.5 146.625 o
    20 150 v
    0 0 z
  EndSpiro
EndSplineSet
EndChar

StartChar: ecircumflex
Encoding: 234 234 124
Width: 1017
Flags: W
LayerCount: 2
Fore
SplineSet
255 1612 m 1,0,-1
 264 1612 l 2,1,2
 285 1612 285 1612 327 1609 c 128,-1,3
 369 1606 369 1606 390 1606 c 1,4,5
 410.142966061 1610.91912761 410.142966061 1610.91912761 450.680047804 1670.11551463 c 0,6,7
 490.097776676 1727.67730825 490.097776676 1727.67730825 506.003045806 1735.2994058 c 0,8,9
 529.15266009 1746.3931268 529.15266009 1746.3931268 542.642249996 1699.99441529 c 0,10,11
 544.387634714 1693.99100061 544.387634714 1693.99100061 546 1687 c 0,12,13
 550 1668 550 1668 557.5 1654 c 128,-1,14
 565 1640 565 1640 578.5 1631.5 c 128,-1,15
 592 1623 592 1623 601.5 1618 c 128,-1,16
 611 1613 611 1613 632 1611 c 128,-1,17
 653 1609 653 1609 663 1608.5 c 128,-1,18
 673 1608 673 1608 699.5 1608.5 c 128,-1,19
 726 1609 726 1609 735 1609 c 0,20,21
 740 1609 740 1609 740.5 1610 c 128,-1,22
 741 1611 741 1611 741 1615 c 0,23,24
 741 1633 741 1633 698 1703.5 c 128,-1,25
 655 1774 655 1774 599 1840 c 128,-1,26
 543 1906 543 1906 513 1906 c 0,27,28
 492 1906 492 1906 455.5 1868.5 c 128,-1,29
 419 1831 419 1831 379 1778.5 c 128,-1,30
 339 1726 339 1726 330 1717 c 2,31,-1
 267 1612 l 1025,32,-1
8 170 m 1,33,34
 26 422 26 422 31 854 c 0,35,36
 37 1352 37 1352 45 1540 c 1,37,-1
 68 1556 l 1,38,39
 144 1552 144 1552 227 1552 c 0,40,41
 344 1552 344 1552 590 1565 c 0,42,43
 798 1577 798 1577 919 1577 c 0,44,45
 936 1577 936 1577 952 1577 c 2,46,-1
 995 1577 l 1,47,-1
 1012 1546 l 1,48,-1
 995 1206 l 1,49,50
 955 1176 955 1176 899 1176 c 0,51,52
 897 1176 897 1176 895 1176 c 0,53,54
 868 1176 868 1176 831 1184 c 0,55,56
 759 1200 759 1200 672 1200 c 0,57,58
 631 1200 631 1200 551 1198 c 128,-1,59
 471 1196 471 1196 430 1196 c 1,60,61
 408 1168 408 1168 408 1129 c 0,62,63
 408 1104 408 1104 416 1058 c 128,-1,64
 424 1012 424 1012 424 989 c 1,65,66
 483 952 483 952 580 952 c 1,67,68
 576 952 576 952 575 952 c 2,69,-1
 582 952 l 1,70,-1
 608 954 l 2,71,72
 674 958 674 958 725 961 c 2,73,-1
 750 961 l 2,74,75
 756 961 756 961 763 961 c 0,76,77
 817 961 817 961 862 946 c 1,78,-1
 848 639 l 1,79,-1
 334 633 l 1,80,81
 301 608 301 608 301 557 c 0,82,83
 301 541 301 541 306 509 c 128,-1,84
 311 477 311 477 311 463 c 1,85,-1
 342 440 l 1,86,-1
 719 442 l 2,87,88
 797 442 797 442 950 446 c 1,89,90
 973 403 973 403 977 317 c 1,91,92
 977 326 977 326 976 326 c 128,-1,93
 975 326 975 326 975 186 c 0,94,95
 975 157 975 157 922 127 c 1,96,97
 854 123 854 123 780 123 c 0,98,99
 653 123 653 123 400 136.5 c 128,-1,100
 147 150 147 150 20 150 c 1,101,-1
 8 170 l 1,33,34
EndSplineSet
EndChar

StartChar: Agrave
Encoding: 192 192 125
Width: 1687
Flags: W
LayerCount: 2
Fore
SplineSet
509 1902 m 0,0,1
 481 1795 481 1795 485 1710 c 1,2,3
 495 1682 495 1682 530.5 1674.5 c 128,-1,4
 566 1667 566 1667 608 1674 c 128,-1,5
 650 1681 650 1681 693 1684.5 c 128,-1,6
 736 1688 736 1688 761 1683 c 0,7,8
 801 1671 801 1671 854 1668.5 c 128,-1,9
 907 1666 907 1666 989 1668.5 c 128,-1,10
 1071 1671 1071 1671 1085 1671 c 0,11,12
 1088 1671 1088 1671 1088.5 1672 c 128,-1,13
 1089 1673 1089 1673 1088.46870676 1674.1598135 c 0,14,15
 1088 1676 1088 1676 1088 1677 c 2,16,-1
 1086 1683.5 l 2,17,18
 1084 1690 1084 1690 1081.5 1699 c 128,-1,19
 1079 1708 1079 1708 1079 1713 c 0,20,21
 1079 1749 1079 1749 989.5 1788 c 128,-1,22
 900 1827 900 1827 779 1861.5 c 128,-1,23
 658 1896 658 1896 644 1902 c 1,24,-1
 521 1914 l 1025,25,-1
0 -119 m 1,26,27
 12 92 12 92 113 266 c 0,28,29
 121 276 121 276 133 299 c 0,30,31
 137 313 137 313 143 340 c 0,32,33
 161 403 161 403 201 492 c 0,34,35
 267 639 267 639 266 641 c 0,36,37
 299 725 299 725 369 940 c 0,38,39
 482 1292 482 1292 526 1565 c 1,40,41
 544 1596 544 1596 594 1638 c 1,42,-1
 1026 1628 l 1,43,44
 1094 1573 1094 1573 1122 1473 c 0,45,46
 1122 1469 1122 1469 1153 1288 c 0,47,48
 1210 940 1210 940 1389 551 c 0,49,50
 1462 387 1462 387 1673 -199 c 1,51,52
 1673 -236 1673 -236 1669 -306.5 c 128,-1,53
 1665 -377 1665 -377 1606 -391 c 1,54,55
 1448 -371 1448 -371 1122 -342 c 1,56,57
 1079 -303 1079 -303 1065 -225 c 2,58,-1
 1040 -94 l 2,59,60
 1036 -76 1036 -76 1026 -39 c 0,61,62
 1012 29 1012 29 997 96 c 0,63,64
 981 174 981 174 956 225 c 1,65,-1
 526 225 l 1,66,-1
 512 211 l 1,67,-1
 399 -205 l 2,68,69
 389 -244 389 -244 342 -244 c 0,70,71
 326 -244 326 -244 295 -233.5 c 128,-1,72
 264 -223 264 -223 252 -221 c 0,73,74
 180 -213 180 -213 109 -203 c 1,75,76
 27 -185 27 -185 0 -119 c 1,26,27
623 545 m 1,77,-1
 883 551 l 1,78,79
 801 799 801 799 766 924 c 1,80,81
 666 674 666 674 623 545 c 1,77,-1
EndSplineSet
EndChar

StartChar: Acircumflex
Encoding: 194 194 126
Width: 1687
Flags: W
LayerCount: 2
Fore
SplineSet
464 1677 m 1,0,-1
 611 1671 l 1,1,2
 686 1690 686 1690 767 1734 c 0,3,4
 817 1761 817 1761 824 1761 c 0,5,6
 855 1751 855 1751 917 1715.5 c 128,-1,7
 979 1680 979 1680 1013 1671 c 0,8,9
 1130.44647872 1640.78377123 1130.44647872 1640.78377123 1124.01629871 1675.69201869 c 0,10,11
 1117.88532859 1708.97591157 1117.88532859 1708.97591157 1018.74403162 1776.02467439 c 0,12,13
 909.493883344 1849.91000274 909.493883344 1849.91000274 846.365005436 1861.60808613 c 0,14,15
 838.853521904 1863 838.853521904 1863 833 1863 c 0,16,17
 788 1863 788 1863 720 1830 c 128,-1,18
 652 1797 652 1797 575.5 1748.5 c 128,-1,19
 499 1700 499 1700 476 1689 c 1,20,-1
 464 1677 l 1025,21,-1
0 -119 m 1,22,23
 12 92 12 92 113 266 c 0,24,25
 121 276 121 276 133 299 c 0,26,27
 137 313 137 313 143 340 c 0,28,29
 161 403 161 403 201 492 c 0,30,31
 267 639 267 639 266 641 c 0,32,33
 299 725 299 725 369 940 c 0,34,35
 482 1292 482 1292 526 1565 c 1,36,37
 544 1596 544 1596 594 1638 c 1,38,-1
 1026 1628 l 1,39,40
 1094 1573 1094 1573 1122 1473 c 0,41,42
 1122 1469 1122 1469 1153 1288 c 0,43,44
 1210 940 1210 940 1389 551 c 0,45,46
 1462 387 1462 387 1673 -199 c 1,47,48
 1673 -236 1673 -236 1669 -306.5 c 128,-1,49
 1665 -377 1665 -377 1606 -391 c 1,50,51
 1448 -371 1448 -371 1122 -342 c 1,52,53
 1079 -303 1079 -303 1065 -225 c 2,54,-1
 1040 -94 l 2,55,56
 1036 -76 1036 -76 1026 -39 c 0,57,58
 1012 29 1012 29 997 96 c 0,59,60
 981 174 981 174 956 225 c 1,61,-1
 526 225 l 1,62,-1
 512 211 l 1,63,-1
 399 -205 l 2,64,65
 389 -244 389 -244 342 -244 c 0,66,67
 326 -244 326 -244 295 -233.5 c 128,-1,68
 264 -223 264 -223 252 -221 c 0,69,70
 180 -213 180 -213 109 -203 c 1,71,72
 27 -185 27 -185 0 -119 c 1,22,23
623 545 m 1,73,-1
 883 551 l 1,74,75
 801 799 801 799 766 924 c 1,76,77
 666 674 666 674 623 545 c 1,73,-1
EndSplineSet
EndChar

StartChar: acircumflex
Encoding: 226 226 127
Width: 1687
Flags: W
LayerCount: 2
Fore
SplineSet
464 1677 m 1,0,-1
 611 1671 l 1,1,2
 686 1690 686 1690 767 1734 c 0,3,4
 817 1761 817 1761 824 1761 c 0,5,6
 855 1751 855 1751 917 1715.5 c 128,-1,7
 979 1680 979 1680 1013 1671 c 0,8,9
 1130.44647872 1640.78377123 1130.44647872 1640.78377123 1124.01629871 1675.69201869 c 0,10,11
 1117.88532859 1708.97591157 1117.88532859 1708.97591157 1018.74403162 1776.02467439 c 0,12,13
 909.493883344 1849.91000274 909.493883344 1849.91000274 846.365005436 1861.60808613 c 0,14,15
 838.853521904 1863 838.853521904 1863 833 1863 c 0,16,17
 788 1863 788 1863 720 1830 c 128,-1,18
 652 1797 652 1797 575.5 1748.5 c 128,-1,19
 499 1700 499 1700 476 1689 c 1,20,-1
 464 1677 l 1025,21,-1
0 -119 m 1,22,23
 12 92 12 92 113 266 c 0,24,25
 121 276 121 276 133 299 c 0,26,27
 137 313 137 313 143 340 c 0,28,29
 161 403 161 403 201 492 c 0,30,31
 267 639 267 639 266 641 c 0,32,33
 299 725 299 725 369 940 c 0,34,35
 482 1292 482 1292 526 1565 c 1,36,37
 544 1596 544 1596 594 1638 c 1,38,-1
 1026 1628 l 1,39,40
 1094 1573 1094 1573 1122 1473 c 0,41,42
 1122 1469 1122 1469 1153 1288 c 0,43,44
 1210 940 1210 940 1389 551 c 0,45,46
 1462 387 1462 387 1673 -199 c 1,47,48
 1673 -236 1673 -236 1669 -306.5 c 128,-1,49
 1665 -377 1665 -377 1606 -391 c 1,50,51
 1448 -371 1448 -371 1122 -342 c 1,52,53
 1079 -303 1079 -303 1065 -225 c 2,54,-1
 1040 -94 l 2,55,56
 1036 -76 1036 -76 1026 -39 c 0,57,58
 1012 29 1012 29 997 96 c 0,59,60
 981 174 981 174 956 225 c 1,61,-1
 526 225 l 1,62,-1
 512 211 l 1,63,-1
 399 -205 l 2,64,65
 389 -244 389 -244 342 -244 c 0,66,67
 326 -244 326 -244 295 -233.5 c 128,-1,68
 264 -223 264 -223 252 -221 c 0,69,70
 180 -213 180 -213 109 -203 c 1,71,72
 27 -185 27 -185 0 -119 c 1,22,23
623 545 m 1,73,-1
 883 551 l 1,74,75
 801 799 801 799 766 924 c 1,76,77
 666 674 666 674 623 545 c 1,73,-1
EndSplineSet
EndChar

StartChar: agrave
Encoding: 224 224 128
Width: 1687
Flags: W
LayerCount: 2
Fore
SplineSet
509 1902 m 0,0,1
 481 1795 481 1795 485 1710 c 1,2,3
 495 1682 495 1682 530.5 1674.5 c 128,-1,4
 566 1667 566 1667 608 1674 c 128,-1,5
 650 1681 650 1681 693 1684.5 c 128,-1,6
 736 1688 736 1688 761 1683 c 0,7,8
 801 1671 801 1671 854 1668.5 c 128,-1,9
 907 1666 907 1666 989 1668.5 c 128,-1,10
 1071 1671 1071 1671 1085 1671 c 0,11,12
 1088 1671 1088 1671 1088.5 1672 c 128,-1,13
 1089 1673 1089 1673 1088.46870676 1674.1598135 c 0,14,15
 1088 1676 1088 1676 1088 1677 c 2,16,-1
 1086 1683.5 l 2,17,18
 1084 1690 1084 1690 1081.5 1699 c 128,-1,19
 1079 1708 1079 1708 1079 1713 c 0,20,21
 1079 1749 1079 1749 989.5 1788 c 128,-1,22
 900 1827 900 1827 779 1861.5 c 128,-1,23
 658 1896 658 1896 644 1902 c 1,24,-1
 521 1914 l 1025,25,-1
0 -119 m 1,26,27
 12 92 12 92 113 266 c 0,28,29
 121 276 121 276 133 299 c 0,30,31
 137 313 137 313 143 340 c 0,32,33
 161 403 161 403 201 492 c 0,34,35
 267 639 267 639 266 641 c 0,36,37
 299 725 299 725 369 940 c 0,38,39
 482 1292 482 1292 526 1565 c 1,40,41
 544 1596 544 1596 594 1638 c 1,42,-1
 1026 1628 l 1,43,44
 1094 1573 1094 1573 1122 1473 c 0,45,46
 1122 1469 1122 1469 1153 1288 c 0,47,48
 1210 940 1210 940 1389 551 c 0,49,50
 1462 387 1462 387 1673 -199 c 1,51,52
 1673 -236 1673 -236 1669 -306.5 c 128,-1,53
 1665 -377 1665 -377 1606 -391 c 1,54,55
 1448 -371 1448 -371 1122 -342 c 1,56,57
 1079 -303 1079 -303 1065 -225 c 2,58,-1
 1040 -94 l 2,59,60
 1036 -76 1036 -76 1026 -39 c 0,61,62
 1012 29 1012 29 997 96 c 0,63,64
 981 174 981 174 956 225 c 1,65,-1
 526 225 l 1,66,-1
 512 211 l 1,67,-1
 399 -205 l 2,68,69
 389 -244 389 -244 342 -244 c 0,70,71
 326 -244 326 -244 295 -233.5 c 128,-1,72
 264 -223 264 -223 252 -221 c 0,73,74
 180 -213 180 -213 109 -203 c 1,75,76
 27 -185 27 -185 0 -119 c 1,26,27
623 545 m 1,77,-1
 883 551 l 1,78,79
 801 799 801 799 766 924 c 1,80,81
 666 674 666 674 623 545 c 1,77,-1
EndSplineSet
EndChar

StartChar: ccedilla
Encoding: 231 231 129
Width: 1261
Flags: W
LayerCount: 2
Fore
SplineSet
538 -285 m 0,0,1
 536.823673024 -291 536.823673024 -291 538 -297 c 0,2,3
 538 -317 538 -317 545.5 -350 c 128,-1,4
 553 -383 553 -383 553 -393 c 0,5,6
 555 -405 555 -405 556 -413.5 c 128,-1,7
 557 -422 557 -422 551 -427 c 128,-1,8
 545 -432 545 -432 540 -435 c 128,-1,9
 535 -438 535 -438 526 -438.5 c 128,-1,10
 517 -439 517 -439 510.5 -439 c 128,-1,11
 504 -439 504 -439 495.5 -438.5 c 128,-1,12
 487 -438 487 -438 484 -438 c 0,13,14
 466 -438 466 -438 433 -442.5 c 128,-1,15
 400 -447 400 -447 382 -447 c 0,16,17
 337 -447 337 -447 337 -462 c 1,18,19
 344 -457 344 -457 345.5 -467 c 128,-1,20
 347 -477 347 -477 345.5 -491 c 128,-1,21
 344 -505 344 -505 346 -513 c 0,22,23
 349 -528 349 -528 344.5 -558.5 c 128,-1,24
 340 -589 340 -589 340 -597 c 0,25,26
 340 -601 340 -601 346.5 -604 c 128,-1,27
 353 -607 353 -607 364 -609 c 128,-1,28
 375 -611 375 -611 387 -611.5 c 128,-1,29
 399 -612 399 -612 414 -612.5 c 128,-1,30
 429 -613 429 -613 440 -613 c 128,-1,31
 451 -613 451 -613 462 -612.5 c 128,-1,32
 473 -612 473 -612 475 -612 c 0,33,34
 485 -612 485 -612 514.5 -612.5 c 128,-1,35
 544 -613 544 -613 560 -613 c 128,-1,36
 576 -613 576 -613 606.5 -611.5 c 128,-1,37
 637 -610 637 -610 655 -607.5 c 128,-1,38
 673 -605 673 -605 699.5 -600 c 128,-1,39
 726 -595 726 -595 742.5 -587.5 c 128,-1,40
 759 -580 759 -580 778 -568.5 c 128,-1,41
 797 -557 797 -557 807.5 -542.5 c 128,-1,42
 818 -528 818 -528 825 -507.5 c 128,-1,43
 832 -487 832 -487 832 -462 c 0,44,45
 832 -417 832 -417 811 -393 c 128,-1,46
 790 -369 790 -369 763.5 -364.5 c 128,-1,47
 737 -360 737 -360 702 -352.5 c 128,-1,48
 667 -345 667 -345 649 -333 c 1,49,-1
 637 -279 l 1025,50,-1
10 31 m 1,51,52
 10 678 10 678 47 1059 c 0,53,54
 51 1122 51 1122 70 1247 c 1,55,56
 97 1368 97 1368 211 1442 c 0,57,58
 287 1491 287 1491 428 1516 c 0,59,60
 485 1526 485 1526 586 1542 c 0,61,62
 662 1554 662 1554 664 1554 c 0,63,64
 699 1554 699 1554 760 1554 c 0,65,66
 830 1552 830 1552 858 1552 c 0,67,68
 876 1553 876 1553 904 1553 c 128,-1,69
 932 1553 932 1553 969 1552 c 0,70,71
 1147 1542 1147 1542 1206 1407 c 0,72,73
 1251 1307 1251 1307 1251 1098 c 0,74,75
 1251 1026 1251 1026 1243 891 c 1,76,-1
 1206 860 l 1,77,-1
 1192 860 l 2,78,79
 1185 860 1185 860 1177 860 c 0,80,81
 1144 860 1144 860 1094 854 c 0,82,83
 1030 846 1030 846 999 846 c 0,84,85
 925 846 925 846 879 877 c 1,86,-1
 879 887 l 2,87,88
 879 892 879 892 879 898 c 0,89,90
 879 918 879 918 884 952 c 0,91,92
 891 994 891 994 891 1016 c 0,93,94
 891 1124 891 1124 738 1124 c 0,95,96
 737 1124 737 1124 735 1124 c 0,97,98
 641 1124 641 1124 537 1100 c 0,99,100
 457 1082 457 1082 440 967 c 0,101,102
 426 867 426 867 426 786 c 0,103,104
 426 763 426 763 428 729 c 0,105,106
 430 682 430 682 430 670 c 0,107,108
 432 615 432 615 436 430 c 0,109,110
 442 170 442 170 484 92 c 128,-1,111
 526 14 526 14 662 14 c 0,112,113
 717 14 717 14 793 31 c 1,114,115
 852 90 852 90 870 219 c 1,116,117
 878 323 878 323 887 430 c 1,118,119
 942 438 942 438 997 438 c 0,120,121
 1101 438 1101 438 1192 408 c 1,122,123
 1186 289 1186 289 1165 51 c 0,124,125
 1147 -111 1147 -111 1051 -207 c 0,126,127
 1022 -236 1022 -236 1006 -246 c 0,128,129
 943 -285 943 -285 793 -285 c 0,130,131
 764 -285 764 -285 707.5 -283 c 128,-1,132
 651 -281 651 -281 625 -281 c 0,133,134
 613 -281 613 -281 588 -281 c 0,135,136
 565 -283 565 -283 553 -283 c 2,137,138
 553 -283 553 -283 442 -266 c 1,139,140
 383 -262 383 -262 279 -244 c 1,141,142
 148 -209 148 -209 76 -125 c 0,143,144
 56 -100 56 -100 53 -96 c 2,145,-1
 10 31 l 1,51,52
EndSplineSet
EndChar

StartChar: Ccedilla
Encoding: 199 199 130
Width: 1261
Flags: W
LayerCount: 2
Fore
SplineSet
538 -285 m 0,0,1
 536.823673024 -291 536.823673024 -291 538 -297 c 0,2,3
 538 -317 538 -317 545.5 -350 c 128,-1,4
 553 -383 553 -383 553 -393 c 0,5,6
 555 -405 555 -405 556 -413.5 c 128,-1,7
 557 -422 557 -422 551 -427 c 128,-1,8
 545 -432 545 -432 540 -435 c 128,-1,9
 535 -438 535 -438 526 -438.5 c 128,-1,10
 517 -439 517 -439 510.5 -439 c 128,-1,11
 504 -439 504 -439 495.5 -438.5 c 128,-1,12
 487 -438 487 -438 484 -438 c 0,13,14
 466 -438 466 -438 433 -442.5 c 128,-1,15
 400 -447 400 -447 382 -447 c 0,16,17
 337 -447 337 -447 337 -462 c 1,18,19
 344 -457 344 -457 345.5 -467 c 128,-1,20
 347 -477 347 -477 345.5 -491 c 128,-1,21
 344 -505 344 -505 346 -513 c 0,22,23
 349 -528 349 -528 344.5 -558.5 c 128,-1,24
 340 -589 340 -589 340 -597 c 0,25,26
 340 -601 340 -601 346.5 -604 c 128,-1,27
 353 -607 353 -607 364 -609 c 128,-1,28
 375 -611 375 -611 387 -611.5 c 128,-1,29
 399 -612 399 -612 414 -612.5 c 128,-1,30
 429 -613 429 -613 440 -613 c 128,-1,31
 451 -613 451 -613 462 -612.5 c 128,-1,32
 473 -612 473 -612 475 -612 c 0,33,34
 485 -612 485 -612 514.5 -612.5 c 128,-1,35
 544 -613 544 -613 560 -613 c 128,-1,36
 576 -613 576 -613 606.5 -611.5 c 128,-1,37
 637 -610 637 -610 655 -607.5 c 128,-1,38
 673 -605 673 -605 699.5 -600 c 128,-1,39
 726 -595 726 -595 742.5 -587.5 c 128,-1,40
 759 -580 759 -580 778 -568.5 c 128,-1,41
 797 -557 797 -557 807.5 -542.5 c 128,-1,42
 818 -528 818 -528 825 -507.5 c 128,-1,43
 832 -487 832 -487 832 -462 c 0,44,45
 832 -417 832 -417 811 -393 c 128,-1,46
 790 -369 790 -369 763.5 -364.5 c 128,-1,47
 737 -360 737 -360 702 -352.5 c 128,-1,48
 667 -345 667 -345 649 -333 c 1,49,-1
 637 -279 l 1025,50,-1
10 31 m 1,51,52
 10 678 10 678 47 1059 c 0,53,54
 51 1122 51 1122 70 1247 c 1,55,56
 97 1368 97 1368 211 1442 c 0,57,58
 287 1491 287 1491 428 1516 c 0,59,60
 485 1526 485 1526 586 1542 c 0,61,62
 662 1554 662 1554 664 1554 c 0,63,64
 699 1554 699 1554 760 1554 c 0,65,66
 830 1552 830 1552 858 1552 c 0,67,68
 876 1553 876 1553 904 1553 c 128,-1,69
 932 1553 932 1553 969 1552 c 0,70,71
 1147 1542 1147 1542 1206 1407 c 0,72,73
 1251 1307 1251 1307 1251 1098 c 0,74,75
 1251 1026 1251 1026 1243 891 c 1,76,-1
 1206 860 l 1,77,-1
 1192 860 l 2,78,79
 1185 860 1185 860 1177 860 c 0,80,81
 1144 860 1144 860 1094 854 c 0,82,83
 1030 846 1030 846 999 846 c 0,84,85
 925 846 925 846 879 877 c 1,86,-1
 879 887 l 2,87,88
 879 892 879 892 879 898 c 0,89,90
 879 918 879 918 884 952 c 0,91,92
 891 994 891 994 891 1016 c 0,93,94
 891 1124 891 1124 738 1124 c 0,95,96
 737 1124 737 1124 735 1124 c 0,97,98
 641 1124 641 1124 537 1100 c 0,99,100
 457 1082 457 1082 440 967 c 0,101,102
 426 867 426 867 426 786 c 0,103,104
 426 763 426 763 428 729 c 0,105,106
 430 682 430 682 430 670 c 0,107,108
 432 615 432 615 436 430 c 0,109,110
 442 170 442 170 484 92 c 128,-1,111
 526 14 526 14 662 14 c 0,112,113
 717 14 717 14 793 31 c 1,114,115
 852 90 852 90 870 219 c 1,116,117
 878 323 878 323 887 430 c 1,118,119
 942 438 942 438 997 438 c 0,120,121
 1101 438 1101 438 1192 408 c 1,122,123
 1186 289 1186 289 1165 51 c 0,124,125
 1147 -111 1147 -111 1051 -207 c 0,126,127
 1022 -236 1022 -236 1006 -246 c 0,128,129
 943 -285 943 -285 793 -285 c 0,130,131
 764 -285 764 -285 707.5 -283 c 128,-1,132
 651 -281 651 -281 625 -281 c 0,133,134
 613 -281 613 -281 588 -281 c 0,135,136
 565 -283 565 -283 553 -283 c 2,137,138
 553 -283 553 -283 442 -266 c 1,139,140
 383 -262 383 -262 279 -244 c 1,141,142
 148 -209 148 -209 76 -125 c 0,143,144
 56 -100 56 -100 53 -96 c 2,145,-1
 10 31 l 1,51,52
EndSplineSet
EndChar

StartChar: Ocircumflex
Encoding: 212 212 131
Width: 1114
Flags: W
LayerCount: 2
Fore
SplineSet
246 1564 m 1,0,-1
 420 1558 l 2,1,2
 422 1561 422 1561 424.5 1566.5 c 128,-1,3
 427 1572 427 1572 435 1587.5 c 128,-1,4
 443 1603 443 1603 450.5 1617 c 128,-1,5
 458 1631 458 1631 468.5 1648.5 c 128,-1,6
 479 1666 479 1666 488 1678.5 c 128,-1,7
 497 1691 497 1691 505.5 1699.5 c 128,-1,8
 514 1708 514 1708 519 1708 c 1,9,10
 528 1691 528 1691 543 1659 c 128,-1,11
 558 1627 558 1627 566.5 1610 c 128,-1,12
 575 1593 575 1593 592 1571.5 c 128,-1,13
 609 1550 609 1550 626.5 1542.5 c 128,-1,14
 644 1535 644 1535 672 1534.5 c 128,-1,15
 700 1534 700 1534 735 1546 c 0,16,17
 756 1553 756 1553 716 1638 c 128,-1,18
 676 1723 676 1723 612.5 1805.5 c 128,-1,19
 549 1888 549 1888 513 1888 c 0,20,21
 494 1888 494 1888 455.5 1844.5 c 128,-1,22
 417 1801 417 1801 371.5 1738.5 c 128,-1,23
 326 1676 326 1676 315 1663 c 2,24,-1
 255 1567 l 1,25,-1
 252 1567 l 1025,26,-1
-4 440 m 0,27,28
 -4 481 -4 481 -2 565 c 128,-1,29
 0 649 0 649 0 690 c 0,30,31
 0 733 0 733 -2 821 c 128,-1,32
 -4 909 -4 909 -4 952 c 0,33,34
 -4 1198 -4 1198 53 1343 c 0,35,36
 67 1376 67 1376 73.5 1384.5 c 128,-1,37
 80 1393 80 1393 111 1415 c 0,38,39
 228 1501 228 1501 408 1501 c 0,40,41
 560 1501 560 1501 729 1456 c 0,42,43
 930 1403 930 1403 1014 1317 c 0,44,45
 1075 1256 1075 1256 1081 1098 c 0,46,47
 1085 1018 1085 1018 1092 858 c 0,48,49
 1094 792 1094 792 1104 600 c 0,50,51
 1114 440 1114 440 1114 344 c 0,52,53
 1114 104 1114 104 1044 -23 c 0,54,55
 1024 -60 1024 -60 1014 -70 c 128,-1,56
 1004 -80 1004 -80 958 -104 c 0,57,58
 786 -200 786 -200 535 -201 c 0,59,60
 283 -201 283 -201 177.5 -115 c 128,-1,61
 72 -29 72 -29 27 137 c 0,62,63
 -4 250 -4 250 -4 440 c 0,27,28
479 1032 m 1,64,65
 489 565 489 565 489 557 c 0,66,67
 489 528 489 528 486 469 c 128,-1,68
 483 410 483 410 483 381 c 0,69,70
 483 244 483 244 547 182 c 0,71,72
 563 166 563 166 573 162 c 0,73,74
 593 154 593 154 629 154 c 0,75,76
 692 154 692 154 723 197 c 1,77,78
 731 401 731 401 731 571 c 0,79,80
 731 776 731 776 719 932 c 0,81,82
 719 952 719 952 715 989 c 0,83,84
 713 997 713 997 700 1018 c 0,85,86
 649 1098 649 1098 539 1098 c 1,87,88
 494 1061 494 1061 479 1032 c 1,64,65
EndSplineSet
EndChar

StartChar: ocircumflex
Encoding: 244 244 132
Width: 1114
Flags: W
LayerCount: 2
Fore
SplineSet
246 1564 m 1,0,-1
 420 1558 l 2,1,2
 422 1561 422 1561 424.5 1566.5 c 128,-1,3
 427 1572 427 1572 435 1587.5 c 128,-1,4
 443 1603 443 1603 450.5 1617 c 128,-1,5
 458 1631 458 1631 468.5 1648.5 c 128,-1,6
 479 1666 479 1666 488 1678.5 c 128,-1,7
 497 1691 497 1691 505.5 1699.5 c 128,-1,8
 514 1708 514 1708 519 1708 c 1,9,10
 528 1691 528 1691 543 1659 c 128,-1,11
 558 1627 558 1627 566.5 1610 c 128,-1,12
 575 1593 575 1593 592 1571.5 c 128,-1,13
 609 1550 609 1550 626.5 1542.5 c 128,-1,14
 644 1535 644 1535 672 1534.5 c 128,-1,15
 700 1534 700 1534 735 1546 c 0,16,17
 756 1553 756 1553 716 1638 c 128,-1,18
 676 1723 676 1723 612.5 1805.5 c 128,-1,19
 549 1888 549 1888 513 1888 c 0,20,21
 494 1888 494 1888 455.5 1844.5 c 128,-1,22
 417 1801 417 1801 371.5 1738.5 c 128,-1,23
 326 1676 326 1676 315 1663 c 2,24,-1
 255 1567 l 1,25,-1
 252 1567 l 1025,26,-1
-4 440 m 0,27,28
 -4 481 -4 481 -2 565 c 128,-1,29
 0 649 0 649 0 690 c 0,30,31
 0 733 0 733 -2 821 c 128,-1,32
 -4 909 -4 909 -4 952 c 0,33,34
 -4 1198 -4 1198 53 1343 c 0,35,36
 67 1376 67 1376 73.5 1384.5 c 128,-1,37
 80 1393 80 1393 111 1415 c 0,38,39
 228 1501 228 1501 408 1501 c 0,40,41
 560 1501 560 1501 729 1456 c 0,42,43
 930 1403 930 1403 1014 1317 c 0,44,45
 1075 1256 1075 1256 1081 1098 c 0,46,47
 1085 1018 1085 1018 1092 858 c 0,48,49
 1094 792 1094 792 1104 600 c 0,50,51
 1114 440 1114 440 1114 344 c 0,52,53
 1114 104 1114 104 1044 -23 c 0,54,55
 1024 -60 1024 -60 1014 -70 c 128,-1,56
 1004 -80 1004 -80 958 -104 c 0,57,58
 786 -200 786 -200 535 -201 c 0,59,60
 283 -201 283 -201 177.5 -115 c 128,-1,61
 72 -29 72 -29 27 137 c 0,62,63
 -4 250 -4 250 -4 440 c 0,27,28
479 1032 m 1,64,65
 489 565 489 565 489 557 c 0,66,67
 489 528 489 528 486 469 c 128,-1,68
 483 410 483 410 483 381 c 0,69,70
 483 244 483 244 547 182 c 0,71,72
 563 166 563 166 573 162 c 0,73,74
 593 154 593 154 629 154 c 0,75,76
 692 154 692 154 723 197 c 1,77,78
 731 401 731 401 731 571 c 0,79,80
 731 776 731 776 719 932 c 0,81,82
 719 952 719 952 715 989 c 0,83,84
 713 997 713 997 700 1018 c 0,85,86
 649 1098 649 1098 539 1098 c 1,87,88
 494 1061 494 1061 479 1032 c 1,64,65
EndSplineSet
EndChar

StartChar: ugrave
Encoding: 249 249 133
Width: 1245
Flags: W
LayerCount: 2
Fore
SplineSet
340 1794 m 0,0,1
 330 1779 330 1779 327 1749 c 128,-1,2
 324 1719 324 1719 324 1680.5 c 128,-1,3
 324 1642 324 1642 322 1626 c 0,4,5
 322 1617 322 1617 319 1601 c 128,-1,6
 316 1585 316 1585 316 1584 c 0,7,8
 316 1576 316 1576 597.5 1557.5 c 128,-1,9
 879 1539 879 1539 934 1539 c 0,10,11
 944 1539 944 1539 944 1542 c 0,12,13
 893 1581 893 1581 828 1622.5 c 128,-1,14
 763 1664 763 1664 718.5 1689 c 128,-1,15
 674 1714 674 1714 591.5 1758.5 c 128,-1,16
 509 1803 509 1803 476 1821 c 0,17,18
 406 1860 406 1860 368 1860 c 0,19,20
 362 1860 362 1860 356 1850 c 128,-1,21
 350 1840 350 1840 342 1820.5 c 128,-1,22
 334 1801 334 1801 328 1791 c 1,23,-1
 314 1788 l 1025,24,-1
6 141 m 0,25,26
 6 186 6 186 14.5 276.5 c 128,-1,27
 23 367 23 367 23 412 c 0,28,29
 23 420 23 420 23 440 c 0,30,31
 21 458 21 458 20 469 c 1,32,33
 20 465 20 465 33 623 c 2,34,-1
 55 946 l 2,35,36
 75 1231 75 1231 139 1403 c 1,37,38
 190 1446 190 1446 276 1446 c 0,39,40
 323 1446 323 1446 360 1436 c 0,41,42
 419 1420 419 1420 420 1386 c 0,43,44
 420 1196 420 1196 408 885 c 0,45,46
 392 496 392 496 389 385 c 2,47,-1
 389 375 l 2,48,49
 389 372 389 372 389 369 c 0,50,51
 390 330 390 330 412 293 c 0,52,53
 436 254 436 254 479 244 c 0,54,55
 514 236 514 236 573 236 c 0,56,57
 671 236 671 236 688 295 c 0,58,59
 694 318 694 318 694 467 c 0,60,61
 694 551 694 551 687 719 c 128,-1,62
 680 887 680 887 680 971 c 0,63,64
 680 1213 680 1213 723 1393 c 1,65,66
 832 1442 832 1442 956 1442 c 0,67,68
 1089 1442 1089 1442 1188 1386 c 1,69,70
 1204 1341 1204 1341 1204 1268 c 0,71,72
 1204 1211 1204 1211 1212 1087 c 0,73,74
 1233 807 1233 807 1233 528 c 0,75,76
 1233 231 1233 231 1206 -8 c 1,77,78
 1155 -108 1155 -108 1126 -131 c 1,79,80
 1079 -154 1079 -154 1004 -193 c 0,81,82
 895 -248 895 -248 741 -248 c 0,83,84
 678 -248 678 -248 557 -240 c 0,85,86
 539 -236 539 -236 504 -229.5 c 128,-1,87
 469 -223 469 -223 360 -203 c 0,88,89
 180 -170 180 -170 104 -109 c 0,90,91
 6 -29 6 -29 6 141 c 0,25,26
EndSplineSet
EndChar

StartChar: Ugrave
Encoding: 217 217 134
Width: 1245
Flags: W
LayerCount: 2
Fore
SplineSet
340 1794 m 0,0,1
 330 1779 330 1779 327 1749 c 128,-1,2
 324 1719 324 1719 324 1680.5 c 128,-1,3
 324 1642 324 1642 322 1626 c 0,4,5
 322 1617 322 1617 319 1601 c 128,-1,6
 316 1585 316 1585 316 1584 c 0,7,8
 316 1576 316 1576 597.5 1557.5 c 128,-1,9
 879 1539 879 1539 934 1539 c 0,10,11
 944 1539 944 1539 944 1542 c 0,12,13
 893 1581 893 1581 828 1622.5 c 128,-1,14
 763 1664 763 1664 718.5 1689 c 128,-1,15
 674 1714 674 1714 591.5 1758.5 c 128,-1,16
 509 1803 509 1803 476 1821 c 0,17,18
 406 1860 406 1860 368 1860 c 0,19,20
 362 1860 362 1860 356 1850 c 128,-1,21
 350 1840 350 1840 342 1820.5 c 128,-1,22
 334 1801 334 1801 328 1791 c 1,23,-1
 314 1788 l 1025,24,-1
6 141 m 0,25,26
 6 186 6 186 14.5 276.5 c 128,-1,27
 23 367 23 367 23 412 c 0,28,29
 23 420 23 420 23 440 c 0,30,31
 21 458 21 458 20 469 c 1,32,33
 20 465 20 465 33 623 c 2,34,-1
 55 946 l 2,35,36
 75 1231 75 1231 139 1403 c 1,37,38
 190 1446 190 1446 276 1446 c 0,39,40
 323 1446 323 1446 360 1436 c 0,41,42
 419 1420 419 1420 420 1386 c 0,43,44
 420 1196 420 1196 408 885 c 0,45,46
 392 496 392 496 389 385 c 2,47,-1
 389 375 l 2,48,49
 389 372 389 372 389 369 c 0,50,51
 390 330 390 330 412 293 c 0,52,53
 436 254 436 254 479 244 c 0,54,55
 514 236 514 236 573 236 c 0,56,57
 671 236 671 236 688 295 c 0,58,59
 694 318 694 318 694 467 c 0,60,61
 694 551 694 551 687 719 c 128,-1,62
 680 887 680 887 680 971 c 0,63,64
 680 1213 680 1213 723 1393 c 1,65,66
 832 1442 832 1442 956 1442 c 0,67,68
 1089 1442 1089 1442 1188 1386 c 1,69,70
 1204 1341 1204 1341 1204 1268 c 0,71,72
 1204 1211 1204 1211 1212 1087 c 0,73,74
 1233 807 1233 807 1233 528 c 0,75,76
 1233 231 1233 231 1206 -8 c 1,77,78
 1155 -108 1155 -108 1126 -131 c 1,79,80
 1079 -154 1079 -154 1004 -193 c 0,81,82
 895 -248 895 -248 741 -248 c 0,83,84
 678 -248 678 -248 557 -240 c 0,85,86
 539 -236 539 -236 504 -229.5 c 128,-1,87
 469 -223 469 -223 360 -203 c 0,88,89
 180 -170 180 -170 104 -109 c 0,90,91
 6 -29 6 -29 6 141 c 0,25,26
EndSplineSet
EndChar

StartChar: Icircumflex
Encoding: 206 206 135
Width: 557
Flags: W
LayerCount: 2
Fore
SplineSet
107 1530 m 0,0,1
 112.624862671 1529.3250103 112.624862671 1529.3250103 116 1530 c 0,2,3
 125 1526 125 1526 137 1524.5 c 128,-1,4
 149 1523 149 1523 156 1523 c 128,-1,5
 163 1523 163 1523 178 1523.5 c 128,-1,6
 193 1524 193 1524 197 1524 c 0,7,8
 234 1525 234 1525 253 1562.5 c 128,-1,9
 272 1600 272 1600 278 1637 c 128,-1,10
 284 1674 284 1674 290 1674 c 0,11,12
 311 1674 311 1674 328 1650.5 c 128,-1,13
 345 1627 345 1627 357 1599 c 128,-1,14
 369 1571 369 1571 401 1547.5 c 128,-1,15
 433 1524 433 1524 482 1524 c 1,16,17
 464 1524 464 1524 439 1569.5 c 128,-1,18
 414 1615 414 1615 392 1669.5 c 128,-1,19
 370 1724 370 1724 337 1769.5 c 128,-1,20
 304 1815 304 1815 272 1815 c 0,21,22
 269 1815 269 1815 236.5 1756.5 c 128,-1,23
 204 1698 204 1698 162.5 1620 c 128,-1,24
 121 1542 121 1542 119 1539 c 2,25,-1
 116 1527 l 1025,26,-1
41 135 m 0,27,28
 41 162 41 162 49 218 c 128,-1,29
 57 274 57 274 57 305 c 0,30,31
 57 325 57 325 66 453 c 0,32,33
 102 1071 102 1071 102 1188 c 0,34,35
 102 1191 102 1191 102 1194 c 0,36,37
 102 1323 102 1323 94 1436 c 1,38,39
 104 1452 104 1452 170 1473 c 1,40,41
 188 1469 188 1469 231 1468 c 0,42,43
 254 1468 254 1468 301 1470.5 c 128,-1,44
 348 1473 348 1473 373 1473 c 0,45,46
 457 1473 457 1473 504 1442 c 1,47,48
 473 1206 473 1206 473 840 c 2,49,-1
 471 346 l 2,50,51
 471 322 471 322 471 293 c 0,52,53
 471 205 471 205 467 66 c 1,54,-1
 444 53 l 1,55,-1
 86 45 l 1,56,57
 41 74 41 74 41 135 c 0,27,28
EndSplineSet
EndChar

StartChar: icircumflex
Encoding: 238 238 136
Width: 557
Flags: W
LayerCount: 2
Fore
SplineSet
107 1530 m 0,0,1
 112.624862671 1529.3250103 112.624862671 1529.3250103 116 1530 c 0,2,3
 125 1526 125 1526 137 1524.5 c 128,-1,4
 149 1523 149 1523 156 1523 c 128,-1,5
 163 1523 163 1523 178 1523.5 c 128,-1,6
 193 1524 193 1524 197 1524 c 0,7,8
 234 1525 234 1525 253 1562.5 c 128,-1,9
 272 1600 272 1600 278 1637 c 128,-1,10
 284 1674 284 1674 290 1674 c 0,11,12
 311 1674 311 1674 328 1650.5 c 128,-1,13
 345 1627 345 1627 357 1599 c 128,-1,14
 369 1571 369 1571 401 1547.5 c 128,-1,15
 433 1524 433 1524 482 1524 c 1,16,17
 464 1524 464 1524 439 1569.5 c 128,-1,18
 414 1615 414 1615 392 1669.5 c 128,-1,19
 370 1724 370 1724 337 1769.5 c 128,-1,20
 304 1815 304 1815 272 1815 c 0,21,22
 269 1815 269 1815 236.5 1756.5 c 128,-1,23
 204 1698 204 1698 162.5 1620 c 128,-1,24
 121 1542 121 1542 119 1539 c 2,25,-1
 116 1527 l 1025,26,-1
41 135 m 0,27,28
 41 162 41 162 49 218 c 128,-1,29
 57 274 57 274 57 305 c 0,30,31
 57 325 57 325 66 453 c 0,32,33
 102 1071 102 1071 102 1188 c 0,34,35
 102 1191 102 1191 102 1194 c 0,36,37
 102 1323 102 1323 94 1436 c 1,38,39
 104 1452 104 1452 170 1473 c 1,40,41
 188 1469 188 1469 231 1468 c 0,42,43
 254 1468 254 1468 301 1470.5 c 128,-1,44
 348 1473 348 1473 373 1473 c 0,45,46
 457 1473 457 1473 504 1442 c 1,47,48
 473 1206 473 1206 473 840 c 2,49,-1
 471 346 l 2,50,51
 471 322 471 322 471 293 c 0,52,53
 471 205 471 205 467 66 c 1,54,-1
 444 53 l 1,55,-1
 86 45 l 1,56,57
 41 74 41 74 41 135 c 0,27,28
EndSplineSet
EndChar
